<?xml version="1.0" encoding="utf-8" standalone="no"?>
<!DOCTYPE svg PUBLIC "-//W3C//DTD SVG 1.1//EN"
  "http://www.w3.org/Graphics/SVG/1.1/DTD/svg11.dtd">
<svg xmlns:xlink="http://www.w3.org/1999/xlink" width="144.7425pt" height="112.764281pt" viewBox="0 0 144.7425 112.764281" xmlns="http://www.w3.org/2000/svg" version="1.1">
 <metadata>
  <rdf:RDF xmlns:dc="http://purl.org/dc/elements/1.1/" xmlns:cc="http://creativecommons.org/ns#" xmlns:rdf="http://www.w3.org/1999/02/22-rdf-syntax-ns#">
   <cc:Work>
    <dc:type rdf:resource="http://purl.org/dc/dcmitype/StillImage"/>
    <dc:date>2024-03-09T13:26:34.699045</dc:date>
    <dc:format>image/svg+xml</dc:format>
    <dc:creator>
     <cc:Agent>
      <dc:title>Matplotlib v3.5.2, https://matplotlib.org/</dc:title>
     </cc:Agent>
    </dc:creator>
   </cc:Work>
  </rdf:RDF>
 </metadata>
 <defs>
  <style type="text/css">*{stroke-linejoin: round; stroke-linecap: butt}</style>
 </defs>
 <g id="figure_1">
  <g id="patch_1">
   <path d="M 0 112.764281 
L 144.7425 112.764281 
L 144.7425 0 
L 0 0 
z
" style="fill: #ffffff"/>
  </g>
  <g id="axes_1">
   <g id="patch_2">
    <path d="M 32.540625 86.856469 
L 132.980625 86.856469 
L 132.980625 9.240469 
L 32.540625 9.240469 
z
" style="fill: #ffffff"/>
   </g>
   <g id="matplotlib.axis_1">
    <g id="xtick_1">
     <g id="line2d_1">
      <path d="M 32.540625 86.856469 
L 32.540625 9.240469 
" clip-path="url(#p082df5166c)" style="fill: none; stroke-dasharray: 0.74,0.32; stroke-dashoffset: 0; stroke: #b0b0b0; stroke-opacity: 0.8; stroke-width: 0.2"/>
     </g>
     <g id="line2d_2">
      <defs>
       <path id="m98485a6563" d="M 0 0 
L 0 -1 
" style="stroke: #000000; stroke-width: 0.3"/>
      </defs>
      <g>
       <use xlink:href="#m98485a6563" x="32.540625" y="86.856469" style="stroke: #000000; stroke-width: 0.3"/>
      </g>
     </g>
     <g id="line2d_3">
      <defs>
       <path id="ma5063f6b40" d="M 0 0 
L 0 1 
" style="stroke: #000000; stroke-width: 0.3"/>
      </defs>
      <g>
       <use xlink:href="#ma5063f6b40" x="32.540625" y="9.240469" style="stroke: #000000; stroke-width: 0.3"/>
      </g>
     </g>
     <g id="text_1">
      <!-- 100 -->
      <g transform="translate(27.97875 94.437406)scale(0.06 -0.06)">
       <defs>
        <path id="Calibri-31" d="M 2897 213 
Q 2897 153 2887 112 
Q 2878 72 2862 47 
Q 2847 22 2826 11 
Q 2806 0 2784 0 
L 672 0 
Q 650 0 631 11 
Q 613 22 595 47 
Q 578 72 568 112 
Q 559 153 559 213 
Q 559 269 568 309 
Q 578 350 592 376 
Q 606 403 626 417 
Q 647 431 672 431 
L 1516 431 
L 1516 3506 
L 734 3041 
Q 675 3009 639 3003 
Q 603 2997 581 3017 
Q 559 3038 551 3084 
Q 544 3131 544 3203 
Q 544 3256 548 3293 
Q 553 3331 562 3356 
Q 572 3381 589 3400 
Q 606 3419 634 3438 
L 1566 4034 
Q 1578 4044 1597 4050 
Q 1616 4056 1644 4062 
Q 1672 4069 1709 4070 
Q 1747 4072 1803 4072 
Q 1878 4072 1928 4065 
Q 1978 4059 2006 4048 
Q 2034 4038 2043 4020 
Q 2053 4003 2053 3984 
L 2053 431 
L 2784 431 
Q 2809 431 2831 417 
Q 2853 403 2867 376 
Q 2881 350 2889 309 
Q 2897 269 2897 213 
z
" transform="scale(0.015625)"/>
        <path id="Calibri-30" d="M 3022 2031 
Q 3022 1566 2948 1181 
Q 2875 797 2704 520 
Q 2534 244 2259 92 
Q 1984 -59 1581 -59 
Q 1200 -59 939 77 
Q 678 213 518 477 
Q 359 741 292 1127 
Q 225 1513 225 2013 
Q 225 2475 300 2861 
Q 375 3247 544 3523 
Q 713 3800 988 3951 
Q 1263 4103 1663 4103 
Q 2047 4103 2308 3967 
Q 2569 3831 2728 3567 
Q 2888 3303 2955 2917 
Q 3022 2531 3022 2031 
z
M 2472 1994 
Q 2472 2297 2450 2537 
Q 2428 2778 2386 2962 
Q 2344 3147 2276 3280 
Q 2209 3413 2115 3498 
Q 2022 3584 1901 3623 
Q 1781 3663 1631 3663 
Q 1366 3663 1200 3538 
Q 1034 3413 939 3194 
Q 844 2975 809 2681 
Q 775 2388 775 2050 
Q 775 1597 822 1280 
Q 869 963 970 763 
Q 1072 563 1230 472 
Q 1388 381 1613 381 
Q 1788 381 1920 437 
Q 2053 494 2148 598 
Q 2244 703 2306 850 
Q 2369 997 2406 1175 
Q 2444 1353 2458 1561 
Q 2472 1769 2472 1994 
z
" transform="scale(0.015625)"/>
       </defs>
       <use xlink:href="#Calibri-31"/>
       <use xlink:href="#Calibri-30" x="50.683594"/>
       <use xlink:href="#Calibri-30" x="101.367188"/>
      </g>
     </g>
    </g>
    <g id="xtick_2">
     <g id="line2d_4">
      <path d="M 57.650625 86.856469 
L 57.650625 9.240469 
" clip-path="url(#p082df5166c)" style="fill: none; stroke-dasharray: 0.74,0.32; stroke-dashoffset: 0; stroke: #b0b0b0; stroke-opacity: 0.8; stroke-width: 0.2"/>
     </g>
     <g id="line2d_5">
      <g>
       <use xlink:href="#m98485a6563" x="57.650625" y="86.856469" style="stroke: #000000; stroke-width: 0.3"/>
      </g>
     </g>
     <g id="line2d_6">
      <g>
       <use xlink:href="#ma5063f6b40" x="57.650625" y="9.240469" style="stroke: #000000; stroke-width: 0.3"/>
      </g>
     </g>
     <g id="text_2">
      <!-- 200 -->
      <g transform="translate(53.08875 94.437406)scale(0.06 -0.06)">
       <defs>
        <path id="Calibri-32" d="M 2888 231 
Q 2888 175 2880 131 
Q 2872 88 2858 58 
Q 2844 28 2820 14 
Q 2797 0 2769 0 
L 534 0 
Q 491 0 458 11 
Q 425 22 401 47 
Q 378 72 367 119 
Q 356 166 356 234 
Q 356 297 361 344 
Q 366 391 381 427 
Q 397 463 420 498 
Q 444 534 481 575 
L 1266 1406 
Q 1538 1694 1702 1922 
Q 1866 2150 1955 2337 
Q 2044 2525 2072 2678 
Q 2100 2831 2100 2966 
Q 2100 3100 2056 3220 
Q 2013 3341 1930 3431 
Q 1847 3522 1722 3575 
Q 1597 3628 1434 3628 
Q 1244 3628 1092 3575 
Q 941 3522 827 3459 
Q 713 3397 636 3344 
Q 559 3291 522 3291 
Q 500 3291 483 3303 
Q 466 3316 455 3344 
Q 444 3372 437 3419 
Q 431 3466 431 3531 
Q 431 3578 434 3612 
Q 438 3647 445 3672 
Q 453 3697 465 3719 
Q 478 3741 515 3773 
Q 553 3806 645 3862 
Q 738 3919 877 3973 
Q 1016 4028 1183 4065 
Q 1350 4103 1534 4103 
Q 1828 4103 2048 4020 
Q 2269 3938 2414 3794 
Q 2559 3650 2631 3459 
Q 2703 3269 2703 3053 
Q 2703 2859 2668 2667 
Q 2634 2475 2523 2251 
Q 2413 2028 2203 1754 
Q 1994 1481 1647 1125 
L 1006 456 
L 2766 456 
Q 2791 456 2814 442 
Q 2838 428 2855 400 
Q 2872 372 2880 330 
Q 2888 288 2888 231 
z
" transform="scale(0.015625)"/>
       </defs>
       <use xlink:href="#Calibri-32"/>
       <use xlink:href="#Calibri-30" x="50.683594"/>
       <use xlink:href="#Calibri-30" x="101.367188"/>
      </g>
     </g>
    </g>
    <g id="xtick_3">
     <g id="line2d_7">
      <path d="M 82.760625 86.856469 
L 82.760625 9.240469 
" clip-path="url(#p082df5166c)" style="fill: none; stroke-dasharray: 0.74,0.32; stroke-dashoffset: 0; stroke: #b0b0b0; stroke-opacity: 0.8; stroke-width: 0.2"/>
     </g>
     <g id="line2d_8">
      <g>
       <use xlink:href="#m98485a6563" x="82.760625" y="86.856469" style="stroke: #000000; stroke-width: 0.3"/>
      </g>
     </g>
     <g id="line2d_9">
      <g>
       <use xlink:href="#ma5063f6b40" x="82.760625" y="9.240469" style="stroke: #000000; stroke-width: 0.3"/>
      </g>
     </g>
     <g id="text_3">
      <!-- 400 -->
      <g transform="translate(78.19875 94.437406)scale(0.06 -0.06)">
       <defs>
        <path id="Calibri-34" d="M 3059 1150 
Q 3059 1047 3028 987 
Q 2997 928 2941 928 
L 2484 928 
L 2484 78 
Q 2484 53 2471 36 
Q 2459 19 2428 6 
Q 2397 -6 2347 -12 
Q 2297 -19 2219 -19 
Q 2144 -19 2094 -12 
Q 2044 -6 2014 6 
Q 1984 19 1973 36 
Q 1963 53 1963 78 
L 1963 928 
L 294 928 
Q 256 928 231 937 
Q 206 947 186 972 
Q 166 997 158 1044 
Q 150 1091 150 1166 
Q 150 1225 153 1272 
Q 156 1319 165 1358 
Q 175 1397 190 1433 
Q 206 1469 228 1509 
L 1684 3966 
Q 1700 3991 1729 4009 
Q 1759 4028 1806 4040 
Q 1853 4053 1922 4058 
Q 1991 4063 2084 4063 
Q 2188 4063 2264 4055 
Q 2341 4047 2387 4034 
Q 2434 4022 2459 4001 
Q 2484 3981 2484 3953 
L 2484 1372 
L 2941 1372 
Q 2994 1372 3026 1317 
Q 3059 1263 3059 1150 
z
M 1963 3591 
L 1956 3591 
L 641 1372 
L 1963 1372 
L 1963 3591 
z
" transform="scale(0.015625)"/>
       </defs>
       <use xlink:href="#Calibri-34"/>
       <use xlink:href="#Calibri-30" x="50.683594"/>
       <use xlink:href="#Calibri-30" x="101.367188"/>
      </g>
     </g>
    </g>
    <g id="xtick_4">
     <g id="line2d_10">
      <path d="M 107.870625 86.856469 
L 107.870625 9.240469 
" clip-path="url(#p082df5166c)" style="fill: none; stroke-dasharray: 0.74,0.32; stroke-dashoffset: 0; stroke: #b0b0b0; stroke-opacity: 0.8; stroke-width: 0.2"/>
     </g>
     <g id="line2d_11">
      <g>
       <use xlink:href="#m98485a6563" x="107.870625" y="86.856469" style="stroke: #000000; stroke-width: 0.3"/>
      </g>
     </g>
     <g id="line2d_12">
      <g>
       <use xlink:href="#ma5063f6b40" x="107.870625" y="9.240469" style="stroke: #000000; stroke-width: 0.3"/>
      </g>
     </g>
     <g id="text_4">
      <!-- 600 -->
      <g transform="translate(103.30875 94.437406)scale(0.06 -0.06)">
       <defs>
        <path id="Calibri-36" d="M 2991 1309 
Q 2991 1044 2909 795 
Q 2828 547 2659 358 
Q 2491 169 2231 55 
Q 1972 -59 1619 -59 
Q 1366 -59 1172 3 
Q 978 66 834 181 
Q 691 297 595 465 
Q 500 634 442 850 
Q 384 1066 359 1322 
Q 334 1578 334 1872 
Q 334 2131 362 2397 
Q 391 2663 462 2909 
Q 534 3156 657 3373 
Q 781 3591 967 3752 
Q 1153 3913 1412 4006 
Q 1672 4100 2016 4100 
Q 2131 4100 2250 4086 
Q 2369 4072 2469 4048 
Q 2569 4025 2637 3997 
Q 2706 3969 2728 3951 
Q 2750 3934 2761 3914 
Q 2772 3894 2778 3870 
Q 2784 3847 2787 3817 
Q 2791 3788 2791 3744 
Q 2791 3688 2789 3647 
Q 2788 3606 2777 3581 
Q 2766 3556 2748 3543 
Q 2731 3531 2703 3531 
Q 2669 3531 2609 3553 
Q 2550 3575 2465 3601 
Q 2381 3628 2261 3650 
Q 2141 3672 1981 3672 
Q 1691 3672 1481 3553 
Q 1272 3434 1139 3234 
Q 1006 3034 942 2770 
Q 878 2506 869 2219 
Q 950 2266 1051 2312 
Q 1153 2359 1273 2396 
Q 1394 2434 1528 2457 
Q 1663 2481 1816 2481 
Q 2144 2481 2369 2392 
Q 2594 2303 2733 2145 
Q 2872 1988 2931 1773 
Q 2991 1559 2991 1309 
z
M 2447 1259 
Q 2447 1441 2411 1589 
Q 2375 1738 2290 1841 
Q 2206 1944 2065 2000 
Q 1925 2056 1719 2056 
Q 1603 2056 1487 2036 
Q 1372 2016 1264 1980 
Q 1156 1944 1057 1895 
Q 959 1847 878 1791 
Q 878 1388 929 1116 
Q 981 844 1079 680 
Q 1178 516 1325 445 
Q 1472 375 1669 375 
Q 1869 375 2016 450 
Q 2163 525 2259 651 
Q 2356 778 2401 936 
Q 2447 1094 2447 1259 
z
" transform="scale(0.015625)"/>
       </defs>
       <use xlink:href="#Calibri-36"/>
       <use xlink:href="#Calibri-30" x="50.683594"/>
       <use xlink:href="#Calibri-30" x="101.367188"/>
      </g>
     </g>
    </g>
    <g id="xtick_5">
     <g id="line2d_13">
      <path d="M 132.980625 86.856469 
L 132.980625 9.240469 
" clip-path="url(#p082df5166c)" style="fill: none; stroke-dasharray: 0.74,0.32; stroke-dashoffset: 0; stroke: #b0b0b0; stroke-opacity: 0.8; stroke-width: 0.2"/>
     </g>
     <g id="line2d_14">
      <g>
       <use xlink:href="#m98485a6563" x="132.980625" y="86.856469" style="stroke: #000000; stroke-width: 0.3"/>
      </g>
     </g>
     <g id="line2d_15">
      <g>
       <use xlink:href="#ma5063f6b40" x="132.980625" y="9.240469" style="stroke: #000000; stroke-width: 0.3"/>
      </g>
     </g>
     <g id="text_5">
      <!-- 800 -->
      <g transform="translate(128.41875 94.437406)scale(0.06 -0.06)">
       <defs>
        <path id="Calibri-38" d="M 2981 1038 
Q 2981 775 2887 570 
Q 2794 366 2617 225 
Q 2441 84 2181 12 
Q 1922 -59 1588 -59 
Q 1275 -59 1028 6 
Q 781 72 609 200 
Q 438 328 347 515 
Q 256 703 256 944 
Q 256 1134 318 1293 
Q 381 1453 498 1587 
Q 616 1722 787 1839 
Q 959 1956 1175 2063 
Q 988 2159 844 2267 
Q 700 2375 600 2501 
Q 500 2628 448 2772 
Q 397 2916 397 3084 
Q 397 3297 473 3483 
Q 550 3669 704 3806 
Q 859 3944 1098 4023 
Q 1338 4103 1656 4103 
Q 1963 4103 2186 4029 
Q 2409 3956 2554 3829 
Q 2700 3703 2769 3531 
Q 2838 3359 2838 3163 
Q 2838 3003 2786 2856 
Q 2734 2709 2634 2578 
Q 2534 2447 2389 2333 
Q 2244 2219 2056 2119 
Q 2278 2009 2451 1893 
Q 2625 1778 2742 1645 
Q 2859 1513 2920 1364 
Q 2981 1216 2981 1038 
z
M 2306 3113 
Q 2306 3244 2261 3350 
Q 2216 3456 2128 3531 
Q 2041 3606 1911 3645 
Q 1781 3684 1616 3684 
Q 1278 3684 1104 3531 
Q 931 3378 931 3113 
Q 931 2991 973 2886 
Q 1016 2781 1105 2687 
Q 1194 2594 1330 2505 
Q 1466 2416 1653 2319 
Q 1969 2481 2137 2678 
Q 2306 2875 2306 3113 
z
M 2438 981 
Q 2438 1125 2384 1242 
Q 2331 1359 2223 1461 
Q 2116 1563 1955 1658 
Q 1794 1753 1581 1856 
Q 1384 1759 1236 1662 
Q 1088 1566 992 1462 
Q 897 1359 848 1245 
Q 800 1131 800 994 
Q 800 691 1008 525 
Q 1216 359 1628 359 
Q 2028 359 2233 526 
Q 2438 694 2438 981 
z
" transform="scale(0.015625)"/>
       </defs>
       <use xlink:href="#Calibri-38"/>
       <use xlink:href="#Calibri-30" x="50.683594"/>
       <use xlink:href="#Calibri-30" x="101.367188"/>
      </g>
     </g>
    </g>
    <g id="text_6">
     <!-- $|W|$ -->
     <g transform="translate(77.750625 104.124281)scale(0.06 -0.06)">
      <defs>
       <path id="DejaVuSans-7c" d="M 1344 4891 
L 1344 -1509 
L 813 -1509 
L 813 4891 
L 1344 4891 
z
" transform="scale(0.015625)"/>
       <path id="DejaVuSans-Oblique-57" d="M 616 4666 
L 1228 4666 
L 1453 697 
L 3213 4666 
L 3916 4666 
L 4147 697 
L 5888 4666 
L 6528 4666 
L 4453 0 
L 3659 0 
L 3444 3891 
L 1697 0 
L 903 0 
L 616 4666 
z
" transform="scale(0.015625)"/>
      </defs>
      <use xlink:href="#DejaVuSans-7c" transform="translate(0 0.578125)"/>
      <use xlink:href="#DejaVuSans-Oblique-57" transform="translate(33.691406 0.578125)"/>
      <use xlink:href="#DejaVuSans-7c" transform="translate(132.568359 0.578125)"/>
     </g>
    </g>
   </g>
   <g id="matplotlib.axis_2">
    <g id="ytick_1">
     <g id="line2d_16">
      <path d="M 32.540625 86.856469 
L 132.980625 86.856469 
" clip-path="url(#p082df5166c)" style="fill: none; stroke-dasharray: 0.74,0.32; stroke-dashoffset: 0; stroke: #b0b0b0; stroke-opacity: 0.8; stroke-width: 0.2"/>
     </g>
     <g id="line2d_17">
      <defs>
       <path id="m1698f14684" d="M 0 0 
L 1 0 
" style="stroke: #000000; stroke-width: 0.3"/>
      </defs>
      <g>
       <use xlink:href="#m1698f14684" x="32.540625" y="86.856469" style="stroke: #000000; stroke-width: 0.3"/>
      </g>
     </g>
     <g id="line2d_18">
      <defs>
       <path id="m9d76fbff15" d="M 0 0 
L -1 0 
" style="stroke: #000000; stroke-width: 0.3"/>
      </defs>
      <g>
       <use xlink:href="#m9d76fbff15" x="132.980625" y="86.856469" style="stroke: #000000; stroke-width: 0.3"/>
      </g>
     </g>
     <g id="text_7">
      <!-- 0 -->
      <g transform="translate(25.999375 88.896937)scale(0.06 -0.06)">
       <use xlink:href="#Calibri-30"/>
      </g>
     </g>
    </g>
    <g id="ytick_2">
     <g id="line2d_19">
      <path d="M 32.540625 71.333269 
L 132.980625 71.333269 
" clip-path="url(#p082df5166c)" style="fill: none; stroke-dasharray: 0.74,0.32; stroke-dashoffset: 0; stroke: #b0b0b0; stroke-opacity: 0.8; stroke-width: 0.2"/>
     </g>
     <g id="line2d_20">
      <g>
       <use xlink:href="#m1698f14684" x="32.540625" y="71.333269" style="stroke: #000000; stroke-width: 0.3"/>
      </g>
     </g>
     <g id="line2d_21">
      <g>
       <use xlink:href="#m9d76fbff15" x="132.980625" y="71.333269" style="stroke: #000000; stroke-width: 0.3"/>
      </g>
     </g>
     <g id="text_8">
      <!-- 300 -->
      <g transform="translate(19.916875 73.373738)scale(0.06 -0.06)">
       <defs>
        <path id="Calibri-33" d="M 2856 1156 
Q 2856 878 2759 654 
Q 2663 431 2481 272 
Q 2300 113 2034 27 
Q 1769 -59 1434 -59 
Q 1231 -59 1054 -26 
Q 878 6 740 51 
Q 603 97 512 145 
Q 422 194 398 216 
Q 375 238 362 259 
Q 350 281 340 312 
Q 331 344 326 389 
Q 322 434 322 500 
Q 322 613 344 656 
Q 366 700 406 700 
Q 434 700 517 650 
Q 600 600 729 542 
Q 859 484 1032 434 
Q 1206 384 1419 384 
Q 1625 384 1781 437 
Q 1938 491 2044 587 
Q 2150 684 2203 817 
Q 2256 950 2256 1106 
Q 2256 1278 2189 1415 
Q 2122 1553 1992 1653 
Q 1863 1753 1673 1806 
Q 1484 1859 1244 1859 
L 859 1859 
Q 834 1859 811 1870 
Q 788 1881 770 1906 
Q 753 1931 742 1972 
Q 731 2013 731 2078 
Q 731 2138 740 2177 
Q 750 2216 767 2239 
Q 784 2263 806 2273 
Q 828 2284 856 2284 
L 1209 2284 
Q 1416 2284 1580 2337 
Q 1744 2391 1858 2491 
Q 1972 2591 2033 2730 
Q 2094 2869 2094 3041 
Q 2094 3166 2053 3280 
Q 2013 3394 1931 3478 
Q 1850 3563 1723 3611 
Q 1597 3659 1431 3659 
Q 1250 3659 1098 3604 
Q 947 3550 828 3487 
Q 709 3425 631 3370 
Q 553 3316 522 3316 
Q 500 3316 483 3323 
Q 466 3331 455 3354 
Q 444 3378 439 3420 
Q 434 3463 434 3531 
Q 434 3578 437 3614 
Q 441 3650 450 3676 
Q 459 3703 471 3725 
Q 484 3747 514 3776 
Q 544 3806 634 3862 
Q 725 3919 858 3973 
Q 991 4028 1164 4065 
Q 1338 4103 1538 4103 
Q 1819 4103 2031 4031 
Q 2244 3959 2386 3828 
Q 2528 3697 2598 3514 
Q 2669 3331 2669 3109 
Q 2669 2919 2619 2755 
Q 2569 2591 2472 2464 
Q 2375 2338 2234 2248 
Q 2094 2159 1909 2125 
L 1909 2119 
Q 2119 2097 2292 2014 
Q 2466 1931 2591 1806 
Q 2716 1681 2786 1514 
Q 2856 1347 2856 1156 
z
" transform="scale(0.015625)"/>
       </defs>
       <use xlink:href="#Calibri-33"/>
       <use xlink:href="#Calibri-30" x="50.683594"/>
       <use xlink:href="#Calibri-30" x="101.367188"/>
      </g>
     </g>
    </g>
    <g id="ytick_3">
     <g id="line2d_22">
      <path d="M 32.540625 55.810069 
L 132.980625 55.810069 
" clip-path="url(#p082df5166c)" style="fill: none; stroke-dasharray: 0.74,0.32; stroke-dashoffset: 0; stroke: #b0b0b0; stroke-opacity: 0.8; stroke-width: 0.2"/>
     </g>
     <g id="line2d_23">
      <g>
       <use xlink:href="#m1698f14684" x="32.540625" y="55.810069" style="stroke: #000000; stroke-width: 0.3"/>
      </g>
     </g>
     <g id="line2d_24">
      <g>
       <use xlink:href="#m9d76fbff15" x="132.980625" y="55.810069" style="stroke: #000000; stroke-width: 0.3"/>
      </g>
     </g>
     <g id="text_9">
      <!-- 600 -->
      <g transform="translate(19.916875 57.850538)scale(0.06 -0.06)">
       <use xlink:href="#Calibri-36"/>
       <use xlink:href="#Calibri-30" x="50.683594"/>
       <use xlink:href="#Calibri-30" x="101.367188"/>
      </g>
     </g>
    </g>
    <g id="ytick_4">
     <g id="line2d_25">
      <path d="M 32.540625 40.286869 
L 132.980625 40.286869 
" clip-path="url(#p082df5166c)" style="fill: none; stroke-dasharray: 0.74,0.32; stroke-dashoffset: 0; stroke: #b0b0b0; stroke-opacity: 0.8; stroke-width: 0.2"/>
     </g>
     <g id="line2d_26">
      <g>
       <use xlink:href="#m1698f14684" x="32.540625" y="40.286869" style="stroke: #000000; stroke-width: 0.3"/>
      </g>
     </g>
     <g id="line2d_27">
      <g>
       <use xlink:href="#m9d76fbff15" x="132.980625" y="40.286869" style="stroke: #000000; stroke-width: 0.3"/>
      </g>
     </g>
     <g id="text_10">
      <!-- 900 -->
      <g transform="translate(19.916875 42.327338)scale(0.06 -0.06)">
       <defs>
        <path id="Calibri-39" d="M 2919 2181 
Q 2919 1919 2887 1650 
Q 2856 1381 2781 1132 
Q 2706 884 2579 667 
Q 2453 450 2261 287 
Q 2069 125 1805 33 
Q 1541 -59 1191 -59 
Q 1056 -59 929 -42 
Q 803 -25 701 0 
Q 600 25 531 53 
Q 463 81 431 109 
Q 400 138 386 186 
Q 372 234 372 316 
Q 372 384 376 425 
Q 381 466 390 487 
Q 400 509 417 517 
Q 434 525 459 525 
Q 494 525 556 501 
Q 619 478 714 450 
Q 809 422 937 398 
Q 1066 375 1225 375 
Q 1528 375 1745 492 
Q 1963 609 2100 806 
Q 2238 1003 2306 1262 
Q 2375 1522 2381 1809 
Q 2216 1713 1984 1638 
Q 1753 1563 1453 1563 
Q 1116 1563 886 1655 
Q 656 1747 517 1906 
Q 378 2066 317 2284 
Q 256 2503 256 2763 
Q 256 3031 334 3273 
Q 413 3516 578 3700 
Q 744 3884 1000 3993 
Q 1256 4103 1613 4103 
Q 1866 4103 2061 4039 
Q 2256 3975 2400 3854 
Q 2544 3734 2644 3564 
Q 2744 3394 2805 3178 
Q 2866 2963 2892 2711 
Q 2919 2459 2919 2181 
z
M 2372 2241 
Q 2372 2641 2319 2914 
Q 2266 3188 2162 3356 
Q 2059 3525 1909 3600 
Q 1759 3675 1563 3675 
Q 1359 3675 1215 3601 
Q 1072 3528 980 3404 
Q 888 3281 844 3125 
Q 800 2969 800 2803 
Q 800 2619 839 2466 
Q 878 2313 965 2206 
Q 1053 2100 1193 2042 
Q 1334 1984 1541 1984 
Q 1775 1984 1994 2054 
Q 2213 2125 2372 2241 
z
" transform="scale(0.015625)"/>
       </defs>
       <use xlink:href="#Calibri-39"/>
       <use xlink:href="#Calibri-30" x="50.683594"/>
       <use xlink:href="#Calibri-30" x="101.367188"/>
      </g>
     </g>
    </g>
    <g id="ytick_5">
     <g id="line2d_28">
      <path d="M 32.540625 24.763669 
L 132.980625 24.763669 
" clip-path="url(#p082df5166c)" style="fill: none; stroke-dasharray: 0.74,0.32; stroke-dashoffset: 0; stroke: #b0b0b0; stroke-opacity: 0.8; stroke-width: 0.2"/>
     </g>
     <g id="line2d_29">
      <g>
       <use xlink:href="#m1698f14684" x="32.540625" y="24.763669" style="stroke: #000000; stroke-width: 0.3"/>
      </g>
     </g>
     <g id="line2d_30">
      <g>
       <use xlink:href="#m9d76fbff15" x="132.980625" y="24.763669" style="stroke: #000000; stroke-width: 0.3"/>
      </g>
     </g>
     <g id="text_11">
      <!-- 1200 -->
      <g transform="translate(16.875625 26.804138)scale(0.06 -0.06)">
       <use xlink:href="#Calibri-31"/>
       <use xlink:href="#Calibri-32" x="50.683594"/>
       <use xlink:href="#Calibri-30" x="101.367188"/>
       <use xlink:href="#Calibri-30" x="152.050781"/>
      </g>
     </g>
    </g>
    <g id="ytick_6">
     <g id="line2d_31">
      <path d="M 32.540625 9.240469 
L 132.980625 9.240469 
" clip-path="url(#p082df5166c)" style="fill: none; stroke-dasharray: 0.74,0.32; stroke-dashoffset: 0; stroke: #b0b0b0; stroke-opacity: 0.8; stroke-width: 0.2"/>
     </g>
     <g id="line2d_32">
      <g>
       <use xlink:href="#m1698f14684" x="32.540625" y="9.240469" style="stroke: #000000; stroke-width: 0.3"/>
      </g>
     </g>
     <g id="line2d_33">
      <g>
       <use xlink:href="#m9d76fbff15" x="132.980625" y="9.240469" style="stroke: #000000; stroke-width: 0.3"/>
      </g>
     </g>
     <g id="text_12">
      <!-- 1500 -->
      <g transform="translate(16.875625 11.280938)scale(0.06 -0.06)">
       <defs>
        <path id="Calibri-35" d="M 2869 1300 
Q 2869 975 2759 722 
Q 2650 469 2450 295 
Q 2250 122 1973 31 
Q 1697 -59 1359 -59 
Q 1172 -59 1003 -32 
Q 834 -6 703 33 
Q 572 72 487 109 
Q 403 147 379 169 
Q 356 191 347 209 
Q 338 228 330 254 
Q 322 281 319 322 
Q 316 363 316 419 
Q 316 472 320 514 
Q 325 556 337 582 
Q 350 609 367 621 
Q 384 634 406 634 
Q 438 634 503 595 
Q 569 556 680 511 
Q 791 466 955 425 
Q 1119 384 1344 384 
Q 1553 384 1728 434 
Q 1903 484 2029 590 
Q 2156 697 2228 858 
Q 2300 1019 2300 1250 
Q 2300 1444 2239 1592 
Q 2178 1741 2051 1839 
Q 1925 1938 1731 1986 
Q 1538 2034 1269 2034 
Q 1078 2034 940 2015 
Q 803 1997 684 1997 
Q 597 1997 559 2037 
Q 522 2078 522 2194 
L 522 3841 
Q 522 3944 570 3994 
Q 619 4044 709 4044 
L 2500 4044 
Q 2525 4044 2548 4030 
Q 2572 4016 2587 3987 
Q 2603 3959 2611 3915 
Q 2619 3872 2619 3813 
Q 2619 3700 2587 3637 
Q 2556 3575 2500 3575 
L 991 3575 
L 991 2441 
Q 1100 2456 1214 2459 
Q 1328 2463 1478 2463 
Q 1825 2463 2084 2380 
Q 2344 2297 2517 2145 
Q 2691 1994 2780 1778 
Q 2869 1563 2869 1300 
z
" transform="scale(0.015625)"/>
       </defs>
       <use xlink:href="#Calibri-31"/>
       <use xlink:href="#Calibri-35" x="50.683594"/>
       <use xlink:href="#Calibri-30" x="101.367188"/>
       <use xlink:href="#Calibri-30" x="152.050781"/>
      </g>
     </g>
    </g>
    <g id="text_13">
     <!-- 满意度分数 -->
     <g transform="translate(11.333437 63.048469)rotate(-90)scale(0.06 -0.06)">
      <defs>
       <path id="STSong-6ee1" d="M 6080 4070 
Q 6125 4026 6125 4003 
Q 6125 3981 6054 3981 
L 4858 3981 
Q 4858 3763 4864 3603 
L 4877 3373 
Q 4877 3290 4758 3245 
Q 4640 3200 4595 3200 
Q 4550 3200 4550 3341 
L 4557 3981 
L 3507 3981 
Q 3507 3661 3514 3565 
L 3520 3386 
Q 3520 3309 3411 3264 
Q 3302 3219 3251 3219 
Q 3200 3219 3200 3354 
L 3206 3981 
L 2650 3981 
Q 2400 3981 2221 3910 
L 2042 4147 
Q 2253 4122 2509 4122 
L 3206 4122 
L 3206 4448 
Q 3206 4691 3187 4947 
L 3642 4685 
Q 3686 4659 3686 4633 
Q 3686 4608 3635 4589 
L 3507 4538 
L 3507 4122 
L 4557 4122 
L 4557 4403 
Q 4557 4621 4538 4928 
L 4992 4730 
Q 5043 4710 5043 4684 
Q 5043 4659 4992 4627 
L 4858 4544 
L 4858 4122 
L 5459 4122 
L 5709 4422 
L 6080 4070 
z
M 627 4570 
Q 1126 4454 1379 4278 
Q 1632 4102 1632 3910 
Q 1632 3802 1565 3718 
Q 1498 3635 1434 3635 
Q 1370 3635 1341 3673 
Q 1312 3712 1280 3814 
Q 1133 4256 589 4506 
L 627 4570 
z
M 2074 3834 
L 1510 1683 
Q 1299 877 1299 282 
Q 1299 102 1340 -211 
Q 1382 -525 1382 -653 
Q 1382 -781 1328 -848 
Q 1274 -915 1146 -915 
Q 947 -915 947 -621 
Q 947 -512 998 -246 
Q 1050 19 1050 304 
Q 1050 589 941 672 
Q 832 755 250 851 
L 262 947 
Q 512 934 717 934 
Q 922 934 1008 988 
Q 1094 1043 1146 1210 
L 1984 3878 
L 2074 3834 
z
M 6125 3040 
Q 6170 2995 6170 2972 
Q 6170 2950 6099 2950 
L 4723 2950 
Q 4723 2445 4678 2042 
L 5210 2042 
L 5414 2342 
L 5824 2067 
Q 5869 2035 5869 2009 
Q 5869 1984 5830 1958 
L 5619 1824 
L 5619 -493 
Q 5619 -704 5577 -803 
Q 5536 -902 5353 -988 
Q 5171 -1075 5088 -1075 
Q 5050 -1075 5030 -1018 
Q 4992 -864 4848 -774 
Q 4704 -685 4211 -525 
L 4237 -442 
Q 4890 -570 5062 -570 
Q 5235 -570 5276 -512 
Q 5318 -454 5318 -314 
L 5318 1901 
L 4659 1901 
Q 4608 1555 4538 1286 
Q 5133 678 5133 294 
Q 5133 154 5065 74 
Q 4998 -6 4902 -6 
Q 4806 -6 4806 198 
Q 4806 717 4506 1171 
Q 4250 314 3629 -378 
L 3552 -320 
Q 3962 269 4147 771 
Q 4333 1274 4390 1901 
L 3552 1901 
Q 3533 1766 3482 1523 
Q 3770 1261 3872 1097 
Q 3974 934 3974 793 
Q 3974 653 3910 569 
Q 3846 486 3753 486 
Q 3661 486 3661 707 
Q 3661 928 3619 1081 
Q 3578 1235 3450 1395 
Q 3206 506 2650 -26 
L 2586 32 
Q 2931 512 3084 925 
Q 3238 1338 3290 1901 
L 2547 1901 
L 2547 -90 
L 2560 -838 
Q 2560 -934 2432 -988 
Q 2304 -1043 2265 -1043 
Q 2227 -1043 2227 -941 
L 2246 -576 
Q 2253 -352 2253 32 
L 2253 1459 
Q 2253 1958 2234 2304 
L 2586 2042 
L 3302 2042 
Q 3328 2317 3341 2950 
L 2515 2950 
Q 2266 2950 2086 2880 
L 1907 3117 
Q 2214 3091 2374 3091 
L 5510 3091 
L 5734 3392 
L 6125 3040 
z
M 4435 2950 
L 3629 2950 
Q 3629 2451 3571 2042 
L 4403 2042 
Q 4435 2368 4435 2950 
z
M 275 3315 
Q 806 3162 1036 2976 
Q 1267 2790 1267 2630 
Q 1267 2515 1190 2412 
Q 1114 2310 1024 2310 
Q 934 2310 915 2451 
Q 877 2714 672 2909 
Q 467 3104 243 3251 
L 275 3315 
z
" transform="scale(0.015625)"/>
       <path id="STSong-610f" d="M 2675 4941 
Q 3110 4864 3334 4739 
Q 3558 4614 3558 4422 
Q 3558 4230 3392 4230 
Q 3328 4230 3293 4259 
Q 3258 4288 3226 4365 
Q 3098 4634 2637 4870 
L 2675 4941 
z
M 5754 4154 
Q 5786 4115 5786 4092 
Q 5786 4070 5728 4070 
L 1203 4070 
Q 954 4070 774 4000 
L 595 4230 
Q 902 4205 1062 4205 
L 5075 4205 
L 5370 4582 
L 5754 4154 
z
M 6189 3117 
Q 6234 3072 6234 3049 
Q 6234 3027 6163 3027 
L 813 3027 
Q 563 3027 384 2957 
L 205 3187 
Q 512 3162 672 3162 
L 3680 3162 
Q 3859 3411 4192 4038 
L 4544 3795 
Q 4576 3776 4576 3753 
Q 4576 3731 4538 3725 
Q 4403 3712 4256 3587 
Q 4109 3462 3827 3162 
L 5523 3162 
L 5811 3514 
L 6189 3117 
z
M 1978 3974 
Q 2733 3699 2733 3437 
Q 2733 3354 2688 3286 
Q 2643 3219 2569 3219 
Q 2496 3219 2435 3363 
Q 2374 3507 2278 3625 
Q 2182 3744 1958 3898 
L 1978 3974 
z
M 5190 2432 
L 5037 2317 
L 5037 1472 
Q 5037 1203 5050 1018 
L 5062 755 
Q 5062 666 4931 621 
Q 4800 576 4768 576 
Q 4736 576 4736 653 
L 4736 896 
L 1818 896 
L 1818 787 
Q 1818 698 1699 662 
Q 1581 627 1536 627 
Q 1491 627 1491 717 
L 1510 992 
Q 1517 1152 1517 1395 
L 1517 2240 
Q 1517 2630 1504 2784 
L 1856 2528 
L 4627 2528 
L 4813 2784 
L 5190 2528 
Q 5222 2502 5222 2480 
Q 5222 2458 5190 2432 
z
M 4736 1811 
L 4736 2394 
L 1818 2394 
L 1818 1811 
L 4736 1811 
z
M 4736 1030 
L 4736 1677 
L 1818 1677 
L 1818 1030 
L 4736 1030 
z
M 2899 794 
Q 3379 627 3555 489 
Q 3731 352 3731 211 
Q 3731 70 3680 0 
Q 3629 -70 3533 -70 
Q 3437 -70 3405 58 
Q 3347 282 3219 432 
Q 3091 582 2867 736 
L 2899 794 
z
M 4595 371 
Q 4595 -83 4636 -236 
Q 4678 -390 4800 -448 
Q 4845 -467 4845 -505 
Q 4845 -544 4717 -697 
Q 4589 -851 4189 -857 
Q 3789 -864 3155 -864 
Q 2522 -864 2358 -851 
Q 2195 -838 2099 -777 
Q 2003 -717 2003 -531 
L 2003 115 
Q 2003 422 1984 640 
L 2406 397 
Q 2451 371 2451 345 
Q 2451 320 2419 301 
L 2298 218 
L 2298 -384 
Q 2298 -557 2413 -589 
Q 2528 -621 3254 -621 
Q 3981 -621 4157 -595 
Q 4333 -570 4403 -410 
Q 4474 -250 4499 371 
L 4595 371 
z
M 1280 448 
Q 1280 -237 1091 -544 
Q 902 -851 659 -851 
Q 576 -851 512 -803 
Q 448 -755 448 -672 
Q 448 -544 563 -486 
Q 877 -333 1008 -102 
Q 1139 128 1203 461 
L 1280 448 
z
M 5050 448 
Q 5670 141 5897 -51 
Q 6125 -243 6125 -442 
Q 6125 -544 6073 -617 
Q 6022 -691 5958 -691 
Q 5894 -691 5859 -659 
Q 5824 -627 5786 -531 
Q 5658 -218 5466 -13 
Q 5274 192 5011 384 
L 5050 448 
z
" transform="scale(0.015625)"/>
       <path id="STSong-5ea6" d="M 2925 4909 
Q 3200 4870 3392 4796 
Q 3584 4723 3661 4646 
Q 3738 4570 3738 4445 
Q 3738 4320 3686 4233 
Q 3635 4147 3548 4147 
Q 3462 4147 3379 4378 
Q 3347 4467 3206 4611 
Q 3066 4755 2899 4851 
L 2925 4909 
z
M 6010 4019 
Q 6054 3974 6054 3952 
Q 6054 3930 5984 3930 
L 1338 3930 
L 1338 2515 
Q 1338 909 1050 128 
Q 762 -653 230 -1043 
L 179 -986 
Q 672 -365 857 300 
Q 1043 966 1043 2470 
L 1043 3635 
Q 1043 4051 1024 4384 
L 1453 4070 
L 5312 4070 
L 5594 4448 
L 6010 4019 
z
M 6022 2938 
Q 6074 2899 6074 2876 
Q 6074 2854 6010 2854 
L 4557 2854 
L 4557 2438 
L 4570 1830 
Q 4570 1734 4442 1699 
Q 4314 1664 4301 1664 
Q 4256 1664 4256 1766 
L 4256 1856 
L 2893 1856 
L 2893 1779 
Q 2893 1722 2867 1699 
Q 2842 1677 2755 1638 
Q 2669 1600 2630 1600 
Q 2592 1600 2592 1683 
L 2598 2227 
L 2598 2854 
L 2189 2854 
Q 1939 2854 1760 2784 
L 1581 3014 
Q 1888 2989 2048 2989 
L 2598 2989 
L 2598 3251 
Q 2598 3578 2579 3840 
L 3046 3622 
Q 3078 3610 3078 3587 
Q 3078 3565 3046 3539 
L 2893 3424 
L 2893 2989 
L 4256 2989 
L 4256 3238 
Q 4256 3686 4237 3859 
L 4678 3661 
Q 4730 3635 4730 3612 
Q 4730 3590 4685 3558 
L 4557 3462 
L 4557 2989 
L 5338 2989 
L 5581 3309 
L 6022 2938 
z
M 4256 1997 
L 4256 2854 
L 2893 2854 
L 2893 1997 
L 4256 1997 
z
M 6227 -666 
Q 6016 -666 5859 -749 
Q 5702 -832 5651 -960 
Q 5638 -986 5600 -986 
Q 5485 -986 4739 -765 
Q 3994 -544 3565 -282 
Q 2720 -947 864 -1107 
L 864 -1011 
Q 2445 -749 3347 -115 
Q 2790 365 2541 1120 
L 2317 1120 
Q 2131 1120 1984 1050 
L 1805 1286 
Q 2112 1261 2272 1261 
L 4358 1261 
L 4563 1498 
L 4934 1210 
Q 4966 1184 4966 1161 
Q 4966 1139 4912 1126 
Q 4858 1114 4787 1059 
Q 4717 1005 4678 954 
Q 4250 307 3789 -102 
Q 4653 -544 6227 -563 
L 6227 -666 
z
M 4384 1120 
L 2675 1120 
Q 2963 435 3539 38 
Q 4147 544 4384 1120 
z
" transform="scale(0.015625)"/>
       <path id="STSong-5206" d="M 6208 2176 
L 6195 2112 
Q 5702 2131 5549 1933 
Q 5530 1907 5510 1907 
Q 5466 1907 5040 2326 
Q 4614 2746 4310 3325 
Q 4006 3904 3770 4934 
L 4243 4781 
Q 4314 4762 4314 4739 
Q 4314 4717 4262 4672 
L 4102 4531 
Q 4237 3712 4816 3056 
Q 5395 2400 6208 2176 
z
M 2944 4563 
Q 3002 4538 3002 4512 
Q 3002 4486 2925 4474 
Q 2726 4429 2637 4294 
Q 2003 3302 1433 2681 
Q 864 2061 243 1638 
L 192 1722 
Q 896 2317 1494 3158 
Q 2093 4000 2406 4826 
L 2944 4563 
z
M 4781 2080 
L 4563 1933 
Q 4563 1261 4515 749 
Q 4467 237 4422 -44 
Q 4378 -326 4272 -502 
Q 4166 -678 3974 -809 
Q 3782 -941 3747 -941 
Q 3712 -941 3699 -890 
Q 3661 -742 3593 -652 
Q 3526 -563 3350 -483 
Q 3174 -403 2810 -301 
L 2848 -211 
Q 3405 -333 3677 -333 
Q 3949 -333 4057 -169 
Q 4166 -6 4204 643 
Q 4243 1293 4243 2042 
L 2746 2042 
Q 2650 691 2157 41 
Q 1664 -608 410 -1069 
L 378 -973 
Q 1440 -474 1894 153 
Q 2349 781 2406 2042 
L 1696 2042 
Q 1446 2042 1267 1971 
L 1088 2208 
Q 1395 2182 1555 2182 
L 4102 2182 
L 4358 2554 
L 4781 2195 
Q 4832 2157 4832 2134 
Q 4832 2112 4781 2080 
z
" transform="scale(0.015625)"/>
       <path id="STSong-6570" d="M 6202 -538 
L 6176 -602 
Q 6067 -595 5997 -595 
Q 5754 -595 5613 -742 
Q 5594 -762 5574 -762 
Q 5504 -762 5136 -406 
Q 4768 -51 4486 435 
Q 3808 -525 2310 -1107 
L 2285 -1018 
Q 3744 -275 4346 698 
Q 3974 1434 3680 2829 
Q 3520 2432 3283 2074 
L 3213 2112 
Q 3834 3514 4115 4947 
L 4550 4698 
Q 4595 4672 4595 4653 
Q 4595 4634 4508 4618 
Q 4422 4602 4393 4557 
Q 4365 4512 4237 4179 
L 3968 3494 
L 5542 3494 
L 5779 3789 
L 6144 3437 
Q 6182 3398 6182 3376 
Q 6182 3354 6106 3354 
L 5478 3354 
Q 5184 1587 4646 691 
Q 5197 -115 6202 -538 
z
M 5133 3354 
L 3910 3354 
L 3776 3040 
Q 4032 1734 4493 947 
Q 4966 1843 5133 3354 
z
M 1773 1837 
Q 1792 2099 1792 2445 
L 1792 3053 
Q 1088 2176 243 1645 
L 186 1702 
Q 979 2342 1459 3059 
L 960 3059 
Q 710 3059 531 2989 
L 352 3226 
Q 659 3200 819 3200 
L 1792 3200 
L 1792 4371 
Q 1792 4608 1773 4922 
L 2227 4691 
Q 2272 4666 2272 4650 
Q 2272 4634 2227 4608 
L 2067 4518 
L 2067 3200 
L 2803 3200 
L 3040 3501 
L 3418 3142 
Q 3462 3098 3462 3078 
Q 3462 3059 3379 3059 
L 2067 3059 
L 2067 2714 
Q 3110 2426 3110 2054 
Q 3110 1971 3075 1916 
Q 3040 1862 2982 1862 
Q 2925 1862 2893 1884 
Q 2861 1907 2803 1990 
Q 2547 2355 2067 2618 
L 2067 1875 
Q 2067 1779 1926 1741 
Q 1914 1734 1907 1734 
Q 1901 1715 1856 1702 
L 1715 1664 
L 1555 1318 
L 2566 1363 
L 2720 1568 
L 3085 1280 
Q 3117 1254 3117 1228 
Q 3117 1203 3066 1197 
Q 2886 1178 2829 1043 
Q 2554 467 2317 166 
Q 2534 70 2710 -54 
Q 2886 -179 2934 -252 
Q 2982 -326 2982 -416 
Q 2982 -506 2947 -566 
Q 2912 -627 2845 -627 
Q 2778 -627 2688 -515 
Q 2598 -403 2438 -262 
Q 2278 -122 2131 -32 
Q 1645 -493 314 -941 
L 282 -858 
Q 1427 -358 1907 96 
Q 1542 288 902 493 
Q 1114 838 1267 1178 
L 845 1158 
Q 582 1146 416 1088 
L 282 1306 
Q 467 1274 730 1286 
L 1318 1312 
Q 1440 1619 1530 1984 
L 1773 1837 
z
M 2598 1229 
L 1491 1184 
L 1190 525 
Q 1690 410 2061 269 
Q 2362 640 2598 1229 
z
M 3360 4250 
Q 3411 4224 3411 4205 
Q 3411 4186 3328 4176 
Q 3245 4166 3168 4128 
Q 3091 4090 2947 3946 
Q 2803 3802 2502 3456 
L 2426 3507 
Q 2739 3955 2982 4461 
L 3360 4250 
z
M 576 4454 
Q 941 4269 1120 4102 
Q 1299 3936 1299 3744 
Q 1299 3648 1248 3584 
Q 1197 3520 1114 3520 
Q 1018 3520 979 3718 
Q 922 4038 544 4397 
L 576 4454 
z
" transform="scale(0.015625)"/>
      </defs>
      <use xlink:href="#STSong-6ee1"/>
      <use xlink:href="#STSong-610f" x="99.999985"/>
      <use xlink:href="#STSong-5ea6" x="199.999969"/>
      <use xlink:href="#STSong-5206" x="299.999954"/>
      <use xlink:href="#STSong-6570" x="399.999939"/>
     </g>
    </g>
   </g>
   <g id="patch_3">
    <path d="M 32.540625 86.856469 
L 32.540625 9.240469 
" style="fill: none; stroke: #000000; stroke-width: 0.3; stroke-linejoin: miter; stroke-linecap: square"/>
   </g>
   <g id="patch_4">
    <path d="M 132.980625 86.856469 
L 132.980625 9.240469 
" style="fill: none; stroke: #000000; stroke-width: 0.3; stroke-linejoin: miter; stroke-linecap: square"/>
   </g>
   <g id="patch_5">
    <path d="M 32.540625 86.856469 
L 132.980625 86.856469 
" style="fill: none; stroke: #000000; stroke-width: 0.3; stroke-linejoin: miter; stroke-linecap: square"/>
   </g>
   <g id="patch_6">
    <path d="M 32.540625 9.240469 
L 132.980625 9.240469 
" style="fill: none; stroke: #000000; stroke-width: 0.3; stroke-linejoin: miter; stroke-linecap: square"/>
   </g>
   <g id="legend_1">
    <g id="patch_7">
     <path d="M 35.550625 29.363125 
L 131.260562 29.363125 
Q 132.120563 29.363125 132.120563 28.503125 
L 132.120563 12.250469 
Q 132.120563 11.390469 131.260562 11.390469 
L 35.550625 11.390469 
Q 34.690625 11.390469 34.690625 12.250469 
L 34.690625 28.503125 
Q 34.690625 29.363125 35.550625 29.363125 
L 35.550625 29.363125 
z
" style="fill: none; opacity: 0.1; stroke: #000000; stroke-width: 0.2; stroke-linejoin: miter"/>
    </g>
    <g id="line2d_34">
     <path d="M 36.410625 14.735734 
L 40.710625 14.735734 
L 45.010625 14.735734 
" style="fill: none; stroke: #000000; stroke-width: 0.8; stroke-linecap: square"/>
     <defs>
      <path id="m48e8cce8c0" d="M -1.5 1.5 
L 1.5 -1.5 
M -1.5 -1.5 
L 1.5 1.5 
" style="stroke: #000000; stroke-width: 0.8"/>
     </defs>
     <g>
      <use xlink:href="#m48e8cce8c0" x="40.710625" y="14.735734" style="fill-opacity: 0; stroke: #000000; stroke-width: 0.8"/>
     </g>
    </g>
    <g id="text_14">
     <!-- Random -->
     <g transform="translate(45.999625 16.240734)scale(0.043 -0.043)">
      <defs>
       <path id="ArialMT-52" d="M 503 0 
L 503 4581 
L 2534 4581 
Q 3147 4581 3465 4457 
Q 3784 4334 3975 4021 
Q 4166 3709 4166 3331 
Q 4166 2844 3850 2509 
Q 3534 2175 2875 2084 
Q 3116 1969 3241 1856 
Q 3506 1613 3744 1247 
L 4541 0 
L 3778 0 
L 3172 953 
Q 2906 1366 2734 1584 
Q 2563 1803 2427 1890 
Q 2291 1978 2150 2013 
Q 2047 2034 1813 2034 
L 1109 2034 
L 1109 0 
L 503 0 
z
M 1109 2559 
L 2413 2559 
Q 2828 2559 3062 2645 
Q 3297 2731 3419 2920 
Q 3541 3109 3541 3331 
Q 3541 3656 3305 3865 
Q 3069 4075 2559 4075 
L 1109 4075 
L 1109 2559 
z
" transform="scale(0.015625)"/>
       <path id="ArialMT-61" d="M 2588 409 
Q 2275 144 1986 34 
Q 1697 -75 1366 -75 
Q 819 -75 525 192 
Q 231 459 231 875 
Q 231 1119 342 1320 
Q 453 1522 633 1644 
Q 813 1766 1038 1828 
Q 1203 1872 1538 1913 
Q 2219 1994 2541 2106 
Q 2544 2222 2544 2253 
Q 2544 2597 2384 2738 
Q 2169 2928 1744 2928 
Q 1347 2928 1158 2789 
Q 969 2650 878 2297 
L 328 2372 
Q 403 2725 575 2942 
Q 747 3159 1072 3276 
Q 1397 3394 1825 3394 
Q 2250 3394 2515 3294 
Q 2781 3194 2906 3042 
Q 3031 2891 3081 2659 
Q 3109 2516 3109 2141 
L 3109 1391 
Q 3109 606 3145 398 
Q 3181 191 3288 0 
L 2700 0 
Q 2613 175 2588 409 
z
M 2541 1666 
Q 2234 1541 1622 1453 
Q 1275 1403 1131 1340 
Q 988 1278 909 1158 
Q 831 1038 831 891 
Q 831 666 1001 516 
Q 1172 366 1500 366 
Q 1825 366 2078 508 
Q 2331 650 2450 897 
Q 2541 1088 2541 1459 
L 2541 1666 
z
" transform="scale(0.015625)"/>
       <path id="ArialMT-6e" d="M 422 0 
L 422 3319 
L 928 3319 
L 928 2847 
Q 1294 3394 1984 3394 
Q 2284 3394 2536 3286 
Q 2788 3178 2913 3003 
Q 3038 2828 3088 2588 
Q 3119 2431 3119 2041 
L 3119 0 
L 2556 0 
L 2556 2019 
Q 2556 2363 2490 2533 
Q 2425 2703 2258 2804 
Q 2091 2906 1866 2906 
Q 1506 2906 1245 2678 
Q 984 2450 984 1813 
L 984 0 
L 422 0 
z
" transform="scale(0.015625)"/>
       <path id="ArialMT-64" d="M 2575 0 
L 2575 419 
Q 2259 -75 1647 -75 
Q 1250 -75 917 144 
Q 584 363 401 755 
Q 219 1147 219 1656 
Q 219 2153 384 2558 
Q 550 2963 881 3178 
Q 1213 3394 1622 3394 
Q 1922 3394 2156 3267 
Q 2391 3141 2538 2938 
L 2538 4581 
L 3097 4581 
L 3097 0 
L 2575 0 
z
M 797 1656 
Q 797 1019 1065 703 
Q 1334 388 1700 388 
Q 2069 388 2326 689 
Q 2584 991 2584 1609 
Q 2584 2291 2321 2609 
Q 2059 2928 1675 2928 
Q 1300 2928 1048 2622 
Q 797 2316 797 1656 
z
" transform="scale(0.015625)"/>
       <path id="ArialMT-6f" d="M 213 1659 
Q 213 2581 725 3025 
Q 1153 3394 1769 3394 
Q 2453 3394 2887 2945 
Q 3322 2497 3322 1706 
Q 3322 1066 3130 698 
Q 2938 331 2570 128 
Q 2203 -75 1769 -75 
Q 1072 -75 642 372 
Q 213 819 213 1659 
z
M 791 1659 
Q 791 1022 1069 705 
Q 1347 388 1769 388 
Q 2188 388 2466 706 
Q 2744 1025 2744 1678 
Q 2744 2294 2464 2611 
Q 2184 2928 1769 2928 
Q 1347 2928 1069 2612 
Q 791 2297 791 1659 
z
" transform="scale(0.015625)"/>
       <path id="ArialMT-6d" d="M 422 0 
L 422 3319 
L 925 3319 
L 925 2853 
Q 1081 3097 1340 3245 
Q 1600 3394 1931 3394 
Q 2300 3394 2536 3241 
Q 2772 3088 2869 2813 
Q 3263 3394 3894 3394 
Q 4388 3394 4653 3120 
Q 4919 2847 4919 2278 
L 4919 0 
L 4359 0 
L 4359 2091 
Q 4359 2428 4304 2576 
Q 4250 2725 4106 2815 
Q 3963 2906 3769 2906 
Q 3419 2906 3187 2673 
Q 2956 2441 2956 1928 
L 2956 0 
L 2394 0 
L 2394 2156 
Q 2394 2531 2256 2718 
Q 2119 2906 1806 2906 
Q 1569 2906 1367 2781 
Q 1166 2656 1075 2415 
Q 984 2175 984 1722 
L 984 0 
L 422 0 
z
" transform="scale(0.015625)"/>
      </defs>
      <use xlink:href="#ArialMT-52"/>
      <use xlink:href="#ArialMT-61" x="72.216797"/>
      <use xlink:href="#ArialMT-6e" x="127.832031"/>
      <use xlink:href="#ArialMT-64" x="183.447266"/>
      <use xlink:href="#ArialMT-6f" x="239.0625"/>
      <use xlink:href="#ArialMT-6d" x="294.677734"/>
     </g>
    </g>
    <g id="line2d_35">
     <path d="M 36.410625 20.010625 
L 40.710625 20.010625 
L 45.010625 20.010625 
" style="fill: none; stroke: #c71585; stroke-width: 0.8; stroke-linecap: square"/>
     <defs>
      <path id="m30dc469782" d="M 0 -1.25 
L -1.25 1.25 
L 1.25 1.25 
z
" style="stroke: #c71585; stroke-width: 0.8; stroke-linejoin: miter"/>
     </defs>
     <g>
      <use xlink:href="#m30dc469782" x="40.710625" y="20.010625" style="fill: #c71585; stroke: #c71585; stroke-width: 0.8; stroke-linejoin: miter"/>
     </g>
    </g>
    <g id="text_15">
     <!-- Greedy -->
     <g transform="translate(45.999625 21.515625)scale(0.043 -0.043)">
      <defs>
       <path id="ArialMT-47" d="M 2638 1797 
L 2638 2334 
L 4578 2338 
L 4578 638 
Q 4131 281 3656 101 
Q 3181 -78 2681 -78 
Q 2006 -78 1454 211 
Q 903 500 622 1047 
Q 341 1594 341 2269 
Q 341 2938 620 3517 
Q 900 4097 1425 4378 
Q 1950 4659 2634 4659 
Q 3131 4659 3532 4498 
Q 3934 4338 4162 4050 
Q 4391 3763 4509 3300 
L 3963 3150 
Q 3859 3500 3706 3700 
Q 3553 3900 3268 4020 
Q 2984 4141 2638 4141 
Q 2222 4141 1919 4014 
Q 1616 3888 1430 3681 
Q 1244 3475 1141 3228 
Q 966 2803 966 2306 
Q 966 1694 1177 1281 
Q 1388 869 1791 669 
Q 2194 469 2647 469 
Q 3041 469 3416 620 
Q 3791 772 3984 944 
L 3984 1797 
L 2638 1797 
z
" transform="scale(0.015625)"/>
       <path id="ArialMT-72" d="M 416 0 
L 416 3319 
L 922 3319 
L 922 2816 
Q 1116 3169 1280 3281 
Q 1444 3394 1641 3394 
Q 1925 3394 2219 3213 
L 2025 2691 
Q 1819 2813 1613 2813 
Q 1428 2813 1281 2702 
Q 1134 2591 1072 2394 
Q 978 2094 978 1738 
L 978 0 
L 416 0 
z
" transform="scale(0.015625)"/>
       <path id="ArialMT-65" d="M 2694 1069 
L 3275 997 
Q 3138 488 2766 206 
Q 2394 -75 1816 -75 
Q 1088 -75 661 373 
Q 234 822 234 1631 
Q 234 2469 665 2931 
Q 1097 3394 1784 3394 
Q 2450 3394 2872 2941 
Q 3294 2488 3294 1666 
Q 3294 1616 3291 1516 
L 816 1516 
Q 847 969 1125 678 
Q 1403 388 1819 388 
Q 2128 388 2347 550 
Q 2566 713 2694 1069 
z
M 847 1978 
L 2700 1978 
Q 2663 2397 2488 2606 
Q 2219 2931 1791 2931 
Q 1403 2931 1139 2672 
Q 875 2413 847 1978 
z
" transform="scale(0.015625)"/>
       <path id="ArialMT-79" d="M 397 -1278 
L 334 -750 
Q 519 -800 656 -800 
Q 844 -800 956 -737 
Q 1069 -675 1141 -563 
Q 1194 -478 1313 -144 
Q 1328 -97 1363 -6 
L 103 3319 
L 709 3319 
L 1400 1397 
Q 1534 1031 1641 628 
Q 1738 1016 1872 1384 
L 2581 3319 
L 3144 3319 
L 1881 -56 
Q 1678 -603 1566 -809 
Q 1416 -1088 1222 -1217 
Q 1028 -1347 759 -1347 
Q 597 -1347 397 -1278 
z
" transform="scale(0.015625)"/>
      </defs>
      <use xlink:href="#ArialMT-47"/>
      <use xlink:href="#ArialMT-72" x="77.783203"/>
      <use xlink:href="#ArialMT-65" x="111.083984"/>
      <use xlink:href="#ArialMT-65" x="166.699219"/>
      <use xlink:href="#ArialMT-64" x="222.314453"/>
      <use xlink:href="#ArialMT-79" x="277.929688"/>
     </g>
    </g>
    <g id="line2d_36">
     <path d="M 36.410625 25.2835 
L 40.710625 25.2835 
L 45.010625 25.2835 
" style="fill: none; stroke: #00008b; stroke-width: 0.8; stroke-linecap: square"/>
     <defs>
      <path id="m54d5a8d9bb" d="M 0 1.5 
C 0.397805 1.5 0.77937 1.341951 1.06066 1.06066 
C 1.341951 0.77937 1.5 0.397805 1.5 0 
C 1.5 -0.397805 1.341951 -0.77937 1.06066 -1.06066 
C 0.77937 -1.341951 0.397805 -1.5 0 -1.5 
C -0.397805 -1.5 -0.77937 -1.341951 -1.06066 -1.06066 
C -1.341951 -0.77937 -1.5 -0.397805 -1.5 0 
C -1.5 0.397805 -1.341951 0.77937 -1.06066 1.06066 
C -0.77937 1.341951 -0.397805 1.5 0 1.5 
z
" style="stroke: #00008b; stroke-width: 0.8"/>
     </defs>
     <g>
      <use xlink:href="#m54d5a8d9bb" x="40.710625" y="25.2835" style="fill-opacity: 0; stroke: #00008b; stroke-width: 0.8"/>
     </g>
    </g>
    <g id="text_16">
     <!-- Cloest -->
     <g transform="translate(45.999625 26.7885)scale(0.043 -0.043)">
      <defs>
       <path id="ArialMT-43" d="M 3763 1606 
L 4369 1453 
Q 4178 706 3683 314 
Q 3188 -78 2472 -78 
Q 1731 -78 1267 223 
Q 803 525 561 1097 
Q 319 1669 319 2325 
Q 319 3041 592 3573 
Q 866 4106 1370 4382 
Q 1875 4659 2481 4659 
Q 3169 4659 3637 4309 
Q 4106 3959 4291 3325 
L 3694 3184 
Q 3534 3684 3231 3912 
Q 2928 4141 2469 4141 
Q 1941 4141 1586 3887 
Q 1231 3634 1087 3207 
Q 944 2781 944 2328 
Q 944 1744 1114 1308 
Q 1284 872 1643 656 
Q 2003 441 2422 441 
Q 2931 441 3284 734 
Q 3638 1028 3763 1606 
z
" transform="scale(0.015625)"/>
       <path id="ArialMT-6c" d="M 409 0 
L 409 4581 
L 972 4581 
L 972 0 
L 409 0 
z
" transform="scale(0.015625)"/>
       <path id="ArialMT-73" d="M 197 991 
L 753 1078 
Q 800 744 1014 566 
Q 1228 388 1613 388 
Q 2000 388 2187 545 
Q 2375 703 2375 916 
Q 2375 1106 2209 1216 
Q 2094 1291 1634 1406 
Q 1016 1563 777 1677 
Q 538 1791 414 1992 
Q 291 2194 291 2438 
Q 291 2659 392 2848 
Q 494 3038 669 3163 
Q 800 3259 1026 3326 
Q 1253 3394 1513 3394 
Q 1903 3394 2198 3281 
Q 2494 3169 2634 2976 
Q 2775 2784 2828 2463 
L 2278 2388 
Q 2241 2644 2061 2787 
Q 1881 2931 1553 2931 
Q 1166 2931 1000 2803 
Q 834 2675 834 2503 
Q 834 2394 903 2306 
Q 972 2216 1119 2156 
Q 1203 2125 1616 2013 
Q 2213 1853 2448 1751 
Q 2684 1650 2818 1456 
Q 2953 1263 2953 975 
Q 2953 694 2789 445 
Q 2625 197 2315 61 
Q 2006 -75 1616 -75 
Q 969 -75 630 194 
Q 291 463 197 991 
z
" transform="scale(0.015625)"/>
       <path id="ArialMT-74" d="M 1650 503 
L 1731 6 
Q 1494 -44 1306 -44 
Q 1000 -44 831 53 
Q 663 150 594 308 
Q 525 466 525 972 
L 525 2881 
L 113 2881 
L 113 3319 
L 525 3319 
L 525 4141 
L 1084 4478 
L 1084 3319 
L 1650 3319 
L 1650 2881 
L 1084 2881 
L 1084 941 
Q 1084 700 1114 631 
Q 1144 563 1211 522 
Q 1278 481 1403 481 
Q 1497 481 1650 503 
z
" transform="scale(0.015625)"/>
      </defs>
      <use xlink:href="#ArialMT-43"/>
      <use xlink:href="#ArialMT-6c" x="72.216797"/>
      <use xlink:href="#ArialMT-6f" x="94.433594"/>
      <use xlink:href="#ArialMT-65" x="150.048828"/>
      <use xlink:href="#ArialMT-73" x="205.664062"/>
      <use xlink:href="#ArialMT-74" x="255.664062"/>
     </g>
    </g>
    <g id="line2d_37">
     <path d="M 64.401609 14.735734 
L 68.701609 14.735734 
L 73.001609 14.735734 
" style="fill: none; stroke: #708090; stroke-width: 0.8; stroke-linecap: square"/>
     <defs>
      <path id="m3c455af224" d="M 0 2.12132 
L 1.272792 0 
L 0 -2.12132 
L -1.272792 0 
z
" style="stroke: #708090; stroke-width: 0.8; stroke-linejoin: miter"/>
     </defs>
     <g>
      <use xlink:href="#m3c455af224" x="68.701609" y="14.735734" style="fill-opacity: 0; stroke: #708090; stroke-width: 0.8; stroke-linejoin: miter"/>
     </g>
    </g>
    <g id="text_17">
     <!-- M-Greedy -->
     <g transform="translate(73.990609 16.240734)scale(0.043 -0.043)">
      <defs>
       <path id="ArialMT-4d" d="M 475 0 
L 475 4581 
L 1388 4581 
L 2472 1338 
Q 2622 884 2691 659 
Q 2769 909 2934 1394 
L 4031 4581 
L 4847 4581 
L 4847 0 
L 4263 0 
L 4263 3834 
L 2931 0 
L 2384 0 
L 1059 3900 
L 1059 0 
L 475 0 
z
" transform="scale(0.015625)"/>
       <path id="ArialMT-2d" d="M 203 1375 
L 203 1941 
L 1931 1941 
L 1931 1375 
L 203 1375 
z
" transform="scale(0.015625)"/>
      </defs>
      <use xlink:href="#ArialMT-4d"/>
      <use xlink:href="#ArialMT-2d" x="83.300781"/>
      <use xlink:href="#ArialMT-47" x="116.601562"/>
      <use xlink:href="#ArialMT-72" x="194.384766"/>
      <use xlink:href="#ArialMT-65" x="227.685547"/>
      <use xlink:href="#ArialMT-65" x="283.300781"/>
      <use xlink:href="#ArialMT-64" x="338.916016"/>
      <use xlink:href="#ArialMT-79" x="394.53125"/>
     </g>
    </g>
    <g id="line2d_38">
     <path d="M 64.401609 20.008609 
L 68.701609 20.008609 
L 73.001609 20.008609 
" style="fill: none; stroke: #ff4500; stroke-width: 0.8; stroke-linecap: square"/>
     <defs>
      <path id="m7f88df9314" d="M -1.25 1.25 
L 1.25 1.25 
L 1.25 -1.25 
L -1.25 -1.25 
z
" style="stroke: #ff4500; stroke-width: 0.8; stroke-linejoin: miter"/>
     </defs>
     <g>
      <use xlink:href="#m7f88df9314" x="68.701609" y="20.008609" style="fill-opacity: 0; stroke: #ff4500; stroke-width: 0.8; stroke-linejoin: miter"/>
     </g>
    </g>
    <g id="text_18">
     <!-- G-Game -->
     <g transform="translate(73.990609 21.513609)scale(0.043 -0.043)">
      <use xlink:href="#ArialMT-47"/>
      <use xlink:href="#ArialMT-2d" x="77.783203"/>
      <use xlink:href="#ArialMT-47" x="111.083984"/>
      <use xlink:href="#ArialMT-61" x="188.867188"/>
      <use xlink:href="#ArialMT-6d" x="244.482422"/>
      <use xlink:href="#ArialMT-65" x="327.783203"/>
     </g>
    </g>
    <g id="line2d_39">
     <path d="M 64.401609 25.231094 
L 68.701609 25.231094 
L 73.001609 25.231094 
" style="fill: none; stroke-dasharray: 2.96,1.28; stroke-dashoffset: 0; stroke: #228b22; stroke-width: 0.8"/>
     <defs>
      <path id="m850312d27a" d="M -1.25 1.25 
L 1.25 1.25 
L 1.25 -1.25 
L -1.25 -1.25 
z
" style="stroke: #228b22; stroke-width: 0.8; stroke-linejoin: miter"/>
     </defs>
     <g>
      <use xlink:href="#m850312d27a" x="68.701609" y="25.231094" style="fill-opacity: 0; stroke: #228b22; stroke-width: 0.8; stroke-linejoin: miter"/>
     </g>
    </g>
    <g id="text_19">
     <!-- G-Game-its -->
     <g transform="translate(73.990609 26.736094)scale(0.043 -0.043)">
      <defs>
       <path id="ArialMT-69" d="M 425 3934 
L 425 4581 
L 988 4581 
L 988 3934 
L 425 3934 
z
M 425 0 
L 425 3319 
L 988 3319 
L 988 0 
L 425 0 
z
" transform="scale(0.015625)"/>
      </defs>
      <use xlink:href="#ArialMT-47"/>
      <use xlink:href="#ArialMT-2d" x="77.783203"/>
      <use xlink:href="#ArialMT-47" x="111.083984"/>
      <use xlink:href="#ArialMT-61" x="188.867188"/>
      <use xlink:href="#ArialMT-6d" x="244.482422"/>
      <use xlink:href="#ArialMT-65" x="327.783203"/>
      <use xlink:href="#ArialMT-2d" x="383.398438"/>
      <use xlink:href="#ArialMT-69" x="416.699219"/>
      <use xlink:href="#ArialMT-74" x="438.916016"/>
      <use xlink:href="#ArialMT-73" x="466.699219"/>
     </g>
    </g>
    <g id="line2d_40">
     <path d="M 98.3575 14.735734 
L 102.6575 14.735734 
L 106.9575 14.735734 
" style="fill: none; stroke: #ffa500; stroke-width: 0.8; stroke-linecap: square"/>
     <defs>
      <path id="ma83e7538f8" d="M 0 -1.5 
L -0.336771 -0.463525 
L -1.426585 -0.463525 
L -0.544907 0.177051 
L -0.881678 1.213525 
L -0 0.572949 
L 0.881678 1.213525 
L 0.544907 0.177051 
L 1.426585 -0.463525 
L 0.336771 -0.463525 
z
" style="stroke: #ffa500; stroke-width: 0.8; stroke-linejoin: bevel"/>
     </defs>
     <g>
      <use xlink:href="#ma83e7538f8" x="102.6575" y="14.735734" style="fill-opacity: 0; stroke: #ffa500; stroke-width: 0.8; stroke-linejoin: bevel"/>
     </g>
    </g>
    <g id="text_20">
     <!-- M-Game -->
     <g transform="translate(107.9465 16.240734)scale(0.043 -0.043)">
      <use xlink:href="#ArialMT-4d"/>
      <use xlink:href="#ArialMT-2d" x="83.300781"/>
      <use xlink:href="#ArialMT-47" x="116.601562"/>
      <use xlink:href="#ArialMT-61" x="194.384766"/>
      <use xlink:href="#ArialMT-6d" x="250"/>
      <use xlink:href="#ArialMT-65" x="333.300781"/>
     </g>
    </g>
    <g id="line2d_41">
     <path d="M 98.3575 19.958219 
L 102.6575 19.958219 
L 106.9575 19.958219 
" style="fill: none; stroke-dasharray: 2.96,1.28; stroke-dashoffset: 0; stroke: #ff69b4; stroke-width: 0.8"/>
     <defs>
      <path id="m6cfffa57bb" d="M 0 -1.5 
L -0.336771 -0.463525 
L -1.426585 -0.463525 
L -0.544907 0.177051 
L -0.881678 1.213525 
L -0 0.572949 
L 0.881678 1.213525 
L 0.544907 0.177051 
L 1.426585 -0.463525 
L 0.336771 -0.463525 
z
" style="stroke: #ff69b4; stroke-width: 0.8; stroke-linejoin: bevel"/>
     </defs>
     <g>
      <use xlink:href="#m6cfffa57bb" x="102.6575" y="19.958219" style="fill-opacity: 0; stroke: #ff69b4; stroke-width: 0.8; stroke-linejoin: bevel"/>
     </g>
    </g>
    <g id="text_21">
     <!-- M-Game-its -->
     <g transform="translate(107.9465 21.463219)scale(0.043 -0.043)">
      <use xlink:href="#ArialMT-4d"/>
      <use xlink:href="#ArialMT-2d" x="83.300781"/>
      <use xlink:href="#ArialMT-47" x="116.601562"/>
      <use xlink:href="#ArialMT-61" x="194.384766"/>
      <use xlink:href="#ArialMT-6d" x="250"/>
      <use xlink:href="#ArialMT-65" x="333.300781"/>
      <use xlink:href="#ArialMT-2d" x="388.916016"/>
      <use xlink:href="#ArialMT-69" x="422.216797"/>
      <use xlink:href="#ArialMT-74" x="444.433594"/>
      <use xlink:href="#ArialMT-73" x="472.216797"/>
     </g>
    </g>
   </g>
   <g id="line2d_42">
    <path d="M 32.540625 79.623999 
L 57.650625 72.711706 
L 82.760625 59.306455 
L 107.870625 47.889762 
L 132.980625 35.629102 
" style="fill: none; stroke: #000000; stroke-width: 0.8; stroke-linecap: square"/>
    <g>
     <use xlink:href="#m48e8cce8c0" x="32.540625" y="79.623999" style="fill-opacity: 0; stroke: #000000; stroke-width: 0.8"/>
     <use xlink:href="#m48e8cce8c0" x="57.650625" y="72.711706" style="fill-opacity: 0; stroke: #000000; stroke-width: 0.8"/>
     <use xlink:href="#m48e8cce8c0" x="82.760625" y="59.306455" style="fill-opacity: 0; stroke: #000000; stroke-width: 0.8"/>
     <use xlink:href="#m48e8cce8c0" x="107.870625" y="47.889762" style="fill-opacity: 0; stroke: #000000; stroke-width: 0.8"/>
     <use xlink:href="#m48e8cce8c0" x="132.980625" y="35.629102" style="fill-opacity: 0; stroke: #000000; stroke-width: 0.8"/>
    </g>
   </g>
   <g id="line2d_43">
    <path d="M 32.540625 78.629083 
L 57.650625 70.895944 
L 82.760625 55.308127 
L 107.870625 41.995912 
L 132.980625 27.41202 
" style="fill: none; stroke: #c71585; stroke-width: 0.8; stroke-linecap: square"/>
    <g>
     <use xlink:href="#m30dc469782" x="32.540625" y="78.629083" style="fill: #c71585; stroke: #c71585; stroke-width: 0.8; stroke-linejoin: miter"/>
     <use xlink:href="#m30dc469782" x="57.650625" y="70.895944" style="fill: #c71585; stroke: #c71585; stroke-width: 0.8; stroke-linejoin: miter"/>
     <use xlink:href="#m30dc469782" x="82.760625" y="55.308127" style="fill: #c71585; stroke: #c71585; stroke-width: 0.8; stroke-linejoin: miter"/>
     <use xlink:href="#m30dc469782" x="107.870625" y="41.995912" style="fill: #c71585; stroke: #c71585; stroke-width: 0.8; stroke-linejoin: miter"/>
     <use xlink:href="#m30dc469782" x="132.980625" y="27.41202" style="fill: #c71585; stroke: #c71585; stroke-width: 0.8; stroke-linejoin: miter"/>
    </g>
   </g>
   <g id="line2d_44">
    <path d="M 32.540625 77.786297 
L 57.650625 68.351113 
L 82.760625 50.939861 
L 107.870625 37.67749 
L 132.980625 22.089747 
" style="fill: none; stroke: #00008b; stroke-width: 0.8; stroke-linecap: square"/>
    <g>
     <use xlink:href="#m54d5a8d9bb" x="32.540625" y="77.786297" style="fill-opacity: 0; stroke: #00008b; stroke-width: 0.8"/>
     <use xlink:href="#m54d5a8d9bb" x="57.650625" y="68.351113" style="fill-opacity: 0; stroke: #00008b; stroke-width: 0.8"/>
     <use xlink:href="#m54d5a8d9bb" x="82.760625" y="50.939861" style="fill-opacity: 0; stroke: #00008b; stroke-width: 0.8"/>
     <use xlink:href="#m54d5a8d9bb" x="107.870625" y="37.67749" style="fill-opacity: 0; stroke: #00008b; stroke-width: 0.8"/>
     <use xlink:href="#m54d5a8d9bb" x="132.980625" y="22.089747" style="fill-opacity: 0; stroke: #00008b; stroke-width: 0.8"/>
    </g>
   </g>
   <g id="line2d_45">
    <path d="M 32.540625 76.918945 
L 57.650625 68.020873 
L 82.760625 49.638045 
L 107.870625 32.795858 
L 132.980625 24.242009 
" style="fill: none; stroke: #708090; stroke-width: 0.8; stroke-linecap: square"/>
    <g>
     <use xlink:href="#m3c455af224" x="32.540625" y="76.918945" style="fill-opacity: 0; stroke: #708090; stroke-width: 0.8; stroke-linejoin: miter"/>
     <use xlink:href="#m3c455af224" x="57.650625" y="68.020873" style="fill-opacity: 0; stroke: #708090; stroke-width: 0.8; stroke-linejoin: miter"/>
     <use xlink:href="#m3c455af224" x="82.760625" y="49.638045" style="fill-opacity: 0; stroke: #708090; stroke-width: 0.8; stroke-linejoin: miter"/>
     <use xlink:href="#m3c455af224" x="107.870625" y="32.795858" style="fill-opacity: 0; stroke: #708090; stroke-width: 0.8; stroke-linejoin: miter"/>
     <use xlink:href="#m3c455af224" x="132.980625" y="24.242009" style="fill-opacity: 0; stroke: #708090; stroke-width: 0.8; stroke-linejoin: miter"/>
    </g>
   </g>
   <g id="line2d_46">
    <path d="M 32.540625 75.888004 
L 57.650625 66.925201 
L 82.760625 48.637394 
L 107.870625 32.649727 
L 132.980625 17.085905 
" style="fill: none; stroke: #ff4500; stroke-width: 0.8; stroke-linecap: square"/>
    <g>
     <use xlink:href="#m7f88df9314" x="32.540625" y="75.888004" style="fill-opacity: 0; stroke: #ff4500; stroke-width: 0.8; stroke-linejoin: miter"/>
     <use xlink:href="#m7f88df9314" x="57.650625" y="66.925201" style="fill-opacity: 0; stroke: #ff4500; stroke-width: 0.8; stroke-linejoin: miter"/>
     <use xlink:href="#m7f88df9314" x="82.760625" y="48.637394" style="fill-opacity: 0; stroke: #ff4500; stroke-width: 0.8; stroke-linejoin: miter"/>
     <use xlink:href="#m7f88df9314" x="107.870625" y="32.649727" style="fill-opacity: 0; stroke: #ff4500; stroke-width: 0.8; stroke-linejoin: miter"/>
     <use xlink:href="#m7f88df9314" x="132.980625" y="17.085905" style="fill-opacity: 0; stroke: #ff4500; stroke-width: 0.8; stroke-linejoin: miter"/>
    </g>
   </g>
   <g id="line2d_47">
    <path d="M 32.540625 76.163208 
L 57.650625 66.699546 
L 82.760625 49.496166 
L 107.870625 33.315873 
L 132.980625 18.013719 
" style="fill: none; stroke-dasharray: 2.96,1.28; stroke-dashoffset: 0; stroke: #228b22; stroke-width: 0.8"/>
    <g>
     <use xlink:href="#m850312d27a" x="32.540625" y="76.163208" style="fill-opacity: 0; stroke: #228b22; stroke-width: 0.8; stroke-linejoin: miter"/>
     <use xlink:href="#m850312d27a" x="57.650625" y="66.699546" style="fill-opacity: 0; stroke: #228b22; stroke-width: 0.8; stroke-linejoin: miter"/>
     <use xlink:href="#m850312d27a" x="82.760625" y="49.496166" style="fill-opacity: 0; stroke: #228b22; stroke-width: 0.8; stroke-linejoin: miter"/>
     <use xlink:href="#m850312d27a" x="107.870625" y="33.315873" style="fill-opacity: 0; stroke: #228b22; stroke-width: 0.8; stroke-linejoin: miter"/>
     <use xlink:href="#m850312d27a" x="132.980625" y="18.013719" style="fill-opacity: 0; stroke: #228b22; stroke-width: 0.8; stroke-linejoin: miter"/>
    </g>
   </g>
   <g id="line2d_48">
    <path d="M 32.540625 75.654156 
L 57.650625 66.233528 
L 82.760625 47.802076 
L 107.870625 30.093479 
L 132.980625 14.576617 
" style="fill: none; stroke: #ffa500; stroke-width: 0.8; stroke-linecap: square"/>
    <g>
     <use xlink:href="#ma83e7538f8" x="32.540625" y="75.654156" style="fill-opacity: 0; stroke: #ffa500; stroke-width: 0.8; stroke-linejoin: bevel"/>
     <use xlink:href="#ma83e7538f8" x="57.650625" y="66.233528" style="fill-opacity: 0; stroke: #ffa500; stroke-width: 0.8; stroke-linejoin: bevel"/>
     <use xlink:href="#ma83e7538f8" x="82.760625" y="47.802076" style="fill-opacity: 0; stroke: #ffa500; stroke-width: 0.8; stroke-linejoin: bevel"/>
     <use xlink:href="#ma83e7538f8" x="107.870625" y="30.093479" style="fill-opacity: 0; stroke: #ffa500; stroke-width: 0.8; stroke-linejoin: bevel"/>
     <use xlink:href="#ma83e7538f8" x="132.980625" y="14.576617" style="fill-opacity: 0; stroke: #ffa500; stroke-width: 0.8; stroke-linejoin: bevel"/>
    </g>
   </g>
   <g id="line2d_49">
    <path d="M 32.540625 75.960073 
L 57.650625 67.052142 
L 82.760625 48.470884 
L 107.870625 31.818771 
L 132.980625 17.459566 
" style="fill: none; stroke-dasharray: 2.96,1.28; stroke-dashoffset: 0; stroke: #ff69b4; stroke-width: 0.8"/>
    <g>
     <use xlink:href="#m6cfffa57bb" x="32.540625" y="75.960073" style="fill-opacity: 0; stroke: #ff69b4; stroke-width: 0.8; stroke-linejoin: bevel"/>
     <use xlink:href="#m6cfffa57bb" x="57.650625" y="67.052142" style="fill-opacity: 0; stroke: #ff69b4; stroke-width: 0.8; stroke-linejoin: bevel"/>
     <use xlink:href="#m6cfffa57bb" x="82.760625" y="48.470884" style="fill-opacity: 0; stroke: #ff69b4; stroke-width: 0.8; stroke-linejoin: bevel"/>
     <use xlink:href="#m6cfffa57bb" x="107.870625" y="31.818771" style="fill-opacity: 0; stroke: #ff69b4; stroke-width: 0.8; stroke-linejoin: bevel"/>
     <use xlink:href="#m6cfffa57bb" x="132.980625" y="17.459566" style="fill-opacity: 0; stroke: #ff69b4; stroke-width: 0.8; stroke-linejoin: bevel"/>
    </g>
   </g>
  </g>
 </g>
 <defs>
  <clipPath id="p082df5166c">
   <rect x="32.540625" y="9.240469" width="100.44" height="77.616"/>
  </clipPath>
 </defs>
</svg>
