<?xml version="1.0" encoding="utf-8" standalone="no"?>
<!DOCTYPE svg PUBLIC "-//W3C//DTD SVG 1.1//EN"
  "http://www.w3.org/Graphics/SVG/1.1/DTD/svg11.dtd">
<svg xmlns:xlink="http://www.w3.org/1999/xlink" width="141.475313pt" height="112.153969pt" viewBox="0 0 141.475313 112.153969" xmlns="http://www.w3.org/2000/svg" version="1.1">
 <metadata>
  <rdf:RDF xmlns:dc="http://purl.org/dc/elements/1.1/" xmlns:cc="http://creativecommons.org/ns#" xmlns:rdf="http://www.w3.org/1999/02/22-rdf-syntax-ns#">
   <cc:Work>
    <dc:type rdf:resource="http://purl.org/dc/dcmitype/StillImage"/>
    <dc:date>2024-02-07T23:57:47.755845</dc:date>
    <dc:format>image/svg+xml</dc:format>
    <dc:creator>
     <cc:Agent>
      <dc:title>Matplotlib v3.5.2, https://matplotlib.org/</dc:title>
     </cc:Agent>
    </dc:creator>
   </cc:Work>
  </rdf:RDF>
 </metadata>
 <defs>
  <style type="text/css">*{stroke-linejoin: round; stroke-linecap: butt}</style>
 </defs>
 <g id="figure_1">
  <g id="patch_1">
   <path d="M 0 112.153969 
L 141.475313 112.153969 
L 141.475313 0 
L 0 0 
z
" style="fill: #ffffff"/>
  </g>
  <g id="axes_1">
   <g id="patch_2">
    <path d="M 32.314687 86.856469 
L 132.754687 86.856469 
L 132.754687 9.240469 
L 32.314687 9.240469 
z
" style="fill: #ffffff"/>
   </g>
   <g id="matplotlib.axis_1">
    <g id="xtick_1">
     <g id="line2d_1">
      <path d="M 32.314687 86.856469 
L 32.314687 9.240469 
" clip-path="url(#p653d9b0276)" style="fill: none; stroke-dasharray: 0.74,0.32; stroke-dashoffset: 0; stroke: #b0b0b0; stroke-opacity: 0.8; stroke-width: 0.2"/>
     </g>
     <g id="line2d_2">
      <defs>
       <path id="m4205b189ce" d="M 0 0 
L 0 -1 
" style="stroke: #000000; stroke-width: 0.3"/>
      </defs>
      <g>
       <use xlink:href="#m4205b189ce" x="32.314687" y="86.856469" style="stroke: #000000; stroke-width: 0.3"/>
      </g>
     </g>
     <g id="line2d_3">
      <defs>
       <path id="m23e3bda453" d="M 0 0 
L 0 1 
" style="stroke: #000000; stroke-width: 0.3"/>
      </defs>
      <g>
       <use xlink:href="#m23e3bda453" x="32.314687" y="9.240469" style="stroke: #000000; stroke-width: 0.3"/>
      </g>
     </g>
     <g id="text_1">
      <!-- 1 -->
      <g transform="translate(30.794062 94.437406)scale(0.06 -0.06)">
       <defs>
        <path id="Calibri-31" d="M 2897 213 
Q 2897 153 2887 112 
Q 2878 72 2862 47 
Q 2847 22 2826 11 
Q 2806 0 2784 0 
L 672 0 
Q 650 0 631 11 
Q 613 22 595 47 
Q 578 72 568 112 
Q 559 153 559 213 
Q 559 269 568 309 
Q 578 350 592 376 
Q 606 403 626 417 
Q 647 431 672 431 
L 1516 431 
L 1516 3506 
L 734 3041 
Q 675 3009 639 3003 
Q 603 2997 581 3017 
Q 559 3038 551 3084 
Q 544 3131 544 3203 
Q 544 3256 548 3293 
Q 553 3331 562 3356 
Q 572 3381 589 3400 
Q 606 3419 634 3438 
L 1566 4034 
Q 1578 4044 1597 4050 
Q 1616 4056 1644 4062 
Q 1672 4069 1709 4070 
Q 1747 4072 1803 4072 
Q 1878 4072 1928 4065 
Q 1978 4059 2006 4048 
Q 2034 4038 2043 4020 
Q 2053 4003 2053 3984 
L 2053 431 
L 2784 431 
Q 2809 431 2831 417 
Q 2853 403 2867 376 
Q 2881 350 2889 309 
Q 2897 269 2897 213 
z
" transform="scale(0.015625)"/>
       </defs>
       <use xlink:href="#Calibri-31"/>
      </g>
     </g>
    </g>
    <g id="xtick_2">
     <g id="line2d_4">
      <path d="M 57.424687 86.856469 
L 57.424687 9.240469 
" clip-path="url(#p653d9b0276)" style="fill: none; stroke-dasharray: 0.74,0.32; stroke-dashoffset: 0; stroke: #b0b0b0; stroke-opacity: 0.8; stroke-width: 0.2"/>
     </g>
     <g id="line2d_5">
      <g>
       <use xlink:href="#m4205b189ce" x="57.424687" y="86.856469" style="stroke: #000000; stroke-width: 0.3"/>
      </g>
     </g>
     <g id="line2d_6">
      <g>
       <use xlink:href="#m23e3bda453" x="57.424687" y="9.240469" style="stroke: #000000; stroke-width: 0.3"/>
      </g>
     </g>
     <g id="text_2">
      <!-- 2 -->
      <g transform="translate(55.904062 94.437406)scale(0.06 -0.06)">
       <defs>
        <path id="Calibri-32" d="M 2888 231 
Q 2888 175 2880 131 
Q 2872 88 2858 58 
Q 2844 28 2820 14 
Q 2797 0 2769 0 
L 534 0 
Q 491 0 458 11 
Q 425 22 401 47 
Q 378 72 367 119 
Q 356 166 356 234 
Q 356 297 361 344 
Q 366 391 381 427 
Q 397 463 420 498 
Q 444 534 481 575 
L 1266 1406 
Q 1538 1694 1702 1922 
Q 1866 2150 1955 2337 
Q 2044 2525 2072 2678 
Q 2100 2831 2100 2966 
Q 2100 3100 2056 3220 
Q 2013 3341 1930 3431 
Q 1847 3522 1722 3575 
Q 1597 3628 1434 3628 
Q 1244 3628 1092 3575 
Q 941 3522 827 3459 
Q 713 3397 636 3344 
Q 559 3291 522 3291 
Q 500 3291 483 3303 
Q 466 3316 455 3344 
Q 444 3372 437 3419 
Q 431 3466 431 3531 
Q 431 3578 434 3612 
Q 438 3647 445 3672 
Q 453 3697 465 3719 
Q 478 3741 515 3773 
Q 553 3806 645 3862 
Q 738 3919 877 3973 
Q 1016 4028 1183 4065 
Q 1350 4103 1534 4103 
Q 1828 4103 2048 4020 
Q 2269 3938 2414 3794 
Q 2559 3650 2631 3459 
Q 2703 3269 2703 3053 
Q 2703 2859 2668 2667 
Q 2634 2475 2523 2251 
Q 2413 2028 2203 1754 
Q 1994 1481 1647 1125 
L 1006 456 
L 2766 456 
Q 2791 456 2814 442 
Q 2838 428 2855 400 
Q 2872 372 2880 330 
Q 2888 288 2888 231 
z
" transform="scale(0.015625)"/>
       </defs>
       <use xlink:href="#Calibri-32"/>
      </g>
     </g>
    </g>
    <g id="xtick_3">
     <g id="line2d_7">
      <path d="M 82.534687 86.856469 
L 82.534687 9.240469 
" clip-path="url(#p653d9b0276)" style="fill: none; stroke-dasharray: 0.74,0.32; stroke-dashoffset: 0; stroke: #b0b0b0; stroke-opacity: 0.8; stroke-width: 0.2"/>
     </g>
     <g id="line2d_8">
      <g>
       <use xlink:href="#m4205b189ce" x="82.534687" y="86.856469" style="stroke: #000000; stroke-width: 0.3"/>
      </g>
     </g>
     <g id="line2d_9">
      <g>
       <use xlink:href="#m23e3bda453" x="82.534687" y="9.240469" style="stroke: #000000; stroke-width: 0.3"/>
      </g>
     </g>
     <g id="text_3">
      <!-- 3 -->
      <g transform="translate(81.014062 94.437406)scale(0.06 -0.06)">
       <defs>
        <path id="Calibri-33" d="M 2856 1156 
Q 2856 878 2759 654 
Q 2663 431 2481 272 
Q 2300 113 2034 27 
Q 1769 -59 1434 -59 
Q 1231 -59 1054 -26 
Q 878 6 740 51 
Q 603 97 512 145 
Q 422 194 398 216 
Q 375 238 362 259 
Q 350 281 340 312 
Q 331 344 326 389 
Q 322 434 322 500 
Q 322 613 344 656 
Q 366 700 406 700 
Q 434 700 517 650 
Q 600 600 729 542 
Q 859 484 1032 434 
Q 1206 384 1419 384 
Q 1625 384 1781 437 
Q 1938 491 2044 587 
Q 2150 684 2203 817 
Q 2256 950 2256 1106 
Q 2256 1278 2189 1415 
Q 2122 1553 1992 1653 
Q 1863 1753 1673 1806 
Q 1484 1859 1244 1859 
L 859 1859 
Q 834 1859 811 1870 
Q 788 1881 770 1906 
Q 753 1931 742 1972 
Q 731 2013 731 2078 
Q 731 2138 740 2177 
Q 750 2216 767 2239 
Q 784 2263 806 2273 
Q 828 2284 856 2284 
L 1209 2284 
Q 1416 2284 1580 2337 
Q 1744 2391 1858 2491 
Q 1972 2591 2033 2730 
Q 2094 2869 2094 3041 
Q 2094 3166 2053 3280 
Q 2013 3394 1931 3478 
Q 1850 3563 1723 3611 
Q 1597 3659 1431 3659 
Q 1250 3659 1098 3604 
Q 947 3550 828 3487 
Q 709 3425 631 3370 
Q 553 3316 522 3316 
Q 500 3316 483 3323 
Q 466 3331 455 3354 
Q 444 3378 439 3420 
Q 434 3463 434 3531 
Q 434 3578 437 3614 
Q 441 3650 450 3676 
Q 459 3703 471 3725 
Q 484 3747 514 3776 
Q 544 3806 634 3862 
Q 725 3919 858 3973 
Q 991 4028 1164 4065 
Q 1338 4103 1538 4103 
Q 1819 4103 2031 4031 
Q 2244 3959 2386 3828 
Q 2528 3697 2598 3514 
Q 2669 3331 2669 3109 
Q 2669 2919 2619 2755 
Q 2569 2591 2472 2464 
Q 2375 2338 2234 2248 
Q 2094 2159 1909 2125 
L 1909 2119 
Q 2119 2097 2292 2014 
Q 2466 1931 2591 1806 
Q 2716 1681 2786 1514 
Q 2856 1347 2856 1156 
z
" transform="scale(0.015625)"/>
       </defs>
       <use xlink:href="#Calibri-33"/>
      </g>
     </g>
    </g>
    <g id="xtick_4">
     <g id="line2d_10">
      <path d="M 107.644688 86.856469 
L 107.644688 9.240469 
" clip-path="url(#p653d9b0276)" style="fill: none; stroke-dasharray: 0.74,0.32; stroke-dashoffset: 0; stroke: #b0b0b0; stroke-opacity: 0.8; stroke-width: 0.2"/>
     </g>
     <g id="line2d_11">
      <g>
       <use xlink:href="#m4205b189ce" x="107.644688" y="86.856469" style="stroke: #000000; stroke-width: 0.3"/>
      </g>
     </g>
     <g id="line2d_12">
      <g>
       <use xlink:href="#m23e3bda453" x="107.644688" y="9.240469" style="stroke: #000000; stroke-width: 0.3"/>
      </g>
     </g>
     <g id="text_4">
      <!-- 4 -->
      <g transform="translate(106.124063 94.437406)scale(0.06 -0.06)">
       <defs>
        <path id="Calibri-34" d="M 3059 1150 
Q 3059 1047 3028 987 
Q 2997 928 2941 928 
L 2484 928 
L 2484 78 
Q 2484 53 2471 36 
Q 2459 19 2428 6 
Q 2397 -6 2347 -12 
Q 2297 -19 2219 -19 
Q 2144 -19 2094 -12 
Q 2044 -6 2014 6 
Q 1984 19 1973 36 
Q 1963 53 1963 78 
L 1963 928 
L 294 928 
Q 256 928 231 937 
Q 206 947 186 972 
Q 166 997 158 1044 
Q 150 1091 150 1166 
Q 150 1225 153 1272 
Q 156 1319 165 1358 
Q 175 1397 190 1433 
Q 206 1469 228 1509 
L 1684 3966 
Q 1700 3991 1729 4009 
Q 1759 4028 1806 4040 
Q 1853 4053 1922 4058 
Q 1991 4063 2084 4063 
Q 2188 4063 2264 4055 
Q 2341 4047 2387 4034 
Q 2434 4022 2459 4001 
Q 2484 3981 2484 3953 
L 2484 1372 
L 2941 1372 
Q 2994 1372 3026 1317 
Q 3059 1263 3059 1150 
z
M 1963 3591 
L 1956 3591 
L 641 1372 
L 1963 1372 
L 1963 3591 
z
" transform="scale(0.015625)"/>
       </defs>
       <use xlink:href="#Calibri-34"/>
      </g>
     </g>
    </g>
    <g id="xtick_5">
     <g id="line2d_13">
      <path d="M 132.754687 86.856469 
L 132.754687 9.240469 
" clip-path="url(#p653d9b0276)" style="fill: none; stroke-dasharray: 0.74,0.32; stroke-dashoffset: 0; stroke: #b0b0b0; stroke-opacity: 0.8; stroke-width: 0.2"/>
     </g>
     <g id="line2d_14">
      <g>
       <use xlink:href="#m4205b189ce" x="132.754687" y="86.856469" style="stroke: #000000; stroke-width: 0.3"/>
      </g>
     </g>
     <g id="line2d_15">
      <g>
       <use xlink:href="#m23e3bda453" x="132.754687" y="9.240469" style="stroke: #000000; stroke-width: 0.3"/>
      </g>
     </g>
     <g id="text_5">
      <!-- 5 -->
      <g transform="translate(131.234062 94.437406)scale(0.06 -0.06)">
       <defs>
        <path id="Calibri-35" d="M 2869 1300 
Q 2869 975 2759 722 
Q 2650 469 2450 295 
Q 2250 122 1973 31 
Q 1697 -59 1359 -59 
Q 1172 -59 1003 -32 
Q 834 -6 703 33 
Q 572 72 487 109 
Q 403 147 379 169 
Q 356 191 347 209 
Q 338 228 330 254 
Q 322 281 319 322 
Q 316 363 316 419 
Q 316 472 320 514 
Q 325 556 337 582 
Q 350 609 367 621 
Q 384 634 406 634 
Q 438 634 503 595 
Q 569 556 680 511 
Q 791 466 955 425 
Q 1119 384 1344 384 
Q 1553 384 1728 434 
Q 1903 484 2029 590 
Q 2156 697 2228 858 
Q 2300 1019 2300 1250 
Q 2300 1444 2239 1592 
Q 2178 1741 2051 1839 
Q 1925 1938 1731 1986 
Q 1538 2034 1269 2034 
Q 1078 2034 940 2015 
Q 803 1997 684 1997 
Q 597 1997 559 2037 
Q 522 2078 522 2194 
L 522 3841 
Q 522 3944 570 3994 
Q 619 4044 709 4044 
L 2500 4044 
Q 2525 4044 2548 4030 
Q 2572 4016 2587 3987 
Q 2603 3959 2611 3915 
Q 2619 3872 2619 3813 
Q 2619 3700 2587 3637 
Q 2556 3575 2500 3575 
L 991 3575 
L 991 2441 
Q 1100 2456 1214 2459 
Q 1328 2463 1478 2463 
Q 1825 2463 2084 2380 
Q 2344 2297 2517 2145 
Q 2691 1994 2780 1778 
Q 2869 1563 2869 1300 
z
" transform="scale(0.015625)"/>
       </defs>
       <use xlink:href="#Calibri-35"/>
      </g>
     </g>
    </g>
    <g id="text_6">
     <!-- $d.bra$ -->
     <g transform="translate(74.104687 103.670531)scale(0.06 -0.06)">
      <defs>
       <path id="DejaVuSans-Oblique-64" d="M 2675 525 
Q 2444 222 2128 65 
Q 1813 -91 1428 -91 
Q 903 -91 598 267 
Q 294 625 294 1247 
Q 294 1766 478 2236 
Q 663 2706 1013 3078 
Q 1244 3325 1534 3454 
Q 1825 3584 2144 3584 
Q 2481 3584 2739 3421 
Q 2997 3259 3138 2956 
L 3513 4863 
L 4091 4863 
L 3144 0 
L 2566 0 
L 2675 525 
z
M 891 1350 
Q 891 897 1095 644 
Q 1300 391 1663 391 
Q 1931 391 2161 520 
Q 2391 650 2566 903 
Q 2750 1166 2856 1509 
Q 2963 1853 2963 2188 
Q 2963 2622 2758 2865 
Q 2553 3109 2194 3109 
Q 1922 3109 1687 2981 
Q 1453 2853 1288 2613 
Q 1106 2353 998 2009 
Q 891 1666 891 1350 
z
" transform="scale(0.015625)"/>
       <path id="DejaVuSans-2e" d="M 684 794 
L 1344 794 
L 1344 0 
L 684 0 
L 684 794 
z
" transform="scale(0.015625)"/>
       <path id="DejaVuSans-Oblique-62" d="M 3169 2138 
Q 3169 2591 2961 2847 
Q 2753 3103 2388 3103 
Q 2122 3103 1889 2973 
Q 1656 2844 1484 2597 
Q 1303 2338 1198 1995 
Q 1094 1653 1094 1313 
Q 1094 881 1298 636 
Q 1503 391 1863 391 
Q 2134 391 2365 517 
Q 2597 644 2772 891 
Q 2950 1147 3059 1487 
Q 3169 1828 3169 2138 
z
M 1381 2969 
Q 1594 3256 1914 3420 
Q 2234 3584 2584 3584 
Q 3122 3584 3439 3221 
Q 3756 2859 3756 2241 
Q 3756 1734 3570 1259 
Q 3384 784 3041 416 
Q 2816 172 2522 40 
Q 2228 -91 1906 -91 
Q 1566 -91 1316 65 
Q 1066 222 909 531 
L 806 0 
L 231 0 
L 1178 4863 
L 1753 4863 
L 1381 2969 
z
" transform="scale(0.015625)"/>
       <path id="DejaVuSans-Oblique-72" d="M 2853 2969 
Q 2766 3016 2653 3041 
Q 2541 3066 2413 3066 
Q 1953 3066 1609 2717 
Q 1266 2369 1153 1784 
L 800 0 
L 225 0 
L 909 3500 
L 1484 3500 
L 1375 2956 
Q 1603 3259 1920 3421 
Q 2238 3584 2597 3584 
Q 2691 3584 2781 3573 
Q 2872 3563 2963 3538 
L 2853 2969 
z
" transform="scale(0.015625)"/>
       <path id="DejaVuSans-Oblique-61" d="M 3438 1997 
L 3047 0 
L 2472 0 
L 2578 531 
Q 2325 219 2001 64 
Q 1678 -91 1281 -91 
Q 834 -91 548 182 
Q 263 456 263 884 
Q 263 1497 752 1853 
Q 1241 2209 2100 2209 
L 2900 2209 
L 2931 2363 
Q 2938 2388 2941 2417 
Q 2944 2447 2944 2509 
Q 2944 2788 2717 2942 
Q 2491 3097 2081 3097 
Q 1800 3097 1504 3025 
Q 1209 2953 897 2809 
L 997 3341 
Q 1322 3463 1633 3523 
Q 1944 3584 2234 3584 
Q 2853 3584 3176 3315 
Q 3500 3047 3500 2534 
Q 3500 2431 3484 2292 
Q 3469 2153 3438 1997 
z
M 2816 1759 
L 2241 1759 
Q 1534 1759 1195 1570 
Q 856 1381 856 984 
Q 856 709 1029 553 
Q 1203 397 1509 397 
Q 1978 397 2328 733 
Q 2678 1069 2791 1631 
L 2816 1759 
z
" transform="scale(0.015625)"/>
      </defs>
      <use xlink:href="#DejaVuSans-Oblique-64" transform="translate(0 0.015625)"/>
      <use xlink:href="#DejaVuSans-2e" transform="translate(63.476562 0.015625)"/>
      <use xlink:href="#DejaVuSans-Oblique-62" transform="translate(114.746094 0.015625)"/>
      <use xlink:href="#DejaVuSans-Oblique-72" transform="translate(178.222656 0.015625)"/>
      <use xlink:href="#DejaVuSans-Oblique-61" transform="translate(219.335938 0.015625)"/>
     </g>
    </g>
   </g>
   <g id="matplotlib.axis_2">
    <g id="ytick_1">
     <g id="line2d_16">
      <path d="M 32.314687 86.856469 
L 132.754687 86.856469 
" clip-path="url(#p653d9b0276)" style="fill: none; stroke-dasharray: 0.74,0.32; stroke-dashoffset: 0; stroke: #b0b0b0; stroke-opacity: 0.8; stroke-width: 0.2"/>
     </g>
     <g id="line2d_17">
      <defs>
       <path id="m59fec084ab" d="M 0 0 
L 1 0 
" style="stroke: #000000; stroke-width: 0.3"/>
      </defs>
      <g>
       <use xlink:href="#m59fec084ab" x="32.314687" y="86.856469" style="stroke: #000000; stroke-width: 0.3"/>
      </g>
     </g>
     <g id="line2d_18">
      <defs>
       <path id="mc798bf8ceb" d="M 0 0 
L -1 0 
" style="stroke: #000000; stroke-width: 0.3"/>
      </defs>
      <g>
       <use xlink:href="#mc798bf8ceb" x="132.754687" y="86.856469" style="stroke: #000000; stroke-width: 0.3"/>
      </g>
     </g>
     <g id="text_7">
      <!-- 500 -->
      <g transform="translate(19.690937 88.896938)scale(0.06 -0.06)">
       <defs>
        <path id="Calibri-30" d="M 3022 2031 
Q 3022 1566 2948 1181 
Q 2875 797 2704 520 
Q 2534 244 2259 92 
Q 1984 -59 1581 -59 
Q 1200 -59 939 77 
Q 678 213 518 477 
Q 359 741 292 1127 
Q 225 1513 225 2013 
Q 225 2475 300 2861 
Q 375 3247 544 3523 
Q 713 3800 988 3951 
Q 1263 4103 1663 4103 
Q 2047 4103 2308 3967 
Q 2569 3831 2728 3567 
Q 2888 3303 2955 2917 
Q 3022 2531 3022 2031 
z
M 2472 1994 
Q 2472 2297 2450 2537 
Q 2428 2778 2386 2962 
Q 2344 3147 2276 3280 
Q 2209 3413 2115 3498 
Q 2022 3584 1901 3623 
Q 1781 3663 1631 3663 
Q 1366 3663 1200 3538 
Q 1034 3413 939 3194 
Q 844 2975 809 2681 
Q 775 2388 775 2050 
Q 775 1597 822 1280 
Q 869 963 970 763 
Q 1072 563 1230 472 
Q 1388 381 1613 381 
Q 1788 381 1920 437 
Q 2053 494 2148 598 
Q 2244 703 2306 850 
Q 2369 997 2406 1175 
Q 2444 1353 2458 1561 
Q 2472 1769 2472 1994 
z
" transform="scale(0.015625)"/>
       </defs>
       <use xlink:href="#Calibri-35"/>
       <use xlink:href="#Calibri-30" x="50.683594"/>
       <use xlink:href="#Calibri-30" x="101.367188"/>
      </g>
     </g>
    </g>
    <g id="ytick_2">
     <g id="line2d_19">
      <path d="M 32.314687 71.333269 
L 132.754687 71.333269 
" clip-path="url(#p653d9b0276)" style="fill: none; stroke-dasharray: 0.74,0.32; stroke-dashoffset: 0; stroke: #b0b0b0; stroke-opacity: 0.8; stroke-width: 0.2"/>
     </g>
     <g id="line2d_20">
      <g>
       <use xlink:href="#m59fec084ab" x="32.314687" y="71.333269" style="stroke: #000000; stroke-width: 0.3"/>
      </g>
     </g>
     <g id="line2d_21">
      <g>
       <use xlink:href="#mc798bf8ceb" x="132.754687" y="71.333269" style="stroke: #000000; stroke-width: 0.3"/>
      </g>
     </g>
     <g id="text_8">
      <!-- 600 -->
      <g transform="translate(19.690937 73.373738)scale(0.06 -0.06)">
       <defs>
        <path id="Calibri-36" d="M 2991 1309 
Q 2991 1044 2909 795 
Q 2828 547 2659 358 
Q 2491 169 2231 55 
Q 1972 -59 1619 -59 
Q 1366 -59 1172 3 
Q 978 66 834 181 
Q 691 297 595 465 
Q 500 634 442 850 
Q 384 1066 359 1322 
Q 334 1578 334 1872 
Q 334 2131 362 2397 
Q 391 2663 462 2909 
Q 534 3156 657 3373 
Q 781 3591 967 3752 
Q 1153 3913 1412 4006 
Q 1672 4100 2016 4100 
Q 2131 4100 2250 4086 
Q 2369 4072 2469 4048 
Q 2569 4025 2637 3997 
Q 2706 3969 2728 3951 
Q 2750 3934 2761 3914 
Q 2772 3894 2778 3870 
Q 2784 3847 2787 3817 
Q 2791 3788 2791 3744 
Q 2791 3688 2789 3647 
Q 2788 3606 2777 3581 
Q 2766 3556 2748 3543 
Q 2731 3531 2703 3531 
Q 2669 3531 2609 3553 
Q 2550 3575 2465 3601 
Q 2381 3628 2261 3650 
Q 2141 3672 1981 3672 
Q 1691 3672 1481 3553 
Q 1272 3434 1139 3234 
Q 1006 3034 942 2770 
Q 878 2506 869 2219 
Q 950 2266 1051 2312 
Q 1153 2359 1273 2396 
Q 1394 2434 1528 2457 
Q 1663 2481 1816 2481 
Q 2144 2481 2369 2392 
Q 2594 2303 2733 2145 
Q 2872 1988 2931 1773 
Q 2991 1559 2991 1309 
z
M 2447 1259 
Q 2447 1441 2411 1589 
Q 2375 1738 2290 1841 
Q 2206 1944 2065 2000 
Q 1925 2056 1719 2056 
Q 1603 2056 1487 2036 
Q 1372 2016 1264 1980 
Q 1156 1944 1057 1895 
Q 959 1847 878 1791 
Q 878 1388 929 1116 
Q 981 844 1079 680 
Q 1178 516 1325 445 
Q 1472 375 1669 375 
Q 1869 375 2016 450 
Q 2163 525 2259 651 
Q 2356 778 2401 936 
Q 2447 1094 2447 1259 
z
" transform="scale(0.015625)"/>
       </defs>
       <use xlink:href="#Calibri-36"/>
       <use xlink:href="#Calibri-30" x="50.683594"/>
       <use xlink:href="#Calibri-30" x="101.367188"/>
      </g>
     </g>
    </g>
    <g id="ytick_3">
     <g id="line2d_22">
      <path d="M 32.314687 55.810069 
L 132.754687 55.810069 
" clip-path="url(#p653d9b0276)" style="fill: none; stroke-dasharray: 0.74,0.32; stroke-dashoffset: 0; stroke: #b0b0b0; stroke-opacity: 0.8; stroke-width: 0.2"/>
     </g>
     <g id="line2d_23">
      <g>
       <use xlink:href="#m59fec084ab" x="32.314687" y="55.810069" style="stroke: #000000; stroke-width: 0.3"/>
      </g>
     </g>
     <g id="line2d_24">
      <g>
       <use xlink:href="#mc798bf8ceb" x="132.754687" y="55.810069" style="stroke: #000000; stroke-width: 0.3"/>
      </g>
     </g>
     <g id="text_9">
      <!-- 700 -->
      <g transform="translate(19.690937 57.850538)scale(0.06 -0.06)">
       <defs>
        <path id="Calibri-37" d="M 2947 3813 
Q 2947 3756 2942 3711 
Q 2938 3666 2930 3623 
Q 2922 3581 2908 3542 
Q 2894 3503 2875 3459 
L 1419 103 
Q 1403 66 1379 42 
Q 1356 19 1320 5 
Q 1284 -9 1228 -14 
Q 1172 -19 1091 -19 
Q 984 -19 925 -9 
Q 866 0 839 20 
Q 813 41 816 70 
Q 819 100 838 141 
L 2369 3572 
L 428 3572 
Q 369 3572 339 3634 
Q 309 3697 309 3809 
Q 309 3869 317 3912 
Q 325 3956 340 3986 
Q 356 4016 378 4030 
Q 400 4044 428 4044 
L 2784 4044 
Q 2828 4044 2861 4034 
Q 2894 4025 2911 3997 
Q 2928 3969 2937 3925 
Q 2947 3881 2947 3813 
z
" transform="scale(0.015625)"/>
       </defs>
       <use xlink:href="#Calibri-37"/>
       <use xlink:href="#Calibri-30" x="50.683594"/>
       <use xlink:href="#Calibri-30" x="101.367188"/>
      </g>
     </g>
    </g>
    <g id="ytick_4">
     <g id="line2d_25">
      <path d="M 32.314687 40.286869 
L 132.754687 40.286869 
" clip-path="url(#p653d9b0276)" style="fill: none; stroke-dasharray: 0.74,0.32; stroke-dashoffset: 0; stroke: #b0b0b0; stroke-opacity: 0.8; stroke-width: 0.2"/>
     </g>
     <g id="line2d_26">
      <g>
       <use xlink:href="#m59fec084ab" x="32.314687" y="40.286869" style="stroke: #000000; stroke-width: 0.3"/>
      </g>
     </g>
     <g id="line2d_27">
      <g>
       <use xlink:href="#mc798bf8ceb" x="132.754687" y="40.286869" style="stroke: #000000; stroke-width: 0.3"/>
      </g>
     </g>
     <g id="text_10">
      <!-- 800 -->
      <g transform="translate(19.690937 42.327337)scale(0.06 -0.06)">
       <defs>
        <path id="Calibri-38" d="M 2981 1038 
Q 2981 775 2887 570 
Q 2794 366 2617 225 
Q 2441 84 2181 12 
Q 1922 -59 1588 -59 
Q 1275 -59 1028 6 
Q 781 72 609 200 
Q 438 328 347 515 
Q 256 703 256 944 
Q 256 1134 318 1293 
Q 381 1453 498 1587 
Q 616 1722 787 1839 
Q 959 1956 1175 2063 
Q 988 2159 844 2267 
Q 700 2375 600 2501 
Q 500 2628 448 2772 
Q 397 2916 397 3084 
Q 397 3297 473 3483 
Q 550 3669 704 3806 
Q 859 3944 1098 4023 
Q 1338 4103 1656 4103 
Q 1963 4103 2186 4029 
Q 2409 3956 2554 3829 
Q 2700 3703 2769 3531 
Q 2838 3359 2838 3163 
Q 2838 3003 2786 2856 
Q 2734 2709 2634 2578 
Q 2534 2447 2389 2333 
Q 2244 2219 2056 2119 
Q 2278 2009 2451 1893 
Q 2625 1778 2742 1645 
Q 2859 1513 2920 1364 
Q 2981 1216 2981 1038 
z
M 2306 3113 
Q 2306 3244 2261 3350 
Q 2216 3456 2128 3531 
Q 2041 3606 1911 3645 
Q 1781 3684 1616 3684 
Q 1278 3684 1104 3531 
Q 931 3378 931 3113 
Q 931 2991 973 2886 
Q 1016 2781 1105 2687 
Q 1194 2594 1330 2505 
Q 1466 2416 1653 2319 
Q 1969 2481 2137 2678 
Q 2306 2875 2306 3113 
z
M 2438 981 
Q 2438 1125 2384 1242 
Q 2331 1359 2223 1461 
Q 2116 1563 1955 1658 
Q 1794 1753 1581 1856 
Q 1384 1759 1236 1662 
Q 1088 1566 992 1462 
Q 897 1359 848 1245 
Q 800 1131 800 994 
Q 800 691 1008 525 
Q 1216 359 1628 359 
Q 2028 359 2233 526 
Q 2438 694 2438 981 
z
" transform="scale(0.015625)"/>
       </defs>
       <use xlink:href="#Calibri-38"/>
       <use xlink:href="#Calibri-30" x="50.683594"/>
       <use xlink:href="#Calibri-30" x="101.367188"/>
      </g>
     </g>
    </g>
    <g id="ytick_5">
     <g id="line2d_28">
      <path d="M 32.314687 24.763669 
L 132.754687 24.763669 
" clip-path="url(#p653d9b0276)" style="fill: none; stroke-dasharray: 0.74,0.32; stroke-dashoffset: 0; stroke: #b0b0b0; stroke-opacity: 0.8; stroke-width: 0.2"/>
     </g>
     <g id="line2d_29">
      <g>
       <use xlink:href="#m59fec084ab" x="32.314687" y="24.763669" style="stroke: #000000; stroke-width: 0.3"/>
      </g>
     </g>
     <g id="line2d_30">
      <g>
       <use xlink:href="#mc798bf8ceb" x="132.754687" y="24.763669" style="stroke: #000000; stroke-width: 0.3"/>
      </g>
     </g>
     <g id="text_11">
      <!-- 900 -->
      <g transform="translate(19.690937 26.804138)scale(0.06 -0.06)">
       <defs>
        <path id="Calibri-39" d="M 2919 2181 
Q 2919 1919 2887 1650 
Q 2856 1381 2781 1132 
Q 2706 884 2579 667 
Q 2453 450 2261 287 
Q 2069 125 1805 33 
Q 1541 -59 1191 -59 
Q 1056 -59 929 -42 
Q 803 -25 701 0 
Q 600 25 531 53 
Q 463 81 431 109 
Q 400 138 386 186 
Q 372 234 372 316 
Q 372 384 376 425 
Q 381 466 390 487 
Q 400 509 417 517 
Q 434 525 459 525 
Q 494 525 556 501 
Q 619 478 714 450 
Q 809 422 937 398 
Q 1066 375 1225 375 
Q 1528 375 1745 492 
Q 1963 609 2100 806 
Q 2238 1003 2306 1262 
Q 2375 1522 2381 1809 
Q 2216 1713 1984 1638 
Q 1753 1563 1453 1563 
Q 1116 1563 886 1655 
Q 656 1747 517 1906 
Q 378 2066 317 2284 
Q 256 2503 256 2763 
Q 256 3031 334 3273 
Q 413 3516 578 3700 
Q 744 3884 1000 3993 
Q 1256 4103 1613 4103 
Q 1866 4103 2061 4039 
Q 2256 3975 2400 3854 
Q 2544 3734 2644 3564 
Q 2744 3394 2805 3178 
Q 2866 2963 2892 2711 
Q 2919 2459 2919 2181 
z
M 2372 2241 
Q 2372 2641 2319 2914 
Q 2266 3188 2162 3356 
Q 2059 3525 1909 3600 
Q 1759 3675 1563 3675 
Q 1359 3675 1215 3601 
Q 1072 3528 980 3404 
Q 888 3281 844 3125 
Q 800 2969 800 2803 
Q 800 2619 839 2466 
Q 878 2313 965 2206 
Q 1053 2100 1193 2042 
Q 1334 1984 1541 1984 
Q 1775 1984 1994 2054 
Q 2213 2125 2372 2241 
z
" transform="scale(0.015625)"/>
       </defs>
       <use xlink:href="#Calibri-39"/>
       <use xlink:href="#Calibri-30" x="50.683594"/>
       <use xlink:href="#Calibri-30" x="101.367188"/>
      </g>
     </g>
    </g>
    <g id="ytick_6">
     <g id="line2d_31">
      <path d="M 32.314687 9.240469 
L 132.754687 9.240469 
" clip-path="url(#p653d9b0276)" style="fill: none; stroke-dasharray: 0.74,0.32; stroke-dashoffset: 0; stroke: #b0b0b0; stroke-opacity: 0.8; stroke-width: 0.2"/>
     </g>
     <g id="line2d_32">
      <g>
       <use xlink:href="#m59fec084ab" x="32.314687" y="9.240469" style="stroke: #000000; stroke-width: 0.3"/>
      </g>
     </g>
     <g id="line2d_33">
      <g>
       <use xlink:href="#mc798bf8ceb" x="132.754687" y="9.240469" style="stroke: #000000; stroke-width: 0.3"/>
      </g>
     </g>
     <g id="text_12">
      <!-- 1000 -->
      <g transform="translate(16.649687 11.280938)scale(0.06 -0.06)">
       <use xlink:href="#Calibri-31"/>
       <use xlink:href="#Calibri-30" x="50.683594"/>
       <use xlink:href="#Calibri-30" x="101.367188"/>
       <use xlink:href="#Calibri-30" x="152.050781"/>
      </g>
     </g>
    </g>
    <g id="text_13">
     <!-- Times(secs) -->
     <g transform="translate(11.36625 62.438625)rotate(-90)scale(0.06 -0.06)">
      <defs>
       <path id="TimesNewRomanPSMT-54" d="M 3703 4238 
L 3750 3244 
L 3631 3244 
Q 3597 3506 3538 3619 
Q 3441 3800 3280 3886 
Q 3119 3972 2856 3972 
L 2259 3972 
L 2259 734 
Q 2259 344 2344 247 
Q 2463 116 2709 116 
L 2856 116 
L 2856 0 
L 1059 0 
L 1059 116 
L 1209 116 
Q 1478 116 1591 278 
Q 1659 378 1659 734 
L 1659 3972 
L 1150 3972 
Q 853 3972 728 3928 
Q 566 3869 450 3700 
Q 334 3531 313 3244 
L 194 3244 
L 244 4238 
L 3703 4238 
z
" transform="scale(0.015625)"/>
       <path id="TimesNewRomanPSMT-69" d="M 928 4444 
Q 1059 4444 1151 4351 
Q 1244 4259 1244 4128 
Q 1244 3997 1151 3903 
Q 1059 3809 928 3809 
Q 797 3809 703 3903 
Q 609 3997 609 4128 
Q 609 4259 701 4351 
Q 794 4444 928 4444 
z
M 1188 2947 
L 1188 647 
Q 1188 378 1227 289 
Q 1266 200 1342 156 
Q 1419 113 1622 113 
L 1622 0 
L 231 0 
L 231 113 
Q 441 113 512 153 
Q 584 194 626 287 
Q 669 381 669 647 
L 669 1750 
Q 669 2216 641 2353 
Q 619 2453 572 2492 
Q 525 2531 444 2531 
Q 356 2531 231 2484 
L 188 2597 
L 1050 2947 
L 1188 2947 
z
" transform="scale(0.015625)"/>
       <path id="TimesNewRomanPSMT-6d" d="M 1050 2338 
Q 1363 2650 1419 2697 
Q 1559 2816 1721 2881 
Q 1884 2947 2044 2947 
Q 2313 2947 2506 2790 
Q 2700 2634 2766 2338 
Q 3088 2713 3309 2830 
Q 3531 2947 3766 2947 
Q 3994 2947 4170 2830 
Q 4347 2713 4450 2447 
Q 4519 2266 4519 1878 
L 4519 647 
Q 4519 378 4559 278 
Q 4591 209 4675 161 
Q 4759 113 4950 113 
L 4950 0 
L 3538 0 
L 3538 113 
L 3597 113 
Q 3781 113 3884 184 
Q 3956 234 3988 344 
Q 4000 397 4000 647 
L 4000 1878 
Q 4000 2228 3916 2372 
Q 3794 2572 3525 2572 
Q 3359 2572 3192 2489 
Q 3025 2406 2788 2181 
L 2781 2147 
L 2788 2013 
L 2788 647 
Q 2788 353 2820 281 
Q 2853 209 2943 161 
Q 3034 113 3253 113 
L 3253 0 
L 1806 0 
L 1806 113 
Q 2044 113 2133 169 
Q 2222 225 2256 338 
Q 2272 391 2272 647 
L 2272 1878 
Q 2272 2228 2169 2381 
Q 2031 2581 1784 2581 
Q 1616 2581 1450 2491 
Q 1191 2353 1050 2181 
L 1050 647 
Q 1050 366 1089 281 
Q 1128 197 1204 155 
Q 1281 113 1516 113 
L 1516 0 
L 100 0 
L 100 113 
Q 297 113 375 155 
Q 453 197 493 289 
Q 534 381 534 647 
L 534 1741 
Q 534 2213 506 2350 
Q 484 2453 437 2492 
Q 391 2531 309 2531 
Q 222 2531 100 2484 
L 53 2597 
L 916 2947 
L 1050 2947 
L 1050 2338 
z
" transform="scale(0.015625)"/>
       <path id="TimesNewRomanPSMT-65" d="M 681 1784 
Q 678 1147 991 784 
Q 1303 422 1725 422 
Q 2006 422 2214 576 
Q 2422 731 2563 1106 
L 2659 1044 
Q 2594 616 2278 264 
Q 1963 -88 1488 -88 
Q 972 -88 605 314 
Q 238 716 238 1394 
Q 238 2128 614 2539 
Q 991 2950 1559 2950 
Q 2041 2950 2350 2633 
Q 2659 2316 2659 1784 
L 681 1784 
z
M 681 1966 
L 2006 1966 
Q 1991 2241 1941 2353 
Q 1863 2528 1708 2628 
Q 1553 2728 1384 2728 
Q 1125 2728 920 2526 
Q 716 2325 681 1966 
z
" transform="scale(0.015625)"/>
       <path id="TimesNewRomanPSMT-73" d="M 2050 2947 
L 2050 1972 
L 1947 1972 
Q 1828 2431 1642 2597 
Q 1456 2763 1169 2763 
Q 950 2763 815 2647 
Q 681 2531 681 2391 
Q 681 2216 781 2091 
Q 878 1963 1175 1819 
L 1631 1597 
Q 2266 1288 2266 781 
Q 2266 391 1970 151 
Q 1675 -88 1309 -88 
Q 1047 -88 709 6 
Q 606 38 541 38 
Q 469 38 428 -44 
L 325 -44 
L 325 978 
L 428 978 
Q 516 541 762 319 
Q 1009 97 1316 97 
Q 1531 97 1667 223 
Q 1803 350 1803 528 
Q 1803 744 1651 891 
Q 1500 1038 1047 1263 
Q 594 1488 453 1669 
Q 313 1847 313 2119 
Q 313 2472 555 2709 
Q 797 2947 1181 2947 
Q 1350 2947 1591 2875 
Q 1750 2828 1803 2828 
Q 1853 2828 1881 2850 
Q 1909 2872 1947 2947 
L 2050 2947 
z
" transform="scale(0.015625)"/>
       <path id="TimesNewRomanPSMT-28" d="M 1988 -1253 
L 1988 -1369 
Q 1516 -1131 1200 -813 
Q 750 -359 506 256 
Q 263 872 263 1534 
Q 263 2503 741 3301 
Q 1219 4100 1988 4444 
L 1988 4313 
Q 1603 4100 1356 3731 
Q 1109 3363 987 2797 
Q 866 2231 866 1616 
Q 866 947 969 400 
Q 1050 -31 1165 -292 
Q 1281 -553 1476 -793 
Q 1672 -1034 1988 -1253 
z
" transform="scale(0.015625)"/>
       <path id="TimesNewRomanPSMT-63" d="M 2631 1088 
Q 2516 522 2178 217 
Q 1841 -88 1431 -88 
Q 944 -88 581 321 
Q 219 731 219 1428 
Q 219 2103 620 2525 
Q 1022 2947 1584 2947 
Q 2006 2947 2278 2723 
Q 2550 2500 2550 2259 
Q 2550 2141 2473 2067 
Q 2397 1994 2259 1994 
Q 2075 1994 1981 2113 
Q 1928 2178 1911 2362 
Q 1894 2547 1784 2644 
Q 1675 2738 1481 2738 
Q 1169 2738 978 2506 
Q 725 2200 725 1697 
Q 725 1184 976 792 
Q 1228 400 1656 400 
Q 1963 400 2206 609 
Q 2378 753 2541 1131 
L 2631 1088 
z
" transform="scale(0.015625)"/>
       <path id="TimesNewRomanPSMT-29" d="M 144 4313 
L 144 4444 
Q 619 4209 934 3891 
Q 1381 3434 1625 2820 
Q 1869 2206 1869 1541 
Q 1869 572 1392 -226 
Q 916 -1025 144 -1369 
L 144 -1253 
Q 528 -1038 776 -670 
Q 1025 -303 1145 264 
Q 1266 831 1266 1447 
Q 1266 2113 1163 2663 
Q 1084 3094 967 3353 
Q 850 3613 656 3853 
Q 463 4094 144 4313 
z
" transform="scale(0.015625)"/>
      </defs>
      <use xlink:href="#TimesNewRomanPSMT-54"/>
      <use xlink:href="#TimesNewRomanPSMT-69" x="57.583984"/>
      <use xlink:href="#TimesNewRomanPSMT-6d" x="85.367188"/>
      <use xlink:href="#TimesNewRomanPSMT-65" x="163.150391"/>
      <use xlink:href="#TimesNewRomanPSMT-73" x="207.535156"/>
      <use xlink:href="#TimesNewRomanPSMT-28" x="246.451172"/>
      <use xlink:href="#TimesNewRomanPSMT-73" x="279.751953"/>
      <use xlink:href="#TimesNewRomanPSMT-65" x="318.667969"/>
      <use xlink:href="#TimesNewRomanPSMT-63" x="363.052734"/>
      <use xlink:href="#TimesNewRomanPSMT-73" x="407.4375"/>
      <use xlink:href="#TimesNewRomanPSMT-29" x="446.353516"/>
     </g>
    </g>
   </g>
   <g id="patch_3">
    <path d="M 32.314687 86.856469 
L 32.314687 9.240469 
" style="fill: none; stroke: #000000; stroke-width: 0.3; stroke-linejoin: miter; stroke-linecap: square"/>
   </g>
   <g id="patch_4">
    <path d="M 132.754687 86.856469 
L 132.754687 9.240469 
" style="fill: none; stroke: #000000; stroke-width: 0.3; stroke-linejoin: miter; stroke-linecap: square"/>
   </g>
   <g id="patch_5">
    <path d="M 32.314687 86.856469 
L 132.754687 86.856469 
" style="fill: none; stroke: #000000; stroke-width: 0.3; stroke-linejoin: miter; stroke-linecap: square"/>
   </g>
   <g id="patch_6">
    <path d="M 32.314687 9.240469 
L 132.754687 9.240469 
" style="fill: none; stroke: #000000; stroke-width: 0.3; stroke-linejoin: miter; stroke-linecap: square"/>
   </g>
   <g id="legend_1">
    <g id="patch_7">
     <path d="M 35.324687 29.363125 
L 131.034625 29.363125 
Q 131.894625 29.363125 131.894625 28.503125 
L 131.894625 12.250469 
Q 131.894625 11.390469 131.034625 11.390469 
L 35.324687 11.390469 
Q 34.464687 11.390469 34.464687 12.250469 
L 34.464687 28.503125 
Q 34.464687 29.363125 35.324687 29.363125 
L 35.324687 29.363125 
z
" style="fill: none; opacity: 0.1; stroke: #000000; stroke-width: 0.2; stroke-linejoin: miter"/>
    </g>
    <g id="line2d_34">
     <path d="M 36.184687 14.735734 
L 40.484687 14.735734 
L 44.784687 14.735734 
" style="fill: none; stroke: #000000; stroke-width: 0.8; stroke-linecap: square"/>
     <defs>
      <path id="m323ba4be34" d="M -1.5 1.5 
L 1.5 -1.5 
M -1.5 -1.5 
L 1.5 1.5 
" style="stroke: #000000; stroke-width: 0.8"/>
     </defs>
     <g>
      <use xlink:href="#m323ba4be34" x="40.484687" y="14.735734" style="fill-opacity: 0; stroke: #000000; stroke-width: 0.8"/>
     </g>
    </g>
    <g id="text_14">
     <!-- Random -->
     <g transform="translate(45.773687 16.240734)scale(0.043 -0.043)">
      <defs>
       <path id="ArialMT-52" d="M 503 0 
L 503 4581 
L 2534 4581 
Q 3147 4581 3465 4457 
Q 3784 4334 3975 4021 
Q 4166 3709 4166 3331 
Q 4166 2844 3850 2509 
Q 3534 2175 2875 2084 
Q 3116 1969 3241 1856 
Q 3506 1613 3744 1247 
L 4541 0 
L 3778 0 
L 3172 953 
Q 2906 1366 2734 1584 
Q 2563 1803 2427 1890 
Q 2291 1978 2150 2013 
Q 2047 2034 1813 2034 
L 1109 2034 
L 1109 0 
L 503 0 
z
M 1109 2559 
L 2413 2559 
Q 2828 2559 3062 2645 
Q 3297 2731 3419 2920 
Q 3541 3109 3541 3331 
Q 3541 3656 3305 3865 
Q 3069 4075 2559 4075 
L 1109 4075 
L 1109 2559 
z
" transform="scale(0.015625)"/>
       <path id="ArialMT-61" d="M 2588 409 
Q 2275 144 1986 34 
Q 1697 -75 1366 -75 
Q 819 -75 525 192 
Q 231 459 231 875 
Q 231 1119 342 1320 
Q 453 1522 633 1644 
Q 813 1766 1038 1828 
Q 1203 1872 1538 1913 
Q 2219 1994 2541 2106 
Q 2544 2222 2544 2253 
Q 2544 2597 2384 2738 
Q 2169 2928 1744 2928 
Q 1347 2928 1158 2789 
Q 969 2650 878 2297 
L 328 2372 
Q 403 2725 575 2942 
Q 747 3159 1072 3276 
Q 1397 3394 1825 3394 
Q 2250 3394 2515 3294 
Q 2781 3194 2906 3042 
Q 3031 2891 3081 2659 
Q 3109 2516 3109 2141 
L 3109 1391 
Q 3109 606 3145 398 
Q 3181 191 3288 0 
L 2700 0 
Q 2613 175 2588 409 
z
M 2541 1666 
Q 2234 1541 1622 1453 
Q 1275 1403 1131 1340 
Q 988 1278 909 1158 
Q 831 1038 831 891 
Q 831 666 1001 516 
Q 1172 366 1500 366 
Q 1825 366 2078 508 
Q 2331 650 2450 897 
Q 2541 1088 2541 1459 
L 2541 1666 
z
" transform="scale(0.015625)"/>
       <path id="ArialMT-6e" d="M 422 0 
L 422 3319 
L 928 3319 
L 928 2847 
Q 1294 3394 1984 3394 
Q 2284 3394 2536 3286 
Q 2788 3178 2913 3003 
Q 3038 2828 3088 2588 
Q 3119 2431 3119 2041 
L 3119 0 
L 2556 0 
L 2556 2019 
Q 2556 2363 2490 2533 
Q 2425 2703 2258 2804 
Q 2091 2906 1866 2906 
Q 1506 2906 1245 2678 
Q 984 2450 984 1813 
L 984 0 
L 422 0 
z
" transform="scale(0.015625)"/>
       <path id="ArialMT-64" d="M 2575 0 
L 2575 419 
Q 2259 -75 1647 -75 
Q 1250 -75 917 144 
Q 584 363 401 755 
Q 219 1147 219 1656 
Q 219 2153 384 2558 
Q 550 2963 881 3178 
Q 1213 3394 1622 3394 
Q 1922 3394 2156 3267 
Q 2391 3141 2538 2938 
L 2538 4581 
L 3097 4581 
L 3097 0 
L 2575 0 
z
M 797 1656 
Q 797 1019 1065 703 
Q 1334 388 1700 388 
Q 2069 388 2326 689 
Q 2584 991 2584 1609 
Q 2584 2291 2321 2609 
Q 2059 2928 1675 2928 
Q 1300 2928 1048 2622 
Q 797 2316 797 1656 
z
" transform="scale(0.015625)"/>
       <path id="ArialMT-6f" d="M 213 1659 
Q 213 2581 725 3025 
Q 1153 3394 1769 3394 
Q 2453 3394 2887 2945 
Q 3322 2497 3322 1706 
Q 3322 1066 3130 698 
Q 2938 331 2570 128 
Q 2203 -75 1769 -75 
Q 1072 -75 642 372 
Q 213 819 213 1659 
z
M 791 1659 
Q 791 1022 1069 705 
Q 1347 388 1769 388 
Q 2188 388 2466 706 
Q 2744 1025 2744 1678 
Q 2744 2294 2464 2611 
Q 2184 2928 1769 2928 
Q 1347 2928 1069 2612 
Q 791 2297 791 1659 
z
" transform="scale(0.015625)"/>
       <path id="ArialMT-6d" d="M 422 0 
L 422 3319 
L 925 3319 
L 925 2853 
Q 1081 3097 1340 3245 
Q 1600 3394 1931 3394 
Q 2300 3394 2536 3241 
Q 2772 3088 2869 2813 
Q 3263 3394 3894 3394 
Q 4388 3394 4653 3120 
Q 4919 2847 4919 2278 
L 4919 0 
L 4359 0 
L 4359 2091 
Q 4359 2428 4304 2576 
Q 4250 2725 4106 2815 
Q 3963 2906 3769 2906 
Q 3419 2906 3187 2673 
Q 2956 2441 2956 1928 
L 2956 0 
L 2394 0 
L 2394 2156 
Q 2394 2531 2256 2718 
Q 2119 2906 1806 2906 
Q 1569 2906 1367 2781 
Q 1166 2656 1075 2415 
Q 984 2175 984 1722 
L 984 0 
L 422 0 
z
" transform="scale(0.015625)"/>
      </defs>
      <use xlink:href="#ArialMT-52"/>
      <use xlink:href="#ArialMT-61" x="72.216797"/>
      <use xlink:href="#ArialMT-6e" x="127.832031"/>
      <use xlink:href="#ArialMT-64" x="183.447266"/>
      <use xlink:href="#ArialMT-6f" x="239.0625"/>
      <use xlink:href="#ArialMT-6d" x="294.677734"/>
     </g>
    </g>
    <g id="line2d_35">
     <path d="M 36.184687 20.010625 
L 40.484687 20.010625 
L 44.784687 20.010625 
" style="fill: none; stroke: #c71585; stroke-width: 0.8; stroke-linecap: square"/>
     <defs>
      <path id="m81f63b897c" d="M 0 -1.25 
L -1.25 1.25 
L 1.25 1.25 
z
" style="stroke: #c71585; stroke-width: 0.8; stroke-linejoin: miter"/>
     </defs>
     <g>
      <use xlink:href="#m81f63b897c" x="40.484687" y="20.010625" style="fill: #c71585; stroke: #c71585; stroke-width: 0.8; stroke-linejoin: miter"/>
     </g>
    </g>
    <g id="text_15">
     <!-- Greedy -->
     <g transform="translate(45.773687 21.515625)scale(0.043 -0.043)">
      <defs>
       <path id="ArialMT-47" d="M 2638 1797 
L 2638 2334 
L 4578 2338 
L 4578 638 
Q 4131 281 3656 101 
Q 3181 -78 2681 -78 
Q 2006 -78 1454 211 
Q 903 500 622 1047 
Q 341 1594 341 2269 
Q 341 2938 620 3517 
Q 900 4097 1425 4378 
Q 1950 4659 2634 4659 
Q 3131 4659 3532 4498 
Q 3934 4338 4162 4050 
Q 4391 3763 4509 3300 
L 3963 3150 
Q 3859 3500 3706 3700 
Q 3553 3900 3268 4020 
Q 2984 4141 2638 4141 
Q 2222 4141 1919 4014 
Q 1616 3888 1430 3681 
Q 1244 3475 1141 3228 
Q 966 2803 966 2306 
Q 966 1694 1177 1281 
Q 1388 869 1791 669 
Q 2194 469 2647 469 
Q 3041 469 3416 620 
Q 3791 772 3984 944 
L 3984 1797 
L 2638 1797 
z
" transform="scale(0.015625)"/>
       <path id="ArialMT-72" d="M 416 0 
L 416 3319 
L 922 3319 
L 922 2816 
Q 1116 3169 1280 3281 
Q 1444 3394 1641 3394 
Q 1925 3394 2219 3213 
L 2025 2691 
Q 1819 2813 1613 2813 
Q 1428 2813 1281 2702 
Q 1134 2591 1072 2394 
Q 978 2094 978 1738 
L 978 0 
L 416 0 
z
" transform="scale(0.015625)"/>
       <path id="ArialMT-65" d="M 2694 1069 
L 3275 997 
Q 3138 488 2766 206 
Q 2394 -75 1816 -75 
Q 1088 -75 661 373 
Q 234 822 234 1631 
Q 234 2469 665 2931 
Q 1097 3394 1784 3394 
Q 2450 3394 2872 2941 
Q 3294 2488 3294 1666 
Q 3294 1616 3291 1516 
L 816 1516 
Q 847 969 1125 678 
Q 1403 388 1819 388 
Q 2128 388 2347 550 
Q 2566 713 2694 1069 
z
M 847 1978 
L 2700 1978 
Q 2663 2397 2488 2606 
Q 2219 2931 1791 2931 
Q 1403 2931 1139 2672 
Q 875 2413 847 1978 
z
" transform="scale(0.015625)"/>
       <path id="ArialMT-79" d="M 397 -1278 
L 334 -750 
Q 519 -800 656 -800 
Q 844 -800 956 -737 
Q 1069 -675 1141 -563 
Q 1194 -478 1313 -144 
Q 1328 -97 1363 -6 
L 103 3319 
L 709 3319 
L 1400 1397 
Q 1534 1031 1641 628 
Q 1738 1016 1872 1384 
L 2581 3319 
L 3144 3319 
L 1881 -56 
Q 1678 -603 1566 -809 
Q 1416 -1088 1222 -1217 
Q 1028 -1347 759 -1347 
Q 597 -1347 397 -1278 
z
" transform="scale(0.015625)"/>
      </defs>
      <use xlink:href="#ArialMT-47"/>
      <use xlink:href="#ArialMT-72" x="77.783203"/>
      <use xlink:href="#ArialMT-65" x="111.083984"/>
      <use xlink:href="#ArialMT-65" x="166.699219"/>
      <use xlink:href="#ArialMT-64" x="222.314453"/>
      <use xlink:href="#ArialMT-79" x="277.929688"/>
     </g>
    </g>
    <g id="line2d_36">
     <path d="M 36.184687 25.2835 
L 40.484687 25.2835 
L 44.784687 25.2835 
" style="fill: none; stroke: #00008b; stroke-width: 0.8; stroke-linecap: square"/>
     <defs>
      <path id="m52c3c3213f" d="M 0 1.5 
C 0.397805 1.5 0.77937 1.341951 1.06066 1.06066 
C 1.341951 0.77937 1.5 0.397805 1.5 0 
C 1.5 -0.397805 1.341951 -0.77937 1.06066 -1.06066 
C 0.77937 -1.341951 0.397805 -1.5 0 -1.5 
C -0.397805 -1.5 -0.77937 -1.341951 -1.06066 -1.06066 
C -1.341951 -0.77937 -1.5 -0.397805 -1.5 0 
C -1.5 0.397805 -1.341951 0.77937 -1.06066 1.06066 
C -0.77937 1.341951 -0.397805 1.5 0 1.5 
z
" style="stroke: #00008b; stroke-width: 0.8"/>
     </defs>
     <g>
      <use xlink:href="#m52c3c3213f" x="40.484687" y="25.2835" style="fill-opacity: 0; stroke: #00008b; stroke-width: 0.8"/>
     </g>
    </g>
    <g id="text_16">
     <!-- Cloest -->
     <g transform="translate(45.773687 26.7885)scale(0.043 -0.043)">
      <defs>
       <path id="ArialMT-43" d="M 3763 1606 
L 4369 1453 
Q 4178 706 3683 314 
Q 3188 -78 2472 -78 
Q 1731 -78 1267 223 
Q 803 525 561 1097 
Q 319 1669 319 2325 
Q 319 3041 592 3573 
Q 866 4106 1370 4382 
Q 1875 4659 2481 4659 
Q 3169 4659 3637 4309 
Q 4106 3959 4291 3325 
L 3694 3184 
Q 3534 3684 3231 3912 
Q 2928 4141 2469 4141 
Q 1941 4141 1586 3887 
Q 1231 3634 1087 3207 
Q 944 2781 944 2328 
Q 944 1744 1114 1308 
Q 1284 872 1643 656 
Q 2003 441 2422 441 
Q 2931 441 3284 734 
Q 3638 1028 3763 1606 
z
" transform="scale(0.015625)"/>
       <path id="ArialMT-6c" d="M 409 0 
L 409 4581 
L 972 4581 
L 972 0 
L 409 0 
z
" transform="scale(0.015625)"/>
       <path id="ArialMT-73" d="M 197 991 
L 753 1078 
Q 800 744 1014 566 
Q 1228 388 1613 388 
Q 2000 388 2187 545 
Q 2375 703 2375 916 
Q 2375 1106 2209 1216 
Q 2094 1291 1634 1406 
Q 1016 1563 777 1677 
Q 538 1791 414 1992 
Q 291 2194 291 2438 
Q 291 2659 392 2848 
Q 494 3038 669 3163 
Q 800 3259 1026 3326 
Q 1253 3394 1513 3394 
Q 1903 3394 2198 3281 
Q 2494 3169 2634 2976 
Q 2775 2784 2828 2463 
L 2278 2388 
Q 2241 2644 2061 2787 
Q 1881 2931 1553 2931 
Q 1166 2931 1000 2803 
Q 834 2675 834 2503 
Q 834 2394 903 2306 
Q 972 2216 1119 2156 
Q 1203 2125 1616 2013 
Q 2213 1853 2448 1751 
Q 2684 1650 2818 1456 
Q 2953 1263 2953 975 
Q 2953 694 2789 445 
Q 2625 197 2315 61 
Q 2006 -75 1616 -75 
Q 969 -75 630 194 
Q 291 463 197 991 
z
" transform="scale(0.015625)"/>
       <path id="ArialMT-74" d="M 1650 503 
L 1731 6 
Q 1494 -44 1306 -44 
Q 1000 -44 831 53 
Q 663 150 594 308 
Q 525 466 525 972 
L 525 2881 
L 113 2881 
L 113 3319 
L 525 3319 
L 525 4141 
L 1084 4478 
L 1084 3319 
L 1650 3319 
L 1650 2881 
L 1084 2881 
L 1084 941 
Q 1084 700 1114 631 
Q 1144 563 1211 522 
Q 1278 481 1403 481 
Q 1497 481 1650 503 
z
" transform="scale(0.015625)"/>
      </defs>
      <use xlink:href="#ArialMT-43"/>
      <use xlink:href="#ArialMT-6c" x="72.216797"/>
      <use xlink:href="#ArialMT-6f" x="94.433594"/>
      <use xlink:href="#ArialMT-65" x="150.048828"/>
      <use xlink:href="#ArialMT-73" x="205.664062"/>
      <use xlink:href="#ArialMT-74" x="255.664062"/>
     </g>
    </g>
    <g id="line2d_37">
     <path d="M 64.175672 14.735734 
L 68.475672 14.735734 
L 72.775672 14.735734 
" style="fill: none; stroke: #708090; stroke-width: 0.8; stroke-linecap: square"/>
     <defs>
      <path id="md83ae7f009" d="M 0 2.12132 
L 1.272792 0 
L 0 -2.12132 
L -1.272792 0 
z
" style="stroke: #708090; stroke-width: 0.8; stroke-linejoin: miter"/>
     </defs>
     <g>
      <use xlink:href="#md83ae7f009" x="68.475672" y="14.735734" style="fill-opacity: 0; stroke: #708090; stroke-width: 0.8; stroke-linejoin: miter"/>
     </g>
    </g>
    <g id="text_17">
     <!-- M-Greedy -->
     <g transform="translate(73.764672 16.240734)scale(0.043 -0.043)">
      <defs>
       <path id="ArialMT-4d" d="M 475 0 
L 475 4581 
L 1388 4581 
L 2472 1338 
Q 2622 884 2691 659 
Q 2769 909 2934 1394 
L 4031 4581 
L 4847 4581 
L 4847 0 
L 4263 0 
L 4263 3834 
L 2931 0 
L 2384 0 
L 1059 3900 
L 1059 0 
L 475 0 
z
" transform="scale(0.015625)"/>
       <path id="ArialMT-2d" d="M 203 1375 
L 203 1941 
L 1931 1941 
L 1931 1375 
L 203 1375 
z
" transform="scale(0.015625)"/>
      </defs>
      <use xlink:href="#ArialMT-4d"/>
      <use xlink:href="#ArialMT-2d" x="83.300781"/>
      <use xlink:href="#ArialMT-47" x="116.601562"/>
      <use xlink:href="#ArialMT-72" x="194.384766"/>
      <use xlink:href="#ArialMT-65" x="227.685547"/>
      <use xlink:href="#ArialMT-65" x="283.300781"/>
      <use xlink:href="#ArialMT-64" x="338.916016"/>
      <use xlink:href="#ArialMT-79" x="394.53125"/>
     </g>
    </g>
    <g id="line2d_38">
     <path d="M 64.175672 20.008609 
L 68.475672 20.008609 
L 72.775672 20.008609 
" style="fill: none; stroke: #ff4500; stroke-width: 0.8; stroke-linecap: square"/>
     <defs>
      <path id="m5d058449b8" d="M -1.25 1.25 
L 1.25 1.25 
L 1.25 -1.25 
L -1.25 -1.25 
z
" style="stroke: #ff4500; stroke-width: 0.8; stroke-linejoin: miter"/>
     </defs>
     <g>
      <use xlink:href="#m5d058449b8" x="68.475672" y="20.008609" style="fill-opacity: 0; stroke: #ff4500; stroke-width: 0.8; stroke-linejoin: miter"/>
     </g>
    </g>
    <g id="text_18">
     <!-- G-Game -->
     <g transform="translate(73.764672 21.513609)scale(0.043 -0.043)">
      <use xlink:href="#ArialMT-47"/>
      <use xlink:href="#ArialMT-2d" x="77.783203"/>
      <use xlink:href="#ArialMT-47" x="111.083984"/>
      <use xlink:href="#ArialMT-61" x="188.867188"/>
      <use xlink:href="#ArialMT-6d" x="244.482422"/>
      <use xlink:href="#ArialMT-65" x="327.783203"/>
     </g>
    </g>
    <g id="line2d_39">
     <path d="M 64.175672 25.231094 
L 68.475672 25.231094 
L 72.775672 25.231094 
" style="fill: none; stroke-dasharray: 2.96,1.28; stroke-dashoffset: 0; stroke: #228b22; stroke-width: 0.8"/>
     <defs>
      <path id="m335df65dee" d="M -1.25 1.25 
L 1.25 1.25 
L 1.25 -1.25 
L -1.25 -1.25 
z
" style="stroke: #228b22; stroke-width: 0.8; stroke-linejoin: miter"/>
     </defs>
     <g>
      <use xlink:href="#m335df65dee" x="68.475672" y="25.231094" style="fill-opacity: 0; stroke: #228b22; stroke-width: 0.8; stroke-linejoin: miter"/>
     </g>
    </g>
    <g id="text_19">
     <!-- G-Game-its -->
     <g transform="translate(73.764672 26.736094)scale(0.043 -0.043)">
      <defs>
       <path id="ArialMT-69" d="M 425 3934 
L 425 4581 
L 988 4581 
L 988 3934 
L 425 3934 
z
M 425 0 
L 425 3319 
L 988 3319 
L 988 0 
L 425 0 
z
" transform="scale(0.015625)"/>
      </defs>
      <use xlink:href="#ArialMT-47"/>
      <use xlink:href="#ArialMT-2d" x="77.783203"/>
      <use xlink:href="#ArialMT-47" x="111.083984"/>
      <use xlink:href="#ArialMT-61" x="188.867188"/>
      <use xlink:href="#ArialMT-6d" x="244.482422"/>
      <use xlink:href="#ArialMT-65" x="327.783203"/>
      <use xlink:href="#ArialMT-2d" x="383.398438"/>
      <use xlink:href="#ArialMT-69" x="416.699219"/>
      <use xlink:href="#ArialMT-74" x="438.916016"/>
      <use xlink:href="#ArialMT-73" x="466.699219"/>
     </g>
    </g>
    <g id="line2d_40">
     <path d="M 98.131563 14.735734 
L 102.431562 14.735734 
L 106.731562 14.735734 
" style="fill: none; stroke: #ffa500; stroke-width: 0.8; stroke-linecap: square"/>
     <defs>
      <path id="m36bc74190a" d="M 0 -1.5 
L -0.336771 -0.463525 
L -1.426585 -0.463525 
L -0.544907 0.177051 
L -0.881678 1.213525 
L -0 0.572949 
L 0.881678 1.213525 
L 0.544907 0.177051 
L 1.426585 -0.463525 
L 0.336771 -0.463525 
z
" style="stroke: #ffa500; stroke-width: 0.8; stroke-linejoin: bevel"/>
     </defs>
     <g>
      <use xlink:href="#m36bc74190a" x="102.431562" y="14.735734" style="fill-opacity: 0; stroke: #ffa500; stroke-width: 0.8; stroke-linejoin: bevel"/>
     </g>
    </g>
    <g id="text_20">
     <!-- M-Game -->
     <g transform="translate(107.720562 16.240734)scale(0.043 -0.043)">
      <use xlink:href="#ArialMT-4d"/>
      <use xlink:href="#ArialMT-2d" x="83.300781"/>
      <use xlink:href="#ArialMT-47" x="116.601562"/>
      <use xlink:href="#ArialMT-61" x="194.384766"/>
      <use xlink:href="#ArialMT-6d" x="250"/>
      <use xlink:href="#ArialMT-65" x="333.300781"/>
     </g>
    </g>
    <g id="line2d_41">
     <path d="M 98.131563 19.958219 
L 102.431562 19.958219 
L 106.731562 19.958219 
" style="fill: none; stroke-dasharray: 2.96,1.28; stroke-dashoffset: 0; stroke: #ff69b4; stroke-width: 0.8"/>
     <defs>
      <path id="mca7bab1083" d="M 0 -1.5 
L -0.336771 -0.463525 
L -1.426585 -0.463525 
L -0.544907 0.177051 
L -0.881678 1.213525 
L -0 0.572949 
L 0.881678 1.213525 
L 0.544907 0.177051 
L 1.426585 -0.463525 
L 0.336771 -0.463525 
z
" style="stroke: #ff69b4; stroke-width: 0.8; stroke-linejoin: bevel"/>
     </defs>
     <g>
      <use xlink:href="#mca7bab1083" x="102.431562" y="19.958219" style="fill-opacity: 0; stroke: #ff69b4; stroke-width: 0.8; stroke-linejoin: bevel"/>
     </g>
    </g>
    <g id="text_21">
     <!-- M-Game-its -->
     <g transform="translate(107.720562 21.463219)scale(0.043 -0.043)">
      <use xlink:href="#ArialMT-4d"/>
      <use xlink:href="#ArialMT-2d" x="83.300781"/>
      <use xlink:href="#ArialMT-47" x="116.601562"/>
      <use xlink:href="#ArialMT-61" x="194.384766"/>
      <use xlink:href="#ArialMT-6d" x="250"/>
      <use xlink:href="#ArialMT-65" x="333.300781"/>
      <use xlink:href="#ArialMT-2d" x="388.916016"/>
      <use xlink:href="#ArialMT-69" x="422.216797"/>
      <use xlink:href="#ArialMT-74" x="444.433594"/>
      <use xlink:href="#ArialMT-73" x="472.216797"/>
     </g>
    </g>
   </g>
   <g id="line2d_42">
    <path d="M 32.314687 79.052757 
L 57.424687 81.937398 
L 82.534687 81.876685 
L 107.644688 83.471135 
L 132.754687 82.569712 
" style="fill: none; stroke: #000000; stroke-width: 0.8; stroke-linecap: square"/>
    <g>
     <use xlink:href="#m323ba4be34" x="32.314687" y="79.052757" style="fill-opacity: 0; stroke: #000000; stroke-width: 0.8"/>
     <use xlink:href="#m323ba4be34" x="57.424687" y="81.937398" style="fill-opacity: 0; stroke: #000000; stroke-width: 0.8"/>
     <use xlink:href="#m323ba4be34" x="82.534687" y="81.876685" style="fill-opacity: 0; stroke: #000000; stroke-width: 0.8"/>
     <use xlink:href="#m323ba4be34" x="107.644688" y="83.471135" style="fill-opacity: 0; stroke: #000000; stroke-width: 0.8"/>
     <use xlink:href="#m323ba4be34" x="132.754687" y="82.569712" style="fill-opacity: 0; stroke: #000000; stroke-width: 0.8"/>
    </g>
   </g>
   <g id="line2d_43">
    <path d="M 32.314687 56.224481 
L 57.424687 58.517991 
L 82.534687 63.302703 
L 107.644688 60.007824 
L 132.754687 63.283533 
" style="fill: none; stroke: #c71585; stroke-width: 0.8; stroke-linecap: square"/>
    <g>
     <use xlink:href="#m81f63b897c" x="32.314687" y="56.224481" style="fill: #c71585; stroke: #c71585; stroke-width: 0.8; stroke-linejoin: miter"/>
     <use xlink:href="#m81f63b897c" x="57.424687" y="58.517991" style="fill: #c71585; stroke: #c71585; stroke-width: 0.8; stroke-linejoin: miter"/>
     <use xlink:href="#m81f63b897c" x="82.534687" y="63.302703" style="fill: #c71585; stroke: #c71585; stroke-width: 0.8; stroke-linejoin: miter"/>
     <use xlink:href="#m81f63b897c" x="107.644688" y="60.007824" style="fill: #c71585; stroke: #c71585; stroke-width: 0.8; stroke-linejoin: miter"/>
     <use xlink:href="#m81f63b897c" x="132.754687" y="63.283533" style="fill: #c71585; stroke: #c71585; stroke-width: 0.8; stroke-linejoin: miter"/>
    </g>
   </g>
   <g id="line2d_44">
    <path d="M 32.314687 40.278984 
L 57.424687 41.954934 
L 82.534687 46.227151 
L 107.644688 46.644493 
L 132.754687 47.874136 
" style="fill: none; stroke: #00008b; stroke-width: 0.8; stroke-linecap: square"/>
    <g>
     <use xlink:href="#m52c3c3213f" x="32.314687" y="40.278984" style="fill-opacity: 0; stroke: #00008b; stroke-width: 0.8"/>
     <use xlink:href="#m52c3c3213f" x="57.424687" y="41.954934" style="fill-opacity: 0; stroke: #00008b; stroke-width: 0.8"/>
     <use xlink:href="#m52c3c3213f" x="82.534687" y="46.227151" style="fill-opacity: 0; stroke: #00008b; stroke-width: 0.8"/>
     <use xlink:href="#m52c3c3213f" x="107.644688" y="46.644493" style="fill-opacity: 0; stroke: #00008b; stroke-width: 0.8"/>
     <use xlink:href="#m52c3c3213f" x="132.754687" y="47.874136" style="fill-opacity: 0; stroke: #00008b; stroke-width: 0.8"/>
    </g>
   </g>
   <g id="line2d_45">
    <path d="M 32.314687 37.615797 
L 57.424687 46.829097 
L 82.534687 54.221733 
L 107.644688 54.590697 
L 132.754687 55.399243 
" style="fill: none; stroke: #708090; stroke-width: 0.8; stroke-linecap: square"/>
    <g>
     <use xlink:href="#md83ae7f009" x="32.314687" y="37.615797" style="fill-opacity: 0; stroke: #708090; stroke-width: 0.8; stroke-linejoin: miter"/>
     <use xlink:href="#md83ae7f009" x="57.424687" y="46.829097" style="fill-opacity: 0; stroke: #708090; stroke-width: 0.8; stroke-linejoin: miter"/>
     <use xlink:href="#md83ae7f009" x="82.534687" y="54.221733" style="fill-opacity: 0; stroke: #708090; stroke-width: 0.8; stroke-linejoin: miter"/>
     <use xlink:href="#md83ae7f009" x="107.644688" y="54.590697" style="fill-opacity: 0; stroke: #708090; stroke-width: 0.8; stroke-linejoin: miter"/>
     <use xlink:href="#md83ae7f009" x="132.754687" y="55.399243" style="fill-opacity: 0; stroke: #708090; stroke-width: 0.8; stroke-linejoin: miter"/>
    </g>
   </g>
   <g id="line2d_46">
    <path d="M 32.314687 32.764917 
L 57.424687 36.967355 
L 82.534687 36.096813 
L 107.644688 42.759744 
L 132.754687 42.20055 
" style="fill: none; stroke: #ff4500; stroke-width: 0.8; stroke-linecap: square"/>
    <g>
     <use xlink:href="#m5d058449b8" x="32.314687" y="32.764917" style="fill-opacity: 0; stroke: #ff4500; stroke-width: 0.8; stroke-linejoin: miter"/>
     <use xlink:href="#m5d058449b8" x="57.424687" y="36.967355" style="fill-opacity: 0; stroke: #ff4500; stroke-width: 0.8; stroke-linejoin: miter"/>
     <use xlink:href="#m5d058449b8" x="82.534687" y="36.096813" style="fill-opacity: 0; stroke: #ff4500; stroke-width: 0.8; stroke-linejoin: miter"/>
     <use xlink:href="#m5d058449b8" x="107.644688" y="42.759744" style="fill-opacity: 0; stroke: #ff4500; stroke-width: 0.8; stroke-linejoin: miter"/>
     <use xlink:href="#m5d058449b8" x="132.754687" y="42.20055" style="fill-opacity: 0; stroke: #ff4500; stroke-width: 0.8; stroke-linejoin: miter"/>
    </g>
   </g>
   <g id="line2d_47">
    <path d="M 32.314687 33.159497 
L 57.424687 37.904633 
L 82.534687 37.354543 
L 107.644688 44.489309 
L 132.754687 43.074927 
" style="fill: none; stroke-dasharray: 2.96,1.28; stroke-dashoffset: 0; stroke: #228b22; stroke-width: 0.8"/>
    <g>
     <use xlink:href="#m335df65dee" x="32.314687" y="33.159497" style="fill-opacity: 0; stroke: #228b22; stroke-width: 0.8; stroke-linejoin: miter"/>
     <use xlink:href="#m335df65dee" x="57.424687" y="37.904633" style="fill-opacity: 0; stroke: #228b22; stroke-width: 0.8; stroke-linejoin: miter"/>
     <use xlink:href="#m335df65dee" x="82.534687" y="37.354543" style="fill-opacity: 0; stroke: #228b22; stroke-width: 0.8; stroke-linejoin: miter"/>
     <use xlink:href="#m335df65dee" x="107.644688" y="44.489309" style="fill-opacity: 0; stroke: #228b22; stroke-width: 0.8; stroke-linejoin: miter"/>
     <use xlink:href="#m335df65dee" x="132.754687" y="43.074927" style="fill-opacity: 0; stroke: #228b22; stroke-width: 0.8; stroke-linejoin: miter"/>
    </g>
   </g>
   <g id="line2d_48">
    <path d="M 32.314687 25.990572 
L 57.424687 30.545832 
L 82.534687 31.063361 
L 107.644688 35.843918 
L 132.754687 37.024555 
" style="fill: none; stroke: #ffa500; stroke-width: 0.8; stroke-linecap: square"/>
    <g>
     <use xlink:href="#m36bc74190a" x="32.314687" y="25.990572" style="fill-opacity: 0; stroke: #ffa500; stroke-width: 0.8; stroke-linejoin: bevel"/>
     <use xlink:href="#m36bc74190a" x="57.424687" y="30.545832" style="fill-opacity: 0; stroke: #ffa500; stroke-width: 0.8; stroke-linejoin: bevel"/>
     <use xlink:href="#m36bc74190a" x="82.534687" y="31.063361" style="fill-opacity: 0; stroke: #ffa500; stroke-width: 0.8; stroke-linejoin: bevel"/>
     <use xlink:href="#m36bc74190a" x="107.644688" y="35.843918" style="fill-opacity: 0; stroke: #ffa500; stroke-width: 0.8; stroke-linejoin: bevel"/>
     <use xlink:href="#m36bc74190a" x="132.754687" y="37.024555" style="fill-opacity: 0; stroke: #ffa500; stroke-width: 0.8; stroke-linejoin: bevel"/>
    </g>
   </g>
   <g id="line2d_49">
    <path d="M 32.314687 28.628979 
L 57.424687 32.368433 
L 82.534687 32.773137 
L 107.644688 37.719161 
L 132.754687 38.045532 
" style="fill: none; stroke-dasharray: 2.96,1.28; stroke-dashoffset: 0; stroke: #ff69b4; stroke-width: 0.8"/>
    <g>
     <use xlink:href="#mca7bab1083" x="32.314687" y="28.628979" style="fill-opacity: 0; stroke: #ff69b4; stroke-width: 0.8; stroke-linejoin: bevel"/>
     <use xlink:href="#mca7bab1083" x="57.424687" y="32.368433" style="fill-opacity: 0; stroke: #ff69b4; stroke-width: 0.8; stroke-linejoin: bevel"/>
     <use xlink:href="#mca7bab1083" x="82.534687" y="32.773137" style="fill-opacity: 0; stroke: #ff69b4; stroke-width: 0.8; stroke-linejoin: bevel"/>
     <use xlink:href="#mca7bab1083" x="107.644688" y="37.719161" style="fill-opacity: 0; stroke: #ff69b4; stroke-width: 0.8; stroke-linejoin: bevel"/>
     <use xlink:href="#mca7bab1083" x="132.754687" y="38.045532" style="fill-opacity: 0; stroke: #ff69b4; stroke-width: 0.8; stroke-linejoin: bevel"/>
    </g>
   </g>
  </g>
 </g>
 <defs>
  <clipPath id="p653d9b0276">
   <rect x="32.314687" y="9.240469" width="100.44" height="77.616"/>
  </clipPath>
 </defs>
</svg>
