<?xml version="1.0" encoding="utf-8" standalone="no"?>
<!DOCTYPE svg PUBLIC "-//W3C//DTD SVG 1.1//EN"
  "http://www.w3.org/Graphics/SVG/1.1/DTD/svg11.dtd">
<svg xmlns:xlink="http://www.w3.org/1999/xlink" width="142.043437pt" height="112.224281pt" viewBox="0 0 142.043437 112.224281" xmlns="http://www.w3.org/2000/svg" version="1.1">
 <metadata>
  <rdf:RDF xmlns:dc="http://purl.org/dc/elements/1.1/" xmlns:cc="http://creativecommons.org/ns#" xmlns:rdf="http://www.w3.org/1999/02/22-rdf-syntax-ns#">
   <cc:Work>
    <dc:type rdf:resource="http://purl.org/dc/dcmitype/StillImage"/>
    <dc:date>2024-03-09T13:24:38.362733</dc:date>
    <dc:format>image/svg+xml</dc:format>
    <dc:creator>
     <cc:Agent>
      <dc:title>Matplotlib v3.5.2, https://matplotlib.org/</dc:title>
     </cc:Agent>
    </dc:creator>
   </cc:Work>
  </rdf:RDF>
 </metadata>
 <defs>
  <style type="text/css">*{stroke-linejoin: round; stroke-linecap: butt}</style>
 </defs>
 <g id="figure_1">
  <g id="patch_1">
   <path d="M 0 112.224281 
L 142.043437 112.224281 
L 142.043437 0 
L 0 0 
z
" style="fill: #ffffff"/>
  </g>
  <g id="axes_1">
   <g id="patch_2">
    <path d="M 32.882812 86.856469 
L 133.322812 86.856469 
L 133.322812 9.240469 
L 32.882812 9.240469 
z
" style="fill: #ffffff"/>
   </g>
   <g id="matplotlib.axis_1">
    <g id="xtick_1">
     <g id="line2d_1">
      <path d="M 32.882812 86.856469 
L 32.882812 9.240469 
" clip-path="url(#pfc763b3372)" style="fill: none; stroke-dasharray: 0.74,0.32; stroke-dashoffset: 0; stroke: #b0b0b0; stroke-opacity: 0.8; stroke-width: 0.2"/>
     </g>
     <g id="line2d_2">
      <defs>
       <path id="m99e28431e4" d="M 0 0 
L 0 -1 
" style="stroke: #000000; stroke-width: 0.3"/>
      </defs>
      <g>
       <use xlink:href="#m99e28431e4" x="32.882812" y="86.856469" style="stroke: #000000; stroke-width: 0.3"/>
      </g>
     </g>
     <g id="line2d_3">
      <defs>
       <path id="m4b4007c1d5" d="M 0 0 
L 0 1 
" style="stroke: #000000; stroke-width: 0.3"/>
      </defs>
      <g>
       <use xlink:href="#m4b4007c1d5" x="32.882812" y="9.240469" style="stroke: #000000; stroke-width: 0.3"/>
      </g>
     </g>
     <g id="text_1">
      <!-- 1 -->
      <g transform="translate(31.362188 94.437406)scale(0.06 -0.06)">
       <defs>
        <path id="Calibri-31" d="M 2897 213 
Q 2897 153 2887 112 
Q 2878 72 2862 47 
Q 2847 22 2826 11 
Q 2806 0 2784 0 
L 672 0 
Q 650 0 631 11 
Q 613 22 595 47 
Q 578 72 568 112 
Q 559 153 559 213 
Q 559 269 568 309 
Q 578 350 592 376 
Q 606 403 626 417 
Q 647 431 672 431 
L 1516 431 
L 1516 3506 
L 734 3041 
Q 675 3009 639 3003 
Q 603 2997 581 3017 
Q 559 3038 551 3084 
Q 544 3131 544 3203 
Q 544 3256 548 3293 
Q 553 3331 562 3356 
Q 572 3381 589 3400 
Q 606 3419 634 3438 
L 1566 4034 
Q 1578 4044 1597 4050 
Q 1616 4056 1644 4062 
Q 1672 4069 1709 4070 
Q 1747 4072 1803 4072 
Q 1878 4072 1928 4065 
Q 1978 4059 2006 4048 
Q 2034 4038 2043 4020 
Q 2053 4003 2053 3984 
L 2053 431 
L 2784 431 
Q 2809 431 2831 417 
Q 2853 403 2867 376 
Q 2881 350 2889 309 
Q 2897 269 2897 213 
z
" transform="scale(0.015625)"/>
       </defs>
       <use xlink:href="#Calibri-31"/>
      </g>
     </g>
    </g>
    <g id="xtick_2">
     <g id="line2d_4">
      <path d="M 57.992812 86.856469 
L 57.992812 9.240469 
" clip-path="url(#pfc763b3372)" style="fill: none; stroke-dasharray: 0.74,0.32; stroke-dashoffset: 0; stroke: #b0b0b0; stroke-opacity: 0.8; stroke-width: 0.2"/>
     </g>
     <g id="line2d_5">
      <g>
       <use xlink:href="#m99e28431e4" x="57.992812" y="86.856469" style="stroke: #000000; stroke-width: 0.3"/>
      </g>
     </g>
     <g id="line2d_6">
      <g>
       <use xlink:href="#m4b4007c1d5" x="57.992812" y="9.240469" style="stroke: #000000; stroke-width: 0.3"/>
      </g>
     </g>
     <g id="text_2">
      <!-- 2 -->
      <g transform="translate(56.472187 94.437406)scale(0.06 -0.06)">
       <defs>
        <path id="Calibri-32" d="M 2888 231 
Q 2888 175 2880 131 
Q 2872 88 2858 58 
Q 2844 28 2820 14 
Q 2797 0 2769 0 
L 534 0 
Q 491 0 458 11 
Q 425 22 401 47 
Q 378 72 367 119 
Q 356 166 356 234 
Q 356 297 361 344 
Q 366 391 381 427 
Q 397 463 420 498 
Q 444 534 481 575 
L 1266 1406 
Q 1538 1694 1702 1922 
Q 1866 2150 1955 2337 
Q 2044 2525 2072 2678 
Q 2100 2831 2100 2966 
Q 2100 3100 2056 3220 
Q 2013 3341 1930 3431 
Q 1847 3522 1722 3575 
Q 1597 3628 1434 3628 
Q 1244 3628 1092 3575 
Q 941 3522 827 3459 
Q 713 3397 636 3344 
Q 559 3291 522 3291 
Q 500 3291 483 3303 
Q 466 3316 455 3344 
Q 444 3372 437 3419 
Q 431 3466 431 3531 
Q 431 3578 434 3612 
Q 438 3647 445 3672 
Q 453 3697 465 3719 
Q 478 3741 515 3773 
Q 553 3806 645 3862 
Q 738 3919 877 3973 
Q 1016 4028 1183 4065 
Q 1350 4103 1534 4103 
Q 1828 4103 2048 4020 
Q 2269 3938 2414 3794 
Q 2559 3650 2631 3459 
Q 2703 3269 2703 3053 
Q 2703 2859 2668 2667 
Q 2634 2475 2523 2251 
Q 2413 2028 2203 1754 
Q 1994 1481 1647 1125 
L 1006 456 
L 2766 456 
Q 2791 456 2814 442 
Q 2838 428 2855 400 
Q 2872 372 2880 330 
Q 2888 288 2888 231 
z
" transform="scale(0.015625)"/>
       </defs>
       <use xlink:href="#Calibri-32"/>
      </g>
     </g>
    </g>
    <g id="xtick_3">
     <g id="line2d_7">
      <path d="M 83.102812 86.856469 
L 83.102812 9.240469 
" clip-path="url(#pfc763b3372)" style="fill: none; stroke-dasharray: 0.74,0.32; stroke-dashoffset: 0; stroke: #b0b0b0; stroke-opacity: 0.8; stroke-width: 0.2"/>
     </g>
     <g id="line2d_8">
      <g>
       <use xlink:href="#m99e28431e4" x="83.102812" y="86.856469" style="stroke: #000000; stroke-width: 0.3"/>
      </g>
     </g>
     <g id="line2d_9">
      <g>
       <use xlink:href="#m4b4007c1d5" x="83.102812" y="9.240469" style="stroke: #000000; stroke-width: 0.3"/>
      </g>
     </g>
     <g id="text_3">
      <!-- 3 -->
      <g transform="translate(81.582188 94.437406)scale(0.06 -0.06)">
       <defs>
        <path id="Calibri-33" d="M 2856 1156 
Q 2856 878 2759 654 
Q 2663 431 2481 272 
Q 2300 113 2034 27 
Q 1769 -59 1434 -59 
Q 1231 -59 1054 -26 
Q 878 6 740 51 
Q 603 97 512 145 
Q 422 194 398 216 
Q 375 238 362 259 
Q 350 281 340 312 
Q 331 344 326 389 
Q 322 434 322 500 
Q 322 613 344 656 
Q 366 700 406 700 
Q 434 700 517 650 
Q 600 600 729 542 
Q 859 484 1032 434 
Q 1206 384 1419 384 
Q 1625 384 1781 437 
Q 1938 491 2044 587 
Q 2150 684 2203 817 
Q 2256 950 2256 1106 
Q 2256 1278 2189 1415 
Q 2122 1553 1992 1653 
Q 1863 1753 1673 1806 
Q 1484 1859 1244 1859 
L 859 1859 
Q 834 1859 811 1870 
Q 788 1881 770 1906 
Q 753 1931 742 1972 
Q 731 2013 731 2078 
Q 731 2138 740 2177 
Q 750 2216 767 2239 
Q 784 2263 806 2273 
Q 828 2284 856 2284 
L 1209 2284 
Q 1416 2284 1580 2337 
Q 1744 2391 1858 2491 
Q 1972 2591 2033 2730 
Q 2094 2869 2094 3041 
Q 2094 3166 2053 3280 
Q 2013 3394 1931 3478 
Q 1850 3563 1723 3611 
Q 1597 3659 1431 3659 
Q 1250 3659 1098 3604 
Q 947 3550 828 3487 
Q 709 3425 631 3370 
Q 553 3316 522 3316 
Q 500 3316 483 3323 
Q 466 3331 455 3354 
Q 444 3378 439 3420 
Q 434 3463 434 3531 
Q 434 3578 437 3614 
Q 441 3650 450 3676 
Q 459 3703 471 3725 
Q 484 3747 514 3776 
Q 544 3806 634 3862 
Q 725 3919 858 3973 
Q 991 4028 1164 4065 
Q 1338 4103 1538 4103 
Q 1819 4103 2031 4031 
Q 2244 3959 2386 3828 
Q 2528 3697 2598 3514 
Q 2669 3331 2669 3109 
Q 2669 2919 2619 2755 
Q 2569 2591 2472 2464 
Q 2375 2338 2234 2248 
Q 2094 2159 1909 2125 
L 1909 2119 
Q 2119 2097 2292 2014 
Q 2466 1931 2591 1806 
Q 2716 1681 2786 1514 
Q 2856 1347 2856 1156 
z
" transform="scale(0.015625)"/>
       </defs>
       <use xlink:href="#Calibri-33"/>
      </g>
     </g>
    </g>
    <g id="xtick_4">
     <g id="line2d_10">
      <path d="M 108.212812 86.856469 
L 108.212812 9.240469 
" clip-path="url(#pfc763b3372)" style="fill: none; stroke-dasharray: 0.74,0.32; stroke-dashoffset: 0; stroke: #b0b0b0; stroke-opacity: 0.8; stroke-width: 0.2"/>
     </g>
     <g id="line2d_11">
      <g>
       <use xlink:href="#m99e28431e4" x="108.212812" y="86.856469" style="stroke: #000000; stroke-width: 0.3"/>
      </g>
     </g>
     <g id="line2d_12">
      <g>
       <use xlink:href="#m4b4007c1d5" x="108.212812" y="9.240469" style="stroke: #000000; stroke-width: 0.3"/>
      </g>
     </g>
     <g id="text_4">
      <!-- 4 -->
      <g transform="translate(106.692188 94.437406)scale(0.06 -0.06)">
       <defs>
        <path id="Calibri-34" d="M 3059 1150 
Q 3059 1047 3028 987 
Q 2997 928 2941 928 
L 2484 928 
L 2484 78 
Q 2484 53 2471 36 
Q 2459 19 2428 6 
Q 2397 -6 2347 -12 
Q 2297 -19 2219 -19 
Q 2144 -19 2094 -12 
Q 2044 -6 2014 6 
Q 1984 19 1973 36 
Q 1963 53 1963 78 
L 1963 928 
L 294 928 
Q 256 928 231 937 
Q 206 947 186 972 
Q 166 997 158 1044 
Q 150 1091 150 1166 
Q 150 1225 153 1272 
Q 156 1319 165 1358 
Q 175 1397 190 1433 
Q 206 1469 228 1509 
L 1684 3966 
Q 1700 3991 1729 4009 
Q 1759 4028 1806 4040 
Q 1853 4053 1922 4058 
Q 1991 4063 2084 4063 
Q 2188 4063 2264 4055 
Q 2341 4047 2387 4034 
Q 2434 4022 2459 4001 
Q 2484 3981 2484 3953 
L 2484 1372 
L 2941 1372 
Q 2994 1372 3026 1317 
Q 3059 1263 3059 1150 
z
M 1963 3591 
L 1956 3591 
L 641 1372 
L 1963 1372 
L 1963 3591 
z
" transform="scale(0.015625)"/>
       </defs>
       <use xlink:href="#Calibri-34"/>
      </g>
     </g>
    </g>
    <g id="xtick_5">
     <g id="line2d_13">
      <path d="M 133.322812 86.856469 
L 133.322812 9.240469 
" clip-path="url(#pfc763b3372)" style="fill: none; stroke-dasharray: 0.74,0.32; stroke-dashoffset: 0; stroke: #b0b0b0; stroke-opacity: 0.8; stroke-width: 0.2"/>
     </g>
     <g id="line2d_14">
      <g>
       <use xlink:href="#m99e28431e4" x="133.322812" y="86.856469" style="stroke: #000000; stroke-width: 0.3"/>
      </g>
     </g>
     <g id="line2d_15">
      <g>
       <use xlink:href="#m4b4007c1d5" x="133.322812" y="9.240469" style="stroke: #000000; stroke-width: 0.3"/>
      </g>
     </g>
     <g id="text_5">
      <!-- 5 -->
      <g transform="translate(131.802188 94.437406)scale(0.06 -0.06)">
       <defs>
        <path id="Calibri-35" d="M 2869 1300 
Q 2869 975 2759 722 
Q 2650 469 2450 295 
Q 2250 122 1973 31 
Q 1697 -59 1359 -59 
Q 1172 -59 1003 -32 
Q 834 -6 703 33 
Q 572 72 487 109 
Q 403 147 379 169 
Q 356 191 347 209 
Q 338 228 330 254 
Q 322 281 319 322 
Q 316 363 316 419 
Q 316 472 320 514 
Q 325 556 337 582 
Q 350 609 367 621 
Q 384 634 406 634 
Q 438 634 503 595 
Q 569 556 680 511 
Q 791 466 955 425 
Q 1119 384 1344 384 
Q 1553 384 1728 434 
Q 1903 484 2029 590 
Q 2156 697 2228 858 
Q 2300 1019 2300 1250 
Q 2300 1444 2239 1592 
Q 2178 1741 2051 1839 
Q 1925 1938 1731 1986 
Q 1538 2034 1269 2034 
Q 1078 2034 940 2015 
Q 803 1997 684 1997 
Q 597 1997 559 2037 
Q 522 2078 522 2194 
L 522 3841 
Q 522 3944 570 3994 
Q 619 4044 709 4044 
L 2500 4044 
Q 2525 4044 2548 4030 
Q 2572 4016 2587 3987 
Q 2603 3959 2611 3915 
Q 2619 3872 2619 3813 
Q 2619 3700 2587 3637 
Q 2556 3575 2500 3575 
L 991 3575 
L 991 2441 
Q 1100 2456 1214 2459 
Q 1328 2463 1478 2463 
Q 1825 2463 2084 2380 
Q 2344 2297 2517 2145 
Q 2691 1994 2780 1778 
Q 2869 1563 2869 1300 
z
" transform="scale(0.015625)"/>
       </defs>
       <use xlink:href="#Calibri-35"/>
      </g>
     </g>
    </g>
    <g id="text_6">
     <!-- $t . \psi$ -->
     <g transform="translate(78.392813 103.740844)scale(0.06 -0.06)">
      <defs>
       <path id="DejaVuSans-Oblique-74" d="M 2706 3500 
L 2619 3053 
L 1472 3053 
L 1100 1153 
Q 1081 1047 1072 975 
Q 1063 903 1063 863 
Q 1063 663 1183 572 
Q 1303 481 1569 481 
L 2150 481 
L 2053 0 
L 1503 0 
Q 991 0 739 200 
Q 488 400 488 806 
Q 488 878 497 964 
Q 506 1050 525 1153 
L 897 3053 
L 409 3053 
L 500 3500 
L 978 3500 
L 1172 4494 
L 1747 4494 
L 1556 3500 
L 2706 3500 
z
" transform="scale(0.015625)"/>
       <path id="DejaVuSans-2e" d="M 684 794 
L 1344 794 
L 1344 0 
L 684 0 
L 684 794 
z
" transform="scale(0.015625)"/>
       <path id="DejaVuSans-Oblique-3c8" d="M 1591 -78 
Q 891 38 616 341 
Q 278 713 425 1472 
L 819 3500 
L 1400 3500 
L 1009 1494 
Q 900 922 1119 684 
Q 1313 478 1691 434 
L 2284 3500 
L 2856 3500 
L 2263 438 
Q 2681 481 2928 688 
Q 3247 950 3353 1497 
L 3741 3500 
L 4322 3500 
L 3928 1475 
Q 3775 688 3300 344 
Q 2872 34 2163 -75 
L 1919 -1331 
L 1347 -1331 
L 1591 -78 
z
" transform="scale(0.015625)"/>
      </defs>
      <use xlink:href="#DejaVuSans-Oblique-74" transform="translate(0 0.78125)"/>
      <use xlink:href="#DejaVuSans-2e" transform="translate(39.208984 0.78125)"/>
      <use xlink:href="#DejaVuSans-Oblique-3c8" transform="translate(90.478516 0.78125)"/>
     </g>
    </g>
   </g>
   <g id="matplotlib.axis_2">
    <g id="ytick_1">
     <g id="line2d_16">
      <path d="M 32.882812 86.856469 
L 133.322812 86.856469 
" clip-path="url(#pfc763b3372)" style="fill: none; stroke-dasharray: 0.74,0.32; stroke-dashoffset: 0; stroke: #b0b0b0; stroke-opacity: 0.8; stroke-width: 0.2"/>
     </g>
     <g id="line2d_17">
      <defs>
       <path id="m9942f2d1d7" d="M 0 0 
L 1 0 
" style="stroke: #000000; stroke-width: 0.3"/>
      </defs>
      <g>
       <use xlink:href="#m9942f2d1d7" x="32.882812" y="86.856469" style="stroke: #000000; stroke-width: 0.3"/>
      </g>
     </g>
     <g id="line2d_18">
      <defs>
       <path id="m655c83b5e1" d="M 0 0 
L -1 0 
" style="stroke: #000000; stroke-width: 0.3"/>
      </defs>
      <g>
       <use xlink:href="#m655c83b5e1" x="133.322812" y="86.856469" style="stroke: #000000; stroke-width: 0.3"/>
      </g>
     </g>
     <g id="text_7">
      <!-- 0 -->
      <g transform="translate(26.341563 88.896938)scale(0.06 -0.06)">
       <defs>
        <path id="Calibri-30" d="M 3022 2031 
Q 3022 1566 2948 1181 
Q 2875 797 2704 520 
Q 2534 244 2259 92 
Q 1984 -59 1581 -59 
Q 1200 -59 939 77 
Q 678 213 518 477 
Q 359 741 292 1127 
Q 225 1513 225 2013 
Q 225 2475 300 2861 
Q 375 3247 544 3523 
Q 713 3800 988 3951 
Q 1263 4103 1663 4103 
Q 2047 4103 2308 3967 
Q 2569 3831 2728 3567 
Q 2888 3303 2955 2917 
Q 3022 2531 3022 2031 
z
M 2472 1994 
Q 2472 2297 2450 2537 
Q 2428 2778 2386 2962 
Q 2344 3147 2276 3280 
Q 2209 3413 2115 3498 
Q 2022 3584 1901 3623 
Q 1781 3663 1631 3663 
Q 1366 3663 1200 3538 
Q 1034 3413 939 3194 
Q 844 2975 809 2681 
Q 775 2388 775 2050 
Q 775 1597 822 1280 
Q 869 963 970 763 
Q 1072 563 1230 472 
Q 1388 381 1613 381 
Q 1788 381 1920 437 
Q 2053 494 2148 598 
Q 2244 703 2306 850 
Q 2369 997 2406 1175 
Q 2444 1353 2458 1561 
Q 2472 1769 2472 1994 
z
" transform="scale(0.015625)"/>
       </defs>
       <use xlink:href="#Calibri-30"/>
      </g>
     </g>
    </g>
    <g id="ytick_2">
     <g id="line2d_19">
      <path d="M 32.882812 67.452469 
L 133.322812 67.452469 
" clip-path="url(#pfc763b3372)" style="fill: none; stroke-dasharray: 0.74,0.32; stroke-dashoffset: 0; stroke: #b0b0b0; stroke-opacity: 0.8; stroke-width: 0.2"/>
     </g>
     <g id="line2d_20">
      <g>
       <use xlink:href="#m9942f2d1d7" x="32.882812" y="67.452469" style="stroke: #000000; stroke-width: 0.3"/>
      </g>
     </g>
     <g id="line2d_21">
      <g>
       <use xlink:href="#m655c83b5e1" x="133.322812" y="67.452469" style="stroke: #000000; stroke-width: 0.3"/>
      </g>
     </g>
     <g id="text_8">
      <!-- 500 -->
      <g transform="translate(20.259062 69.492938)scale(0.06 -0.06)">
       <use xlink:href="#Calibri-35"/>
       <use xlink:href="#Calibri-30" x="50.683594"/>
       <use xlink:href="#Calibri-30" x="101.367188"/>
      </g>
     </g>
    </g>
    <g id="ytick_3">
     <g id="line2d_22">
      <path d="M 32.882812 48.048469 
L 133.322812 48.048469 
" clip-path="url(#pfc763b3372)" style="fill: none; stroke-dasharray: 0.74,0.32; stroke-dashoffset: 0; stroke: #b0b0b0; stroke-opacity: 0.8; stroke-width: 0.2"/>
     </g>
     <g id="line2d_23">
      <g>
       <use xlink:href="#m9942f2d1d7" x="32.882812" y="48.048469" style="stroke: #000000; stroke-width: 0.3"/>
      </g>
     </g>
     <g id="line2d_24">
      <g>
       <use xlink:href="#m655c83b5e1" x="133.322812" y="48.048469" style="stroke: #000000; stroke-width: 0.3"/>
      </g>
     </g>
     <g id="text_9">
      <!-- 1000 -->
      <g transform="translate(17.217813 50.088938)scale(0.06 -0.06)">
       <use xlink:href="#Calibri-31"/>
       <use xlink:href="#Calibri-30" x="50.683594"/>
       <use xlink:href="#Calibri-30" x="101.367188"/>
       <use xlink:href="#Calibri-30" x="152.050781"/>
      </g>
     </g>
    </g>
    <g id="ytick_4">
     <g id="line2d_25">
      <path d="M 32.882812 28.644469 
L 133.322812 28.644469 
" clip-path="url(#pfc763b3372)" style="fill: none; stroke-dasharray: 0.74,0.32; stroke-dashoffset: 0; stroke: #b0b0b0; stroke-opacity: 0.8; stroke-width: 0.2"/>
     </g>
     <g id="line2d_26">
      <g>
       <use xlink:href="#m9942f2d1d7" x="32.882812" y="28.644469" style="stroke: #000000; stroke-width: 0.3"/>
      </g>
     </g>
     <g id="line2d_27">
      <g>
       <use xlink:href="#m655c83b5e1" x="133.322812" y="28.644469" style="stroke: #000000; stroke-width: 0.3"/>
      </g>
     </g>
     <g id="text_10">
      <!-- 1500 -->
      <g transform="translate(17.217813 30.684938)scale(0.06 -0.06)">
       <use xlink:href="#Calibri-31"/>
       <use xlink:href="#Calibri-35" x="50.683594"/>
       <use xlink:href="#Calibri-30" x="101.367188"/>
       <use xlink:href="#Calibri-30" x="152.050781"/>
      </g>
     </g>
    </g>
    <g id="ytick_5">
     <g id="line2d_28">
      <path d="M 32.882812 9.240469 
L 133.322812 9.240469 
" clip-path="url(#pfc763b3372)" style="fill: none; stroke-dasharray: 0.74,0.32; stroke-dashoffset: 0; stroke: #b0b0b0; stroke-opacity: 0.8; stroke-width: 0.2"/>
     </g>
     <g id="line2d_29">
      <g>
       <use xlink:href="#m9942f2d1d7" x="32.882812" y="9.240469" style="stroke: #000000; stroke-width: 0.3"/>
      </g>
     </g>
     <g id="line2d_30">
      <g>
       <use xlink:href="#m655c83b5e1" x="133.322812" y="9.240469" style="stroke: #000000; stroke-width: 0.3"/>
      </g>
     </g>
     <g id="text_11">
      <!-- 2000 -->
      <g transform="translate(17.217813 11.280938)scale(0.06 -0.06)">
       <use xlink:href="#Calibri-32"/>
       <use xlink:href="#Calibri-30" x="50.683594"/>
       <use xlink:href="#Calibri-30" x="101.367188"/>
       <use xlink:href="#Calibri-30" x="152.050781"/>
      </g>
     </g>
    </g>
    <g id="text_12">
     <!-- CPU时间(secs) -->
     <g transform="translate(11.675625 66.210656)rotate(-90)scale(0.06 -0.06)">
      <defs>
       <path id="STSong-43" d="M 3846 883 
Q 3776 493 3648 58 
Q 3238 -102 2458 -102 
Q 1453 -102 864 451 
Q 275 1005 275 1914 
Q 275 2470 553 2976 
Q 832 3482 1309 3773 
Q 1786 4064 2336 4064 
Q 2899 4064 3174 4013 
Q 3450 3962 3706 3802 
Q 3744 3494 3738 3168 
L 3616 3168 
Q 3488 3539 3184 3734 
Q 2880 3930 2451 3930 
Q 1779 3930 1337 3376 
Q 896 2822 896 1946 
Q 896 998 1289 518 
Q 1683 38 2458 38 
Q 3347 38 3763 883 
L 3846 883 
z
" transform="scale(0.015625)"/>
       <path id="STSong-50" d="M 134 4000 
Q 755 4000 979 4013 
L 1888 4064 
Q 1990 4070 2086 4070 
Q 2803 4070 3116 3705 
Q 3430 3341 3430 2893 
Q 3430 2394 3068 2045 
Q 2707 1696 2182 1696 
Q 1779 1696 1568 1946 
L 1606 1984 
Q 1773 1926 1952 1926 
Q 2342 1926 2608 2179 
Q 2874 2432 2874 2867 
Q 2874 3290 2576 3587 
Q 2278 3885 1638 3885 
Q 1414 3885 1299 3834 
L 1299 390 
Q 1299 294 1340 252 
Q 1382 211 1523 179 
L 1990 77 
L 1990 -26 
Q 1453 0 1126 0 
Q 902 0 262 -19 
L 262 83 
L 621 134 
Q 717 154 749 205 
Q 781 256 781 378 
L 781 3430 
Q 781 3674 630 3757 
Q 480 3840 134 3878 
L 134 4000 
z
" transform="scale(0.015625)"/>
       <path id="STSong-55" d="M 1843 4019 
L 1843 3917 
L 1440 3866 
Q 1325 3853 1277 3779 
Q 1229 3706 1229 3546 
L 1229 1261 
Q 1229 646 1485 374 
Q 1741 102 2323 102 
Q 3104 102 3376 464 
Q 3648 826 3648 1766 
L 3648 3539 
Q 3648 3795 3386 3846 
L 3008 3917 
L 3008 4019 
Q 3162 4000 3661 4000 
Q 4160 4000 4320 4019 
L 4320 3917 
L 3949 3834 
Q 3808 3808 3808 3539 
L 3808 1600 
Q 3808 704 3475 301 
Q 3142 -102 2342 -102 
Q 1562 -102 1142 224 
Q 723 550 723 1165 
L 723 3565 
Q 723 3718 691 3785 
Q 659 3853 570 3866 
L 115 3917 
L 115 4019 
Q 538 4000 979 4000 
Q 1613 4000 1843 4019 
z
" transform="scale(0.015625)"/>
       <path id="STSong-65f6" d="M 6093 3238 
Q 6144 3181 6144 3161 
Q 6144 3142 6061 3142 
L 5082 3142 
L 5082 -384 
Q 5082 -646 5046 -739 
Q 5011 -832 4803 -937 
Q 4595 -1043 4550 -1043 
Q 4506 -1043 4493 -992 
Q 4454 -806 4281 -697 
Q 4109 -589 3565 -448 
L 3584 -346 
Q 4186 -480 4406 -480 
Q 4627 -480 4707 -435 
Q 4787 -390 4787 -282 
L 4787 3142 
L 3232 3142 
Q 3053 3142 2854 3098 
L 2624 3309 
Q 2835 3283 3091 3283 
L 4787 3283 
L 4787 3962 
Q 4787 4742 4774 4890 
L 5229 4659 
Q 5299 4621 5299 4598 
Q 5299 4576 5229 4538 
L 5082 4454 
L 5082 3283 
L 5485 3283 
L 5715 3642 
L 6093 3238 
z
M 2618 4038 
L 2406 3891 
L 2406 1216 
Q 2406 698 2416 486 
Q 2426 275 2426 250 
Q 2426 166 2301 76 
Q 2176 -13 2147 -13 
Q 2118 -13 2118 115 
L 2118 410 
L 890 410 
L 890 -134 
Q 890 -192 867 -214 
Q 845 -237 752 -297 
Q 659 -358 620 -358 
Q 582 -358 582 -262 
Q 582 -166 592 198 
Q 602 563 602 1190 
L 602 3738 
Q 602 4147 582 4454 
L 966 4173 
L 2054 4173 
L 2221 4403 
L 2618 4147 
Q 2669 4109 2669 4089 
Q 2669 4070 2618 4038 
z
M 2118 2464 
L 2118 4032 
L 890 4032 
L 890 2464 
L 2118 2464 
z
M 2118 550 
L 2118 2323 
L 890 2323 
L 890 550 
L 2118 550 
z
M 3187 2483 
Q 3706 2086 3843 1888 
Q 3981 1690 3981 1546 
Q 3981 1402 3913 1306 
Q 3846 1210 3769 1210 
Q 3693 1210 3657 1267 
Q 3622 1325 3584 1510 
Q 3488 1997 3123 2432 
L 3187 2483 
z
" transform="scale(0.015625)"/>
       <path id="STSong-95f4" d="M 1152 4960 
Q 1766 4678 1910 4531 
Q 2054 4384 2054 4243 
Q 2054 4102 1990 4000 
Q 1926 3898 1865 3898 
Q 1805 3898 1757 3952 
Q 1709 4006 1696 4108 
Q 1683 4211 1532 4432 
Q 1382 4653 1114 4902 
L 1152 4960 
z
M 5875 4218 
L 5670 4096 
L 5670 -262 
Q 5670 -563 5625 -700 
Q 5581 -838 5389 -953 
Q 5197 -1069 5101 -1069 
Q 5069 -1069 5056 -1011 
Q 5018 -864 4867 -768 
Q 4717 -672 4282 -550 
L 4288 -461 
Q 4883 -550 5075 -550 
Q 5267 -550 5318 -502 
Q 5370 -454 5370 -326 
L 5370 4192 
L 3136 4192 
Q 2886 4192 2707 4122 
L 2528 4358 
Q 2835 4333 2995 4333 
L 5235 4333 
L 5504 4685 
L 5875 4307 
Q 5907 4275 5907 4256 
Q 5907 4237 5875 4218 
z
M 1286 3750 
L 1120 3648 
L 1120 365 
Q 1120 -294 1126 -486 
L 1133 -832 
Q 1133 -934 1001 -995 
Q 870 -1056 828 -1056 
Q 787 -1056 787 -941 
L 806 -442 
Q 819 -141 819 378 
L 819 3149 
Q 819 3578 794 4090 
L 1280 3846 
Q 1331 3821 1331 3801 
Q 1331 3782 1286 3750 
z
M 4493 2925 
L 4346 2829 
L 4346 973 
Q 4346 659 4358 474 
L 4384 160 
Q 4384 58 4253 6 
Q 4122 -45 4083 -45 
Q 4045 -45 4045 38 
L 4045 333 
L 2330 333 
L 2330 58 
Q 2330 -45 2211 -93 
Q 2093 -141 2048 -141 
Q 2003 -141 2003 -19 
L 2016 326 
Q 2029 544 2029 851 
L 2029 2714 
Q 2029 3059 2010 3373 
L 2413 3072 
L 3962 3072 
L 4160 3322 
L 4493 3053 
Q 4544 3008 4544 2982 
Q 4544 2957 4493 2925 
z
M 4045 1824 
L 4045 2931 
L 2330 2931 
L 2330 1824 
L 4045 1824 
z
M 4045 474 
L 4045 1683 
L 2330 1683 
L 2330 474 
L 4045 474 
z
" transform="scale(0.015625)"/>
       <path id="STSong-28" d="M 1901 4198 
L 1984 4032 
Q 1350 3450 1068 2797 
Q 787 2144 787 1286 
Q 787 582 1091 -112 
Q 1395 -806 1965 -1312 
L 1888 -1459 
Q 1242 -992 867 -208 
Q 493 576 493 1389 
Q 493 2208 864 2985 
Q 1235 3763 1901 4198 
z
" transform="scale(0.015625)"/>
       <path id="STSong-73" d="M 1792 1843 
Q 1734 2061 1536 2233 
Q 1338 2406 1184 2406 
Q 717 2406 717 1978 
Q 717 1805 870 1686 
Q 1024 1568 1338 1453 
Q 2061 1178 2061 672 
Q 2061 339 1805 118 
Q 1549 -102 1171 -102 
Q 710 -102 416 64 
L 352 787 
L 461 787 
Q 550 448 774 240 
Q 998 32 1254 32 
Q 1459 32 1600 163 
Q 1741 294 1741 493 
Q 1741 858 1139 1082 
Q 717 1242 534 1418 
Q 352 1594 352 1850 
Q 352 2176 595 2365 
Q 838 2554 1248 2554 
Q 1613 2554 1875 2400 
L 1914 1843 
L 1792 1843 
z
" transform="scale(0.015625)"/>
       <path id="STSong-65" d="M 2477 1606 
L 691 1606 
Q 672 1478 672 1350 
Q 672 851 944 537 
Q 1216 224 1683 224 
Q 1907 224 2092 313 
Q 2278 403 2496 608 
L 2522 454 
Q 2074 -102 1363 -102 
Q 896 -102 582 275 
Q 269 653 269 1190 
Q 269 1779 617 2166 
Q 966 2554 1504 2554 
Q 1914 2554 2186 2294 
Q 2458 2035 2477 1606 
z
M 723 1741 
L 1888 1741 
Q 2061 1741 2061 1875 
Q 2061 2010 1933 2208 
Q 1805 2406 1478 2406 
Q 1197 2406 992 2224 
Q 787 2042 723 1741 
z
" transform="scale(0.015625)"/>
       <path id="STSong-63" d="M 2496 570 
L 2502 371 
Q 2266 122 2029 10 
Q 1792 -102 1459 -102 
Q 960 -102 624 288 
Q 288 678 288 1261 
Q 288 1894 640 2224 
Q 992 2554 1670 2554 
Q 2022 2554 2243 2451 
Q 2464 2349 2464 2176 
Q 2464 2086 2403 2016 
Q 2342 1946 2240 1946 
Q 2074 1946 1882 2138 
Q 1670 2349 1440 2349 
Q 1165 2349 957 2051 
Q 749 1754 749 1306 
Q 749 794 1017 493 
Q 1286 192 1651 192 
Q 2067 192 2496 570 
z
" transform="scale(0.015625)"/>
       <path id="STSong-29" d="M -38 4198 
Q 627 3763 998 2985 
Q 1370 2208 1370 1389 
Q 1370 576 995 -208 
Q 621 -992 -26 -1459 
L -102 -1312 
Q 467 -806 771 -112 
Q 1075 582 1075 1286 
Q 1075 2144 793 2797 
Q 512 3450 -122 4032 
L -38 4198 
z
" transform="scale(0.015625)"/>
      </defs>
      <use xlink:href="#STSong-43"/>
      <use xlink:href="#STSong-50" x="63.499985"/>
      <use xlink:href="#STSong-55" x="119.799973"/>
      <use xlink:href="#STSong-65f6" x="190.59996"/>
      <use xlink:href="#STSong-95f4" x="290.599945"/>
      <use xlink:href="#STSong-28" x="390.59993"/>
      <use xlink:href="#STSong-73" x="419.799927"/>
      <use xlink:href="#STSong-65" x="456.299911"/>
      <use xlink:href="#STSong-63" x="497.999908"/>
      <use xlink:href="#STSong-73" x="539.699905"/>
      <use xlink:href="#STSong-29" x="576.19989"/>
     </g>
    </g>
   </g>
   <g id="patch_3">
    <path d="M 32.882812 86.856469 
L 32.882812 9.240469 
" style="fill: none; stroke: #000000; stroke-width: 0.3; stroke-linejoin: miter; stroke-linecap: square"/>
   </g>
   <g id="patch_4">
    <path d="M 133.322812 86.856469 
L 133.322812 9.240469 
" style="fill: none; stroke: #000000; stroke-width: 0.3; stroke-linejoin: miter; stroke-linecap: square"/>
   </g>
   <g id="patch_5">
    <path d="M 32.882812 86.856469 
L 133.322812 86.856469 
" style="fill: none; stroke: #000000; stroke-width: 0.3; stroke-linejoin: miter; stroke-linecap: square"/>
   </g>
   <g id="patch_6">
    <path d="M 32.882812 9.240469 
L 133.322812 9.240469 
" style="fill: none; stroke: #000000; stroke-width: 0.3; stroke-linejoin: miter; stroke-linecap: square"/>
   </g>
   <g id="legend_1">
    <g id="patch_7">
     <path d="M 35.892812 29.363125 
L 131.60275 29.363125 
Q 132.46275 29.363125 132.46275 28.503125 
L 132.46275 12.250469 
Q 132.46275 11.390469 131.60275 11.390469 
L 35.892812 11.390469 
Q 35.032812 11.390469 35.032812 12.250469 
L 35.032812 28.503125 
Q 35.032812 29.363125 35.892812 29.363125 
L 35.892812 29.363125 
z
" style="fill: none; opacity: 0.1; stroke: #000000; stroke-width: 0.2; stroke-linejoin: miter"/>
    </g>
    <g id="line2d_31">
     <path d="M 36.752812 14.735734 
L 41.052812 14.735734 
L 45.352812 14.735734 
" style="fill: none; stroke: #000000; stroke-width: 0.8; stroke-linecap: square"/>
     <defs>
      <path id="mcdb5e52163" d="M -1.5 1.5 
L 1.5 -1.5 
M -1.5 -1.5 
L 1.5 1.5 
" style="stroke: #000000; stroke-width: 0.8"/>
     </defs>
     <g>
      <use xlink:href="#mcdb5e52163" x="41.052812" y="14.735734" style="fill-opacity: 0; stroke: #000000; stroke-width: 0.8"/>
     </g>
    </g>
    <g id="text_13">
     <!-- Random -->
     <g transform="translate(46.341812 16.240734)scale(0.043 -0.043)">
      <defs>
       <path id="ArialMT-52" d="M 503 0 
L 503 4581 
L 2534 4581 
Q 3147 4581 3465 4457 
Q 3784 4334 3975 4021 
Q 4166 3709 4166 3331 
Q 4166 2844 3850 2509 
Q 3534 2175 2875 2084 
Q 3116 1969 3241 1856 
Q 3506 1613 3744 1247 
L 4541 0 
L 3778 0 
L 3172 953 
Q 2906 1366 2734 1584 
Q 2563 1803 2427 1890 
Q 2291 1978 2150 2013 
Q 2047 2034 1813 2034 
L 1109 2034 
L 1109 0 
L 503 0 
z
M 1109 2559 
L 2413 2559 
Q 2828 2559 3062 2645 
Q 3297 2731 3419 2920 
Q 3541 3109 3541 3331 
Q 3541 3656 3305 3865 
Q 3069 4075 2559 4075 
L 1109 4075 
L 1109 2559 
z
" transform="scale(0.015625)"/>
       <path id="ArialMT-61" d="M 2588 409 
Q 2275 144 1986 34 
Q 1697 -75 1366 -75 
Q 819 -75 525 192 
Q 231 459 231 875 
Q 231 1119 342 1320 
Q 453 1522 633 1644 
Q 813 1766 1038 1828 
Q 1203 1872 1538 1913 
Q 2219 1994 2541 2106 
Q 2544 2222 2544 2253 
Q 2544 2597 2384 2738 
Q 2169 2928 1744 2928 
Q 1347 2928 1158 2789 
Q 969 2650 878 2297 
L 328 2372 
Q 403 2725 575 2942 
Q 747 3159 1072 3276 
Q 1397 3394 1825 3394 
Q 2250 3394 2515 3294 
Q 2781 3194 2906 3042 
Q 3031 2891 3081 2659 
Q 3109 2516 3109 2141 
L 3109 1391 
Q 3109 606 3145 398 
Q 3181 191 3288 0 
L 2700 0 
Q 2613 175 2588 409 
z
M 2541 1666 
Q 2234 1541 1622 1453 
Q 1275 1403 1131 1340 
Q 988 1278 909 1158 
Q 831 1038 831 891 
Q 831 666 1001 516 
Q 1172 366 1500 366 
Q 1825 366 2078 508 
Q 2331 650 2450 897 
Q 2541 1088 2541 1459 
L 2541 1666 
z
" transform="scale(0.015625)"/>
       <path id="ArialMT-6e" d="M 422 0 
L 422 3319 
L 928 3319 
L 928 2847 
Q 1294 3394 1984 3394 
Q 2284 3394 2536 3286 
Q 2788 3178 2913 3003 
Q 3038 2828 3088 2588 
Q 3119 2431 3119 2041 
L 3119 0 
L 2556 0 
L 2556 2019 
Q 2556 2363 2490 2533 
Q 2425 2703 2258 2804 
Q 2091 2906 1866 2906 
Q 1506 2906 1245 2678 
Q 984 2450 984 1813 
L 984 0 
L 422 0 
z
" transform="scale(0.015625)"/>
       <path id="ArialMT-64" d="M 2575 0 
L 2575 419 
Q 2259 -75 1647 -75 
Q 1250 -75 917 144 
Q 584 363 401 755 
Q 219 1147 219 1656 
Q 219 2153 384 2558 
Q 550 2963 881 3178 
Q 1213 3394 1622 3394 
Q 1922 3394 2156 3267 
Q 2391 3141 2538 2938 
L 2538 4581 
L 3097 4581 
L 3097 0 
L 2575 0 
z
M 797 1656 
Q 797 1019 1065 703 
Q 1334 388 1700 388 
Q 2069 388 2326 689 
Q 2584 991 2584 1609 
Q 2584 2291 2321 2609 
Q 2059 2928 1675 2928 
Q 1300 2928 1048 2622 
Q 797 2316 797 1656 
z
" transform="scale(0.015625)"/>
       <path id="ArialMT-6f" d="M 213 1659 
Q 213 2581 725 3025 
Q 1153 3394 1769 3394 
Q 2453 3394 2887 2945 
Q 3322 2497 3322 1706 
Q 3322 1066 3130 698 
Q 2938 331 2570 128 
Q 2203 -75 1769 -75 
Q 1072 -75 642 372 
Q 213 819 213 1659 
z
M 791 1659 
Q 791 1022 1069 705 
Q 1347 388 1769 388 
Q 2188 388 2466 706 
Q 2744 1025 2744 1678 
Q 2744 2294 2464 2611 
Q 2184 2928 1769 2928 
Q 1347 2928 1069 2612 
Q 791 2297 791 1659 
z
" transform="scale(0.015625)"/>
       <path id="ArialMT-6d" d="M 422 0 
L 422 3319 
L 925 3319 
L 925 2853 
Q 1081 3097 1340 3245 
Q 1600 3394 1931 3394 
Q 2300 3394 2536 3241 
Q 2772 3088 2869 2813 
Q 3263 3394 3894 3394 
Q 4388 3394 4653 3120 
Q 4919 2847 4919 2278 
L 4919 0 
L 4359 0 
L 4359 2091 
Q 4359 2428 4304 2576 
Q 4250 2725 4106 2815 
Q 3963 2906 3769 2906 
Q 3419 2906 3187 2673 
Q 2956 2441 2956 1928 
L 2956 0 
L 2394 0 
L 2394 2156 
Q 2394 2531 2256 2718 
Q 2119 2906 1806 2906 
Q 1569 2906 1367 2781 
Q 1166 2656 1075 2415 
Q 984 2175 984 1722 
L 984 0 
L 422 0 
z
" transform="scale(0.015625)"/>
      </defs>
      <use xlink:href="#ArialMT-52"/>
      <use xlink:href="#ArialMT-61" x="72.216797"/>
      <use xlink:href="#ArialMT-6e" x="127.832031"/>
      <use xlink:href="#ArialMT-64" x="183.447266"/>
      <use xlink:href="#ArialMT-6f" x="239.0625"/>
      <use xlink:href="#ArialMT-6d" x="294.677734"/>
     </g>
    </g>
    <g id="line2d_32">
     <path d="M 36.752812 20.010625 
L 41.052812 20.010625 
L 45.352812 20.010625 
" style="fill: none; stroke: #c71585; stroke-width: 0.8; stroke-linecap: square"/>
     <defs>
      <path id="m1908fb20eb" d="M 0 -1.25 
L -1.25 1.25 
L 1.25 1.25 
z
" style="stroke: #c71585; stroke-width: 0.8; stroke-linejoin: miter"/>
     </defs>
     <g>
      <use xlink:href="#m1908fb20eb" x="41.052812" y="20.010625" style="fill: #c71585; stroke: #c71585; stroke-width: 0.8; stroke-linejoin: miter"/>
     </g>
    </g>
    <g id="text_14">
     <!-- Greedy -->
     <g transform="translate(46.341812 21.515625)scale(0.043 -0.043)">
      <defs>
       <path id="ArialMT-47" d="M 2638 1797 
L 2638 2334 
L 4578 2338 
L 4578 638 
Q 4131 281 3656 101 
Q 3181 -78 2681 -78 
Q 2006 -78 1454 211 
Q 903 500 622 1047 
Q 341 1594 341 2269 
Q 341 2938 620 3517 
Q 900 4097 1425 4378 
Q 1950 4659 2634 4659 
Q 3131 4659 3532 4498 
Q 3934 4338 4162 4050 
Q 4391 3763 4509 3300 
L 3963 3150 
Q 3859 3500 3706 3700 
Q 3553 3900 3268 4020 
Q 2984 4141 2638 4141 
Q 2222 4141 1919 4014 
Q 1616 3888 1430 3681 
Q 1244 3475 1141 3228 
Q 966 2803 966 2306 
Q 966 1694 1177 1281 
Q 1388 869 1791 669 
Q 2194 469 2647 469 
Q 3041 469 3416 620 
Q 3791 772 3984 944 
L 3984 1797 
L 2638 1797 
z
" transform="scale(0.015625)"/>
       <path id="ArialMT-72" d="M 416 0 
L 416 3319 
L 922 3319 
L 922 2816 
Q 1116 3169 1280 3281 
Q 1444 3394 1641 3394 
Q 1925 3394 2219 3213 
L 2025 2691 
Q 1819 2813 1613 2813 
Q 1428 2813 1281 2702 
Q 1134 2591 1072 2394 
Q 978 2094 978 1738 
L 978 0 
L 416 0 
z
" transform="scale(0.015625)"/>
       <path id="ArialMT-65" d="M 2694 1069 
L 3275 997 
Q 3138 488 2766 206 
Q 2394 -75 1816 -75 
Q 1088 -75 661 373 
Q 234 822 234 1631 
Q 234 2469 665 2931 
Q 1097 3394 1784 3394 
Q 2450 3394 2872 2941 
Q 3294 2488 3294 1666 
Q 3294 1616 3291 1516 
L 816 1516 
Q 847 969 1125 678 
Q 1403 388 1819 388 
Q 2128 388 2347 550 
Q 2566 713 2694 1069 
z
M 847 1978 
L 2700 1978 
Q 2663 2397 2488 2606 
Q 2219 2931 1791 2931 
Q 1403 2931 1139 2672 
Q 875 2413 847 1978 
z
" transform="scale(0.015625)"/>
       <path id="ArialMT-79" d="M 397 -1278 
L 334 -750 
Q 519 -800 656 -800 
Q 844 -800 956 -737 
Q 1069 -675 1141 -563 
Q 1194 -478 1313 -144 
Q 1328 -97 1363 -6 
L 103 3319 
L 709 3319 
L 1400 1397 
Q 1534 1031 1641 628 
Q 1738 1016 1872 1384 
L 2581 3319 
L 3144 3319 
L 1881 -56 
Q 1678 -603 1566 -809 
Q 1416 -1088 1222 -1217 
Q 1028 -1347 759 -1347 
Q 597 -1347 397 -1278 
z
" transform="scale(0.015625)"/>
      </defs>
      <use xlink:href="#ArialMT-47"/>
      <use xlink:href="#ArialMT-72" x="77.783203"/>
      <use xlink:href="#ArialMT-65" x="111.083984"/>
      <use xlink:href="#ArialMT-65" x="166.699219"/>
      <use xlink:href="#ArialMT-64" x="222.314453"/>
      <use xlink:href="#ArialMT-79" x="277.929688"/>
     </g>
    </g>
    <g id="line2d_33">
     <path d="M 36.752812 25.2835 
L 41.052812 25.2835 
L 45.352812 25.2835 
" style="fill: none; stroke: #00008b; stroke-width: 0.8; stroke-linecap: square"/>
     <defs>
      <path id="mdacd0840c7" d="M 0 1.5 
C 0.397805 1.5 0.77937 1.341951 1.06066 1.06066 
C 1.341951 0.77937 1.5 0.397805 1.5 0 
C 1.5 -0.397805 1.341951 -0.77937 1.06066 -1.06066 
C 0.77937 -1.341951 0.397805 -1.5 0 -1.5 
C -0.397805 -1.5 -0.77937 -1.341951 -1.06066 -1.06066 
C -1.341951 -0.77937 -1.5 -0.397805 -1.5 0 
C -1.5 0.397805 -1.341951 0.77937 -1.06066 1.06066 
C -0.77937 1.341951 -0.397805 1.5 0 1.5 
z
" style="stroke: #00008b; stroke-width: 0.8"/>
     </defs>
     <g>
      <use xlink:href="#mdacd0840c7" x="41.052812" y="25.2835" style="fill-opacity: 0; stroke: #00008b; stroke-width: 0.8"/>
     </g>
    </g>
    <g id="text_15">
     <!-- Cloest -->
     <g transform="translate(46.341812 26.7885)scale(0.043 -0.043)">
      <defs>
       <path id="ArialMT-43" d="M 3763 1606 
L 4369 1453 
Q 4178 706 3683 314 
Q 3188 -78 2472 -78 
Q 1731 -78 1267 223 
Q 803 525 561 1097 
Q 319 1669 319 2325 
Q 319 3041 592 3573 
Q 866 4106 1370 4382 
Q 1875 4659 2481 4659 
Q 3169 4659 3637 4309 
Q 4106 3959 4291 3325 
L 3694 3184 
Q 3534 3684 3231 3912 
Q 2928 4141 2469 4141 
Q 1941 4141 1586 3887 
Q 1231 3634 1087 3207 
Q 944 2781 944 2328 
Q 944 1744 1114 1308 
Q 1284 872 1643 656 
Q 2003 441 2422 441 
Q 2931 441 3284 734 
Q 3638 1028 3763 1606 
z
" transform="scale(0.015625)"/>
       <path id="ArialMT-6c" d="M 409 0 
L 409 4581 
L 972 4581 
L 972 0 
L 409 0 
z
" transform="scale(0.015625)"/>
       <path id="ArialMT-73" d="M 197 991 
L 753 1078 
Q 800 744 1014 566 
Q 1228 388 1613 388 
Q 2000 388 2187 545 
Q 2375 703 2375 916 
Q 2375 1106 2209 1216 
Q 2094 1291 1634 1406 
Q 1016 1563 777 1677 
Q 538 1791 414 1992 
Q 291 2194 291 2438 
Q 291 2659 392 2848 
Q 494 3038 669 3163 
Q 800 3259 1026 3326 
Q 1253 3394 1513 3394 
Q 1903 3394 2198 3281 
Q 2494 3169 2634 2976 
Q 2775 2784 2828 2463 
L 2278 2388 
Q 2241 2644 2061 2787 
Q 1881 2931 1553 2931 
Q 1166 2931 1000 2803 
Q 834 2675 834 2503 
Q 834 2394 903 2306 
Q 972 2216 1119 2156 
Q 1203 2125 1616 2013 
Q 2213 1853 2448 1751 
Q 2684 1650 2818 1456 
Q 2953 1263 2953 975 
Q 2953 694 2789 445 
Q 2625 197 2315 61 
Q 2006 -75 1616 -75 
Q 969 -75 630 194 
Q 291 463 197 991 
z
" transform="scale(0.015625)"/>
       <path id="ArialMT-74" d="M 1650 503 
L 1731 6 
Q 1494 -44 1306 -44 
Q 1000 -44 831 53 
Q 663 150 594 308 
Q 525 466 525 972 
L 525 2881 
L 113 2881 
L 113 3319 
L 525 3319 
L 525 4141 
L 1084 4478 
L 1084 3319 
L 1650 3319 
L 1650 2881 
L 1084 2881 
L 1084 941 
Q 1084 700 1114 631 
Q 1144 563 1211 522 
Q 1278 481 1403 481 
Q 1497 481 1650 503 
z
" transform="scale(0.015625)"/>
      </defs>
      <use xlink:href="#ArialMT-43"/>
      <use xlink:href="#ArialMT-6c" x="72.216797"/>
      <use xlink:href="#ArialMT-6f" x="94.433594"/>
      <use xlink:href="#ArialMT-65" x="150.048828"/>
      <use xlink:href="#ArialMT-73" x="205.664062"/>
      <use xlink:href="#ArialMT-74" x="255.664062"/>
     </g>
    </g>
    <g id="line2d_34">
     <path d="M 64.743797 14.735734 
L 69.043797 14.735734 
L 73.343797 14.735734 
" style="fill: none; stroke: #708090; stroke-width: 0.8; stroke-linecap: square"/>
     <defs>
      <path id="m1e95ddc5ad" d="M 0 2.12132 
L 1.272792 0 
L 0 -2.12132 
L -1.272792 0 
z
" style="stroke: #708090; stroke-width: 0.8; stroke-linejoin: miter"/>
     </defs>
     <g>
      <use xlink:href="#m1e95ddc5ad" x="69.043797" y="14.735734" style="fill-opacity: 0; stroke: #708090; stroke-width: 0.8; stroke-linejoin: miter"/>
     </g>
    </g>
    <g id="text_16">
     <!-- M-Greedy -->
     <g transform="translate(74.332797 16.240734)scale(0.043 -0.043)">
      <defs>
       <path id="ArialMT-4d" d="M 475 0 
L 475 4581 
L 1388 4581 
L 2472 1338 
Q 2622 884 2691 659 
Q 2769 909 2934 1394 
L 4031 4581 
L 4847 4581 
L 4847 0 
L 4263 0 
L 4263 3834 
L 2931 0 
L 2384 0 
L 1059 3900 
L 1059 0 
L 475 0 
z
" transform="scale(0.015625)"/>
       <path id="ArialMT-2d" d="M 203 1375 
L 203 1941 
L 1931 1941 
L 1931 1375 
L 203 1375 
z
" transform="scale(0.015625)"/>
      </defs>
      <use xlink:href="#ArialMT-4d"/>
      <use xlink:href="#ArialMT-2d" x="83.300781"/>
      <use xlink:href="#ArialMT-47" x="116.601562"/>
      <use xlink:href="#ArialMT-72" x="194.384766"/>
      <use xlink:href="#ArialMT-65" x="227.685547"/>
      <use xlink:href="#ArialMT-65" x="283.300781"/>
      <use xlink:href="#ArialMT-64" x="338.916016"/>
      <use xlink:href="#ArialMT-79" x="394.53125"/>
     </g>
    </g>
    <g id="line2d_35">
     <path d="M 64.743797 20.008609 
L 69.043797 20.008609 
L 73.343797 20.008609 
" style="fill: none; stroke: #ff4500; stroke-width: 0.8; stroke-linecap: square"/>
     <defs>
      <path id="m8551642a9a" d="M -1.25 1.25 
L 1.25 1.25 
L 1.25 -1.25 
L -1.25 -1.25 
z
" style="stroke: #ff4500; stroke-width: 0.8; stroke-linejoin: miter"/>
     </defs>
     <g>
      <use xlink:href="#m8551642a9a" x="69.043797" y="20.008609" style="fill-opacity: 0; stroke: #ff4500; stroke-width: 0.8; stroke-linejoin: miter"/>
     </g>
    </g>
    <g id="text_17">
     <!-- G-Game -->
     <g transform="translate(74.332797 21.513609)scale(0.043 -0.043)">
      <use xlink:href="#ArialMT-47"/>
      <use xlink:href="#ArialMT-2d" x="77.783203"/>
      <use xlink:href="#ArialMT-47" x="111.083984"/>
      <use xlink:href="#ArialMT-61" x="188.867188"/>
      <use xlink:href="#ArialMT-6d" x="244.482422"/>
      <use xlink:href="#ArialMT-65" x="327.783203"/>
     </g>
    </g>
    <g id="line2d_36">
     <path d="M 64.743797 25.231094 
L 69.043797 25.231094 
L 73.343797 25.231094 
" style="fill: none; stroke-dasharray: 2.96,1.28; stroke-dashoffset: 0; stroke: #228b22; stroke-width: 0.8"/>
     <defs>
      <path id="m301dedf6e0" d="M -1.25 1.25 
L 1.25 1.25 
L 1.25 -1.25 
L -1.25 -1.25 
z
" style="stroke: #228b22; stroke-width: 0.8; stroke-linejoin: miter"/>
     </defs>
     <g>
      <use xlink:href="#m301dedf6e0" x="69.043797" y="25.231094" style="fill-opacity: 0; stroke: #228b22; stroke-width: 0.8; stroke-linejoin: miter"/>
     </g>
    </g>
    <g id="text_18">
     <!-- G-Game-its -->
     <g transform="translate(74.332797 26.736094)scale(0.043 -0.043)">
      <defs>
       <path id="ArialMT-69" d="M 425 3934 
L 425 4581 
L 988 4581 
L 988 3934 
L 425 3934 
z
M 425 0 
L 425 3319 
L 988 3319 
L 988 0 
L 425 0 
z
" transform="scale(0.015625)"/>
      </defs>
      <use xlink:href="#ArialMT-47"/>
      <use xlink:href="#ArialMT-2d" x="77.783203"/>
      <use xlink:href="#ArialMT-47" x="111.083984"/>
      <use xlink:href="#ArialMT-61" x="188.867188"/>
      <use xlink:href="#ArialMT-6d" x="244.482422"/>
      <use xlink:href="#ArialMT-65" x="327.783203"/>
      <use xlink:href="#ArialMT-2d" x="383.398438"/>
      <use xlink:href="#ArialMT-69" x="416.699219"/>
      <use xlink:href="#ArialMT-74" x="438.916016"/>
      <use xlink:href="#ArialMT-73" x="466.699219"/>
     </g>
    </g>
    <g id="line2d_37">
     <path d="M 98.699688 14.735734 
L 102.999688 14.735734 
L 107.299688 14.735734 
" style="fill: none; stroke: #ffa500; stroke-width: 0.8; stroke-linecap: square"/>
     <defs>
      <path id="m0e081cd031" d="M 0 -1.5 
L -0.336771 -0.463525 
L -1.426585 -0.463525 
L -0.544907 0.177051 
L -0.881678 1.213525 
L -0 0.572949 
L 0.881678 1.213525 
L 0.544907 0.177051 
L 1.426585 -0.463525 
L 0.336771 -0.463525 
z
" style="stroke: #ffa500; stroke-width: 0.8; stroke-linejoin: bevel"/>
     </defs>
     <g>
      <use xlink:href="#m0e081cd031" x="102.999688" y="14.735734" style="fill-opacity: 0; stroke: #ffa500; stroke-width: 0.8; stroke-linejoin: bevel"/>
     </g>
    </g>
    <g id="text_19">
     <!-- M-Game -->
     <g transform="translate(108.288688 16.240734)scale(0.043 -0.043)">
      <use xlink:href="#ArialMT-4d"/>
      <use xlink:href="#ArialMT-2d" x="83.300781"/>
      <use xlink:href="#ArialMT-47" x="116.601562"/>
      <use xlink:href="#ArialMT-61" x="194.384766"/>
      <use xlink:href="#ArialMT-6d" x="250"/>
      <use xlink:href="#ArialMT-65" x="333.300781"/>
     </g>
    </g>
    <g id="line2d_38">
     <path d="M 98.699688 19.958219 
L 102.999688 19.958219 
L 107.299688 19.958219 
" style="fill: none; stroke-dasharray: 2.96,1.28; stroke-dashoffset: 0; stroke: #ff69b4; stroke-width: 0.8"/>
     <defs>
      <path id="m82abe2e6d0" d="M 0 -1.5 
L -0.336771 -0.463525 
L -1.426585 -0.463525 
L -0.544907 0.177051 
L -0.881678 1.213525 
L -0 0.572949 
L 0.881678 1.213525 
L 0.544907 0.177051 
L 1.426585 -0.463525 
L 0.336771 -0.463525 
z
" style="stroke: #ff69b4; stroke-width: 0.8; stroke-linejoin: bevel"/>
     </defs>
     <g>
      <use xlink:href="#m82abe2e6d0" x="102.999688" y="19.958219" style="fill-opacity: 0; stroke: #ff69b4; stroke-width: 0.8; stroke-linejoin: bevel"/>
     </g>
    </g>
    <g id="text_20">
     <!-- M-Game-its -->
     <g transform="translate(108.288688 21.463219)scale(0.043 -0.043)">
      <use xlink:href="#ArialMT-4d"/>
      <use xlink:href="#ArialMT-2d" x="83.300781"/>
      <use xlink:href="#ArialMT-47" x="116.601562"/>
      <use xlink:href="#ArialMT-61" x="194.384766"/>
      <use xlink:href="#ArialMT-6d" x="250"/>
      <use xlink:href="#ArialMT-65" x="333.300781"/>
      <use xlink:href="#ArialMT-2d" x="388.916016"/>
      <use xlink:href="#ArialMT-69" x="422.216797"/>
      <use xlink:href="#ArialMT-74" x="444.433594"/>
      <use xlink:href="#ArialMT-73" x="472.216797"/>
     </g>
    </g>
   </g>
   <g id="line2d_39">
    <path d="M 32.882812 86.806925 
L 57.992812 86.807966 
L 83.102812 86.761229 
L 108.212812 86.742207 
L 133.322812 86.731734 
" style="fill: none; stroke: #000000; stroke-width: 0.8; stroke-linecap: square"/>
    <g>
     <use xlink:href="#mcdb5e52163" x="32.882812" y="86.806925" style="fill-opacity: 0; stroke: #000000; stroke-width: 0.8"/>
     <use xlink:href="#mcdb5e52163" x="57.992812" y="86.807966" style="fill-opacity: 0; stroke: #000000; stroke-width: 0.8"/>
     <use xlink:href="#mcdb5e52163" x="83.102812" y="86.761229" style="fill-opacity: 0; stroke: #000000; stroke-width: 0.8"/>
     <use xlink:href="#mcdb5e52163" x="108.212812" y="86.742207" style="fill-opacity: 0; stroke: #000000; stroke-width: 0.8"/>
     <use xlink:href="#mcdb5e52163" x="133.322812" y="86.731734" style="fill-opacity: 0; stroke: #000000; stroke-width: 0.8"/>
    </g>
   </g>
   <g id="line2d_40">
    <path d="M 32.882812 86.801273 
L 57.992812 86.800679 
L 83.102812 86.737881 
L 108.212812 86.723009 
L 133.322812 86.683608 
" style="fill: none; stroke: #c71585; stroke-width: 0.8; stroke-linecap: square"/>
    <g>
     <use xlink:href="#m1908fb20eb" x="32.882812" y="86.801273" style="fill: #c71585; stroke: #c71585; stroke-width: 0.8; stroke-linejoin: miter"/>
     <use xlink:href="#m1908fb20eb" x="57.992812" y="86.800679" style="fill: #c71585; stroke: #c71585; stroke-width: 0.8; stroke-linejoin: miter"/>
     <use xlink:href="#m1908fb20eb" x="83.102812" y="86.737881" style="fill: #c71585; stroke: #c71585; stroke-width: 0.8; stroke-linejoin: miter"/>
     <use xlink:href="#m1908fb20eb" x="108.212812" y="86.723009" style="fill: #c71585; stroke: #c71585; stroke-width: 0.8; stroke-linejoin: miter"/>
     <use xlink:href="#m1908fb20eb" x="133.322812" y="86.683608" style="fill: #c71585; stroke: #c71585; stroke-width: 0.8; stroke-linejoin: miter"/>
    </g>
   </g>
   <g id="line2d_41">
    <path d="M 32.882812 86.802886 
L 57.992812 86.802626 
L 83.102812 86.724824 
L 108.212812 86.724326 
L 133.322812 86.686141 
" style="fill: none; stroke: #00008b; stroke-width: 0.8; stroke-linecap: square"/>
    <g>
     <use xlink:href="#mdacd0840c7" x="32.882812" y="86.802886" style="fill-opacity: 0; stroke: #00008b; stroke-width: 0.8"/>
     <use xlink:href="#mdacd0840c7" x="57.992812" y="86.802626" style="fill-opacity: 0; stroke: #00008b; stroke-width: 0.8"/>
     <use xlink:href="#mdacd0840c7" x="83.102812" y="86.724824" style="fill-opacity: 0; stroke: #00008b; stroke-width: 0.8"/>
     <use xlink:href="#mdacd0840c7" x="108.212812" y="86.724326" style="fill-opacity: 0; stroke: #00008b; stroke-width: 0.8"/>
     <use xlink:href="#mdacd0840c7" x="133.322812" y="86.686141" style="fill-opacity: 0; stroke: #00008b; stroke-width: 0.8"/>
    </g>
   </g>
   <g id="line2d_42">
    <path d="M 32.882812 83.162841 
L 57.992812 78.274301 
L 83.102812 73.154191 
L 108.212812 66.826487 
L 133.322812 53.826565 
" style="fill: none; stroke: #708090; stroke-width: 0.8; stroke-linecap: square"/>
    <g>
     <use xlink:href="#m1e95ddc5ad" x="32.882812" y="83.162841" style="fill-opacity: 0; stroke: #708090; stroke-width: 0.8; stroke-linejoin: miter"/>
     <use xlink:href="#m1e95ddc5ad" x="57.992812" y="78.274301" style="fill-opacity: 0; stroke: #708090; stroke-width: 0.8; stroke-linejoin: miter"/>
     <use xlink:href="#m1e95ddc5ad" x="83.102812" y="73.154191" style="fill-opacity: 0; stroke: #708090; stroke-width: 0.8; stroke-linejoin: miter"/>
     <use xlink:href="#m1e95ddc5ad" x="108.212812" y="66.826487" style="fill-opacity: 0; stroke: #708090; stroke-width: 0.8; stroke-linejoin: miter"/>
     <use xlink:href="#m1e95ddc5ad" x="133.322812" y="53.826565" style="fill-opacity: 0; stroke: #708090; stroke-width: 0.8; stroke-linejoin: miter"/>
    </g>
   </g>
   <g id="line2d_43">
    <path d="M 32.882812 84.679458 
L 57.992812 82.087243 
L 83.102812 78.324121 
L 108.212812 71.408777 
L 133.322812 63.617448 
" style="fill: none; stroke: #ff4500; stroke-width: 0.8; stroke-linecap: square"/>
    <g>
     <use xlink:href="#m8551642a9a" x="32.882812" y="84.679458" style="fill-opacity: 0; stroke: #ff4500; stroke-width: 0.8; stroke-linejoin: miter"/>
     <use xlink:href="#m8551642a9a" x="57.992812" y="82.087243" style="fill-opacity: 0; stroke: #ff4500; stroke-width: 0.8; stroke-linejoin: miter"/>
     <use xlink:href="#m8551642a9a" x="83.102812" y="78.324121" style="fill-opacity: 0; stroke: #ff4500; stroke-width: 0.8; stroke-linejoin: miter"/>
     <use xlink:href="#m8551642a9a" x="108.212812" y="71.408777" style="fill-opacity: 0; stroke: #ff4500; stroke-width: 0.8; stroke-linejoin: miter"/>
     <use xlink:href="#m8551642a9a" x="133.322812" y="63.617448" style="fill-opacity: 0; stroke: #ff4500; stroke-width: 0.8; stroke-linejoin: miter"/>
    </g>
   </g>
   <g id="line2d_44">
    <path d="M 32.882812 86.003896 
L 57.992812 85.383047 
L 83.102812 83.496566 
L 108.212812 82.008549 
L 133.322812 77.080523 
" style="fill: none; stroke-dasharray: 2.96,1.28; stroke-dashoffset: 0; stroke: #228b22; stroke-width: 0.8"/>
    <g>
     <use xlink:href="#m301dedf6e0" x="32.882812" y="86.003896" style="fill-opacity: 0; stroke: #228b22; stroke-width: 0.8; stroke-linejoin: miter"/>
     <use xlink:href="#m301dedf6e0" x="57.992812" y="85.383047" style="fill-opacity: 0; stroke: #228b22; stroke-width: 0.8; stroke-linejoin: miter"/>
     <use xlink:href="#m301dedf6e0" x="83.102812" y="83.496566" style="fill-opacity: 0; stroke: #228b22; stroke-width: 0.8; stroke-linejoin: miter"/>
     <use xlink:href="#m301dedf6e0" x="108.212812" y="82.008549" style="fill-opacity: 0; stroke: #228b22; stroke-width: 0.8; stroke-linejoin: miter"/>
     <use xlink:href="#m301dedf6e0" x="133.322812" y="77.080523" style="fill-opacity: 0; stroke: #228b22; stroke-width: 0.8; stroke-linejoin: miter"/>
    </g>
   </g>
   <g id="line2d_45">
    <path d="M 32.882812 74.234858 
L 57.992812 65.506331 
L 83.102812 53.207907 
L 108.212812 35.808061 
L 133.322812 9.981038 
" style="fill: none; stroke: #ffa500; stroke-width: 0.8; stroke-linecap: square"/>
    <g>
     <use xlink:href="#m0e081cd031" x="32.882812" y="74.234858" style="fill-opacity: 0; stroke: #ffa500; stroke-width: 0.8; stroke-linejoin: bevel"/>
     <use xlink:href="#m0e081cd031" x="57.992812" y="65.506331" style="fill-opacity: 0; stroke: #ffa500; stroke-width: 0.8; stroke-linejoin: bevel"/>
     <use xlink:href="#m0e081cd031" x="83.102812" y="53.207907" style="fill-opacity: 0; stroke: #ffa500; stroke-width: 0.8; stroke-linejoin: bevel"/>
     <use xlink:href="#m0e081cd031" x="108.212812" y="35.808061" style="fill-opacity: 0; stroke: #ffa500; stroke-width: 0.8; stroke-linejoin: bevel"/>
     <use xlink:href="#m0e081cd031" x="133.322812" y="9.981038" style="fill-opacity: 0; stroke: #ffa500; stroke-width: 0.8; stroke-linejoin: bevel"/>
    </g>
   </g>
   <g id="line2d_46">
    <path d="M 32.882812 81.431928 
L 57.992812 76.382207 
L 83.102812 70.165618 
L 108.212812 62.924545 
L 133.322812 51.579307 
" style="fill: none; stroke-dasharray: 2.96,1.28; stroke-dashoffset: 0; stroke: #ff69b4; stroke-width: 0.8"/>
    <g>
     <use xlink:href="#m82abe2e6d0" x="32.882812" y="81.431928" style="fill-opacity: 0; stroke: #ff69b4; stroke-width: 0.8; stroke-linejoin: bevel"/>
     <use xlink:href="#m82abe2e6d0" x="57.992812" y="76.382207" style="fill-opacity: 0; stroke: #ff69b4; stroke-width: 0.8; stroke-linejoin: bevel"/>
     <use xlink:href="#m82abe2e6d0" x="83.102812" y="70.165618" style="fill-opacity: 0; stroke: #ff69b4; stroke-width: 0.8; stroke-linejoin: bevel"/>
     <use xlink:href="#m82abe2e6d0" x="108.212812" y="62.924545" style="fill-opacity: 0; stroke: #ff69b4; stroke-width: 0.8; stroke-linejoin: bevel"/>
     <use xlink:href="#m82abe2e6d0" x="133.322812" y="51.579307" style="fill-opacity: 0; stroke: #ff69b4; stroke-width: 0.8; stroke-linejoin: bevel"/>
    </g>
   </g>
  </g>
 </g>
 <defs>
  <clipPath id="pfc763b3372">
   <rect x="32.882812" y="9.240469" width="100.44" height="77.616"/>
  </clipPath>
 </defs>
</svg>
